<?xml version="1.0" encoding="UTF-8" standalone="no"?>
<svg
   xmlns:dc="http://purl.org/dc/elements/1.1/"
   xmlns:cc="http://creativecommons.org/ns#"
   xmlns:rdf="http://www.w3.org/1999/02/22-rdf-syntax-ns#"
   xmlns:svg="http://www.w3.org/2000/svg"
   xmlns="http://www.w3.org/2000/svg"
   viewBox="0 0 816 1056"
   height="1056"
   width="816"
   xml:space="preserve"
   id="svg2"
   version="1.1"><metadata
     id="metadata8"><rdf:RDF><cc:Work
         rdf:about=""><dc:format>image/svg+xml</dc:format><dc:type
           rdf:resource="http://purl.org/dc/dcmitype/StillImage" /></cc:Work></rdf:RDF></metadata><defs
     id="defs6"><clipPath
       id="clipPath64"
       clipPathUnits="userSpaceOnUse"><path
         id="path62"
         d="M 107.88,484.2 H 256.2 v 21.72 H 107.88 Z" /></clipPath><clipPath
       id="clipPath76"
       clipPathUnits="userSpaceOnUse"><path
         id="path74"
         d="M 107.88,484.2 H 256.2 v 21.72 H 107.88 Z" /></clipPath><clipPath
       id="clipPath84"
       clipPathUnits="userSpaceOnUse"><path
         id="path82"
         d="m 256.68,484.2 h 105.84 v 21.72 H 256.68 Z" /></clipPath><clipPath
       id="clipPath96"
       clipPathUnits="userSpaceOnUse"><path
         id="path94"
         d="m 256.68,484.2 h 105.84 v 21.72 H 256.68 Z" /></clipPath><clipPath
       id="clipPath104"
       clipPathUnits="userSpaceOnUse"><path
         id="path102"
         d="m 363,484.2 h 70.44 v 21.72 H 363 Z" /></clipPath><clipPath
       id="clipPath116"
       clipPathUnits="userSpaceOnUse"><path
         id="path114"
         d="m 363,484.2 h 70.44 v 21.72 H 363 Z" /></clipPath><clipPath
       id="clipPath124"
       clipPathUnits="userSpaceOnUse"><path
         id="path122"
         d="m 433.92,484.2 h 91.561 v 21.72 H 433.92 Z" /></clipPath><clipPath
       id="clipPath136"
       clipPathUnits="userSpaceOnUse"><path
         id="path134"
         d="m 433.92,484.2 h 91.561 v 21.72 H 433.92 Z" /></clipPath><clipPath
       id="clipPath178"
       clipPathUnits="userSpaceOnUse"><path
         id="path176"
         d="M 107.88,465.84 H 256.2 v 17.88 H 107.88 Z" /></clipPath><clipPath
       id="clipPath190"
       clipPathUnits="userSpaceOnUse"><path
         id="path188"
         d="M 107.88,465.84 H 256.2 v 17.88 H 107.88 Z" /></clipPath><clipPath
       id="clipPath198"
       clipPathUnits="userSpaceOnUse"><path
         id="path196"
         d="m 256.68,465.84 h 105.84 v 17.88 H 256.68 Z" /></clipPath><clipPath
       id="clipPath210"
       clipPathUnits="userSpaceOnUse"><path
         id="path208"
         d="m 256.68,465.84 h 105.84 v 17.88 H 256.68 Z" /></clipPath><clipPath
       id="clipPath222"
       clipPathUnits="userSpaceOnUse"><path
         id="path220"
         d="m 256.68,465.84 h 105.84 v 17.88 H 256.68 Z" /></clipPath><clipPath
       id="clipPath230"
       clipPathUnits="userSpaceOnUse"><path
         id="path228"
         d="m 363,465.84 h 70.44 v 17.88 H 363 Z" /></clipPath><clipPath
       id="clipPath242"
       clipPathUnits="userSpaceOnUse"><path
         id="path240"
         d="m 363,465.84 h 70.44 v 17.88 H 363 Z" /></clipPath><clipPath
       id="clipPath250"
       clipPathUnits="userSpaceOnUse"><path
         id="path248"
         d="m 433.92,465.84 h 91.561 v 17.88 H 433.92 Z" /></clipPath><clipPath
       id="clipPath262"
       clipPathUnits="userSpaceOnUse"><path
         id="path260"
         d="m 433.92,465.84 h 91.561 v 17.88 H 433.92 Z" /></clipPath><clipPath
       id="clipPath298"
       clipPathUnits="userSpaceOnUse"><path
         id="path296"
         d="M 107.88,447.36 H 256.2 v 17.879 H 107.88 Z" /></clipPath><clipPath
       id="clipPath310"
       clipPathUnits="userSpaceOnUse"><path
         id="path308"
         d="M 107.88,447.36 H 256.2 v 17.879 H 107.88 Z" /></clipPath><clipPath
       id="clipPath318"
       clipPathUnits="userSpaceOnUse"><path
         id="path316"
         d="M 107.88,447.36 H 256.2 v 17.879 H 107.88 Z" /></clipPath><clipPath
       id="clipPath330"
       clipPathUnits="userSpaceOnUse"><path
         id="path328"
         d="M 107.88,447.36 H 256.2 v 17.879 H 107.88 Z" /></clipPath><clipPath
       id="clipPath338"
       clipPathUnits="userSpaceOnUse"><path
         id="path336"
         d="m 256.68,447.36 h 105.84 v 17.879 H 256.68 Z" /></clipPath><clipPath
       id="clipPath350"
       clipPathUnits="userSpaceOnUse"><path
         id="path348"
         d="m 256.68,447.36 h 105.84 v 17.879 H 256.68 Z" /></clipPath><clipPath
       id="clipPath358"
       clipPathUnits="userSpaceOnUse"><path
         id="path356"
         d="m 363,447.36 h 70.44 v 17.879 H 363 Z" /></clipPath><clipPath
       id="clipPath370"
       clipPathUnits="userSpaceOnUse"><path
         id="path368"
         d="m 363,447.36 h 70.44 v 17.879 H 363 Z" /></clipPath><clipPath
       id="clipPath378"
       clipPathUnits="userSpaceOnUse"><path
         id="path376"
         d="m 433.92,447.36 h 91.561 v 17.879 H 433.92 Z" /></clipPath><clipPath
       id="clipPath390"
       clipPathUnits="userSpaceOnUse"><path
         id="path388"
         d="m 433.92,447.36 h 91.561 v 17.879 H 433.92 Z" /></clipPath></defs><g
     transform="matrix(1.3333333,0,0,-1.3333333,0,1056)"
     id="g10"><path
       id="path12"
       style="fill:#ffffff;fill-opacity:1;fill-rule:evenodd;stroke:#000000;stroke-width:0.75;stroke-linecap:butt;stroke-linejoin:miter;stroke-miterlimit:8;stroke-dasharray:none;stroke-opacity:1"
       d="m 92.95,675.901 h 444 V 81.751 h -444 z" /><text
       id="text18"
       style="font-variant:normal;font-weight:bold;font-stretch:normal;font-size:11.03999996px;font-family:Arial;-inkscape-font-specification:Arial-BoldMT;writing-mode:lr-tb;fill:#000000;fill-opacity:1;fill-rule:nonzero;stroke:none"
       transform="matrix(1,0,0,-1,171.6,647.88)"><tspan
         id="tspan14"
         y="0"
         x="0 7.9156799 15.83136 23.150881 29.991264 38.510834 47.751312 55.071938 62.987617 65.987183 74.027618 81.943298 89.858978 97.178497 104.49912 111.21917 119.13485 127.05053 134.9662 142.28572 145.40562 152.72626 160.64194 169.28185 175.40131 182.72194 190.63762 197.35767 200.48198 208.39766 216.91724 226.15771 233.47723 240.19728 247.5179 254.35829 257.35785 265.99777 273.91345 277.03775 283.63858 292.27847 300.07825 309.24146">CUSTOMER ACCEPTANCE/PROJECT COMPLETION FORM </tspan><tspan
         id="tspan16"
         y="12.71808"
         x="101.76672 107.88288 113.99904 117.12336 125.04346 132.36298 140.28307 147.6037 156.84308 164.76317 172.08379 180.00278 183.12711 189.24327 195.35942 201.47559 207.48576">20 DECEMBER 2020 </tspan></text>
<text
       id="text22"
       style="font-variant:normal;font-weight:bold;font-stretch:normal;font-size:11.03999996px;font-family:Arial;-inkscape-font-specification:Arial-BoldMT;writing-mode:lr-tb;fill:#000000;fill-opacity:1;fill-rule:nonzero;stroke:none"
       transform="matrix(1,0,0,-1,105.1171,609.8472)"><tspan
         id="tspan20"
         y="0"
         x="0">P</tspan></text>
<text
       id="text26"
       style="font-variant:normal;font-weight:bold;font-stretch:normal;font-size:11.03999996px;font-family:Arial;-inkscape-font-specification:Arial-BoldMT;writing-mode:lr-tb;fill:#000000;fill-opacity:1;fill-rule:nonzero;stroke:none"
       transform="matrix(1,0,0,-1,112.43664,609.8472)"><tspan
         id="tspan24"
         y="0"
         x="0 4.319952 11.043312 14.16432 20.280479 26.396641 29.996784 33.116688 41.036785 47.152943 56.992897 62.993137 66.712509">roject Name: </tspan></text>
<text
       id="text30"
       style="font-variant:normal;font-weight:normal;font-stretch:normal;font-size:11.03999996px;font-family:Arial;-inkscape-font-specification:ArialMT;writing-mode:lr-tb;fill:#000000;fill-opacity:1;fill-rule:nonzero;stroke:none"
       transform="matrix(1,0,0,-1,209.76528,609.8472)"><tspan
         id="tspan28"
         y="0"
         x="0 7.9200959 15.239616 23.159712 26.284033 33.603554 39.723022 47.042545 53.763695 61.083218 64.197601 72.117699 79.437218 87.357315 95.997215 104.63712 112.43798 115.55679 122.27683 125.2775 133.79707 141.71716 144.84149 152.16101 159.48053 166.80005 173.5201 180.83961 190.07568">CAR PLATE RECOGNITION SYSTEM </tspan></text>
<text
       id="text34"
       style="font-variant:normal;font-weight:bold;font-stretch:normal;font-size:11.03999996px;font-family:Arial;-inkscape-font-specification:Arial-BoldMT;writing-mode:lr-tb;fill:#000000;fill-opacity:1;fill-rule:nonzero;stroke:none"
       transform="matrix(1,0,0,-1,105.1171,584.6539)"><tspan
         id="tspan32"
         y="0"
         x="0">P</tspan></text>
<text
       id="text38"
       style="font-variant:normal;font-weight:bold;font-stretch:normal;font-size:11.03999996px;font-family:Arial;-inkscape-font-specification:Arial-BoldMT;writing-mode:lr-tb;fill:#000000;fill-opacity:1;fill-rule:nonzero;stroke:none"
       transform="matrix(1,0,0,-1,112.43664,584.65392)"><tspan
         id="tspan36"
         y="0"
         x="0 4.319952 11.043312 14.16432 20.280479 26.396641 29.996784 33.121105 42.361584 48.477745 55.201103 61.317265 68.040627 74.040863 78.359711">roject Manager:</tspan></text>
<text
       id="text42"
       style="font-variant:normal;font-weight:normal;font-stretch:normal;font-size:11.03999996px;font-family:Arial;-inkscape-font-specification:ArialMT;writing-mode:lr-tb;fill:#000000;fill-opacity:1;fill-rule:nonzero;stroke:none"
       transform="matrix(1,0,0,-1,209.65488,584.65392)"><tspan
         id="tspan40"
         y="0"
         x="0 8.639904 16.559999 23.87952 31.199039 34.32336 41.642879 48.962399 57.602303 60.726624 66.127396 69.247299 77.167389 85.670403">QUEK YAO JING </tspan></text>
<text
       id="text46"
       style="font-variant:normal;font-weight:bold;font-stretch:normal;font-size:11.03999996px;font-family:Arial;-inkscape-font-specification:Arial-BoldMT;writing-mode:lr-tb;fill:#000000;fill-opacity:1;fill-rule:nonzero;stroke:none"
       transform="matrix(1,0,0,-1,107.6453,559.3392)"><tspan
         id="tspan44"
         y="0"
         x="0">I</tspan></text>
<text
       id="text56"
       style="font-variant:normal;font-weight:bold;font-stretch:normal;font-size:11.03999996px;font-family:Arial;-inkscape-font-specification:Arial-BoldMT;writing-mode:lr-tb;fill:#000000;fill-opacity:1;fill-rule:nonzero;stroke:none"
       transform="matrix(1,0,0,-1,113.77248,559.3392)"><tspan
         id="tspan48"
         y="0"
         x="0 3.7193761 14.1588 20.27496 23.875105 26.874672 29.994576 33.715057 40.438416 46.437553 49.54752 56.270882 62.99424 69.717598 75.833763 80.153709 86.269875 89.389778 96.113136 102.83649 108.95266 115.55237 118.67338 121.7977 127.91386 134.03001 140.14618 146.86954 153.46925 162.10915 165.22905 171.34521 178.06857 184.79193 190.79218 193.91649 200.03265 206.75601 213.47937 216.6037 222.71985 228.83601 234.83626 240.95242 247.67578 251.39626 254.52057 261.24393 267.24307 270.36298 273.48288 279.59903 285.71521 290.03406 296.0343 299.1586 305.88196 309.48212 312.60645 316.3269 323.05026 329.04941 332.05008 340.68997 347.41333 351.61295 357.72913 360.85345 366.9696 373.69296 383.5329 390.13263 393.25253 399.36868 403.08807 409.20422 415.68359">(We), the undersigned, acknowledge and accept delivery of the work completed </tspan><tspan
         id="tspan50"
         y="12.71808"
         x="-6.1272001 -2.4067199 4.3166399 8.6365919 11.639472 15.358848 22.082209 25.203217 31.202353 34.312321 41.035679 45.355633 51.955345 55.075249 61.191406 67.307571 70.907715 74.034241 80.757599 87.480957 90.605278 97.328644 103.4448 110.16816 116.1684 119.28831 122.88845 126.01277 132.73613 136.33627 139.46059 146.18394 152.90732 157.22726 160.31184 166.91154 171.23151 177.95486 184.07103 190.79439 193.91429 199.43428 205.43452 209.1539 212.2738 218.99716 225.59135 228.59093 231.59381 240.83319 246.94934 249.95222 253.6727 262.31262 268.91232 273.23227 276.83243 279.95233 286.06848 289.18729 295.91064 302.634 308.63425 312.35471 319.07809 323.39804 329.38943 333.10992 339.2294 342.82953 345.95386 351.9541 355.67459 359.39505 365.51453 371.6351 375.23526 378.95572 385.0752 388.67535 391.79965 395.52014 402.11984">for this project on behalf of our organization. My (Our) signature(s) attest(s) to </tspan><tspan
         id="tspan52"
         y="25.31472"
         x="-6.1272001 3.7127521 9.8289118 12.831792 16.551168 23.274529 29.997889 34.317841 37.917984 41.035679 47.15184 53.875198 58.195152 64.31131 70.311554 80.151505 86.267662 92.99102 96.599998 99.724319 103.4448 110.16374 116.15846 119.87894 123.00327 126.72375 133.32567 136.44557 142.44029 145.56461 152.28796 156.60793 163.33128 166.45119 172.56734 178.56758 182.28696 185.41129 192.13464 198.25079 204.25104 207.37537 214.09872 220.21487 226.33104 232.93076 235.93031 242.04648 248.76984 258.6098 265.33316 268.45306 274.45331 278.17267 284.28882 291.01221 294.01288 297.13718 305.05728 311.78064 314.90497 318.62433 325.22406 329.5451 333.26447 339.98785 345.98807 350.30804 353.30759 361.94751 368.67087 372.99081 378.99106">my (our) agreement that this project has been completed. No further work </tspan><tspan
         id="tspan54"
         y="37.911362"
         x="-6.1161599 0 6.7233601 13.44672 20.17008 23.289984 30.013344 33.137665 39.861023 45.861263 48.985584 55.708942 62.432304 69.155663 75.271828 78.396141 85.119507 91.720322 94.844643 98.564018 105.16483 108.28474 114.28387 117.4082 124.13155 128.45151 135.17487 138.29477 144.41093 150.41116 154.13054 157.08817">should be done on this project. </tspan></text>
<g
       id="g58"><g
         clip-path="url(#clipPath64)"
         id="g60"><text
           id="text68"
           style="font-variant:normal;font-weight:bold;font-stretch:normal;font-size:11.03999996px;font-family:Arial;-inkscape-font-specification:Arial-BoldMT;writing-mode:lr-tb;fill:#000000;fill-opacity:1;fill-rule:nonzero;stroke:none"
           transform="matrix(1,0,0,-1,178.32,495.48)"><tspan
             id="tspan66"
             y="0"
             x="0 7.9156799 14.036256 23.875105">Name</tspan></text>
</g></g><g
       id="g70"><g
         clip-path="url(#clipPath76)"
         id="g72" /></g><g
       id="g78"><g
         clip-path="url(#clipPath84)"
         id="g80"><text
           id="text88"
           style="font-variant:normal;font-weight:bold;font-stretch:normal;font-size:11.03999996px;font-family:Arial;-inkscape-font-specification:Arial-BoldMT;writing-mode:lr-tb;fill:#000000;fill-opacity:1;fill-rule:nonzero;stroke:none"
           transform="matrix(1,0,0,-1,309.6,495.48)"><tspan
             id="tspan86"
             y="0"
             x="0 6.720048 9.844368 13.444512 16.568832">Title</tspan></text>
</g></g><g
       id="g90"><g
         clip-path="url(#clipPath96)"
         id="g92" /></g><g
       id="g98"><g
         clip-path="url(#clipPath104)"
         id="g100"><text
           id="text108"
           style="font-variant:normal;font-weight:bold;font-stretch:normal;font-size:11.03999996px;font-family:Arial;-inkscape-font-specification:Arial-BoldMT;writing-mode:lr-tb;fill:#000000;fill-opacity:1;fill-rule:nonzero;stroke:none"
           transform="matrix(1,0,0,-1,373.68,495.48)"><tspan
             id="tspan106"
             y="0"
             x="0 7.31952 10.440528 17.163889 23.887247 30.003408 33.722782 40.446144 44.766094">Signature</tspan></text>
</g></g><g
       id="g110"><g
         clip-path="url(#clipPath116)"
         id="g112" /></g><g
       id="g118"><g
         clip-path="url(#clipPath124)"
         id="g120"><text
           id="text128"
           style="font-variant:normal;font-weight:bold;font-stretch:normal;font-size:11.03999996px;font-family:Arial;-inkscape-font-specification:Arial-BoldMT;writing-mode:lr-tb;fill:#000000;fill-opacity:1;fill-rule:nonzero;stroke:none"
           transform="matrix(1,0,0,-1,465,495.6)"><tspan
             id="tspan126"
             y="0"
             x="0 7.9156799 14.036256 17.755632">Date</tspan></text>
</g></g><g
       id="g130"><g
         clip-path="url(#clipPath136)"
         id="g132" /></g><path
       id="path138"
       style="fill:#000000;fill-opacity:1;fill-rule:nonzero;stroke:none"
       d="m 107.4,505.92 h 0.481 v 0.481 H 107.4 Z" /><path
       id="path140"
       style="fill:#000000;fill-opacity:1;fill-rule:nonzero;stroke:none"
       d="m 107.4,505.92 h 0.481 v 0.481 H 107.4 Z" /><path
       id="path142"
       style="fill:#000000;fill-opacity:1;fill-rule:nonzero;stroke:none"
       d="m 107.88,505.92 h 148.44 v 0.481 H 107.88 Z" /><path
       id="path144"
       style="fill:#000000;fill-opacity:1;fill-rule:nonzero;stroke:none"
       d="m 256.32,505.92 h 0.48 v 0.481 h -0.48 z" /><path
       id="path146"
       style="fill:#000000;fill-opacity:1;fill-rule:nonzero;stroke:none"
       d="m 256.8,505.92 h 105.72 v 0.481 H 256.8 Z" /><path
       id="path148"
       style="fill:#000000;fill-opacity:1;fill-rule:nonzero;stroke:none"
       d="M 362.52,505.92 H 363 v 0.481 h -0.48 z" /><path
       id="path150"
       style="fill:#000000;fill-opacity:1;fill-rule:nonzero;stroke:none"
       d="m 363,505.92 h 70.44 v 0.481 H 363 Z" /><path
       id="path152"
       style="fill:#000000;fill-opacity:1;fill-rule:nonzero;stroke:none"
       d="m 433.44,505.92 h 0.48 v 0.481 h -0.48 z" /><path
       id="path154"
       style="fill:#000000;fill-opacity:1;fill-rule:nonzero;stroke:none"
       d="m 433.92,505.92 h 91.68 v 0.481 h -91.68 z" /><path
       id="path156"
       style="fill:#000000;fill-opacity:1;fill-rule:nonzero;stroke:none"
       d="m 525.6,505.92 h 0.48 v 0.481 h -0.48 z" /><path
       id="path158"
       style="fill:#000000;fill-opacity:1;fill-rule:nonzero;stroke:none"
       d="m 525.6,505.92 h 0.48 v 0.481 h -0.48 z" /><path
       id="path160"
       style="fill:#000000;fill-opacity:1;fill-rule:nonzero;stroke:none"
       d="m 107.4,484.2 h 0.481 v 21.72 H 107.4 Z" /><path
       id="path162"
       style="fill:#000000;fill-opacity:1;fill-rule:nonzero;stroke:none"
       d="m 256.32,484.2 h 0.48 v 21.72 h -0.48 z" /><path
       id="path164"
       style="fill:#000000;fill-opacity:1;fill-rule:nonzero;stroke:none"
       d="M 362.52,484.2 H 363 v 21.72 h -0.48 z" /><path
       id="path166"
       style="fill:#000000;fill-opacity:1;fill-rule:nonzero;stroke:none"
       d="m 433.44,484.2 h 0.48 v 21.72 h -0.48 z" /><path
       id="path168"
       style="fill:#000000;fill-opacity:1;fill-rule:nonzero;stroke:none"
       d="m 525.6,484.2 h 0.48 v 21.72 h -0.48 z" /><path
       id="path170"
       style="fill:#ffffff;fill-opacity:1;fill-rule:nonzero;stroke:none"
       d="m 112.2,471.6 h 78.24 v 12.12 H 112.2 Z" /><g
       id="g172"><g
         clip-path="url(#clipPath178)"
         id="g174"><text
           id="text182"
           style="font-variant:normal;font-weight:bold;font-stretch:normal;font-size:10.56000042px;font-family:Arial;-inkscape-font-specification:Arial-BoldMT;writing-mode:lr-tb;fill:#333333;fill-opacity:1;fill-rule:nonzero;stroke:none"
           transform="matrix(1,0,0,-1,112.2,473.88)"><tspan
             id="tspan180"
             y="0"
             x="0 7.6802878 10.56 14.63616 21.115776 26.876257 33.355873 39.23568 42.116447 44.999329 52.559231 59.039906 62.519424 68.399231 72.475395">Hiroyuki Kotera</tspan></text>
</g></g><g
       id="g184"><g
         clip-path="url(#clipPath190)"
         id="g186" /></g><g
       id="g192"><g
         clip-path="url(#clipPath198)"
         id="g194"><text
           id="text202"
           style="font-variant:normal;font-weight:bold;font-stretch:normal;font-size:10.56000042px;font-family:Arial;-inkscape-font-specification:Arial-BoldMT;writing-mode:lr-tb;fill:#000000;fill-opacity:1;fill-rule:nonzero;stroke:none"
           transform="matrix(1,0,0,-1,261.84,473.88)"><tspan
             id="tspan200"
             y="0"
             x="0 7.0794239 12.961344 18.720768 24.602688 31.082304 34.562881 37.442593 43.324512 49.206432">Executive </tspan></text>
</g></g><g
       id="g204"><g
         clip-path="url(#clipPath210)"
         id="g206"><text
           id="text214"
           style="font-variant:normal;font-weight:bold;font-stretch:normal;font-size:10.56000042px;font-family:Arial;-inkscape-font-specification:Arial-BoldMT;writing-mode:lr-tb;fill:#000000;fill-opacity:1;fill-rule:nonzero;stroke:none"
           transform="matrix(1,0,0,-1,313.8,473.88)"><tspan
             id="tspan212"
             y="0"
             x="0 7.6802878 10.56 14.640384 20.522305 26.404224 29.763359 36.244034">Director</tspan></text>
</g></g><g
       id="g216"><g
         clip-path="url(#clipPath222)"
         id="g218" /></g><g
       id="g224"><g
         clip-path="url(#clipPath230)"
         id="g226"><text
           id="text234"
           style="font-style:italic;font-variant:normal;font-weight:normal;font-stretch:normal;font-size:11.03999996px;font-family:'Brush Script MT';-inkscape-font-specification:BrushScriptMT;writing-mode:lr-tb;fill:#000000;fill-opacity:1;fill-rule:nonzero;stroke:none"
           transform="matrix(1,0,0,-1,382.56,474)"><tspan
             id="tspan232"
             y="0"
             x="0 7.0799518 9.6003838 12.83952 16.31712 20.516735 24.716352 28.796736">Hiroyuki</tspan></text>
</g></g><g
       id="g236"><g
         clip-path="url(#clipPath242)"
         id="g238" /></g><g
       id="g244"><g
         clip-path="url(#clipPath250)"
         id="g246"><text
           id="text254"
           style="font-variant:normal;font-weight:bold;font-stretch:normal;font-size:8.03999996px;font-family:Arial;-inkscape-font-specification:Arial-BoldMT;writing-mode:lr-tb;fill:#000000;fill-opacity:1;fill-rule:nonzero;stroke:none"
           transform="matrix(1,0,0,-1,439.08,476.16)"><tspan
             id="tspan252"
             y="0"
             x="0 4.4380798 8.8761597 13.795836 18.716316 23.154396 26.273916 30.711996 32.995358 37.433437 41.871517 44.031864 46.315224 50.753304 55.191383 59.629463">January 15, 2020</tspan></text>
</g></g><g
       id="g256"><g
         clip-path="url(#clipPath262)"
         id="g258" /></g><path
       id="path264"
       style="fill:#000000;fill-opacity:1;fill-rule:nonzero;stroke:none"
       d="m 107.4,483.72 h 0.481 v 0.48 H 107.4 Z" /><path
       id="path266"
       style="fill:#000000;fill-opacity:1;fill-rule:nonzero;stroke:none"
       d="m 107.88,483.72 h 148.44 v 0.48 H 107.88 Z" /><path
       id="path268"
       style="fill:#000000;fill-opacity:1;fill-rule:nonzero;stroke:none"
       d="m 256.32,483.72 h 0.48 v 0.48 h -0.48 z" /><path
       id="path270"
       style="fill:#000000;fill-opacity:1;fill-rule:nonzero;stroke:none"
       d="m 256.8,483.72 h 105.72 v 0.48 H 256.8 Z" /><path
       id="path272"
       style="fill:#000000;fill-opacity:1;fill-rule:nonzero;stroke:none"
       d="M 362.52,483.72 H 363 v 0.48 h -0.48 z" /><path
       id="path274"
       style="fill:#000000;fill-opacity:1;fill-rule:nonzero;stroke:none"
       d="m 363,483.72 h 70.44 v 0.48 H 363 Z" /><path
       id="path276"
       style="fill:#000000;fill-opacity:1;fill-rule:nonzero;stroke:none"
       d="m 433.44,483.72 h 0.48 v 0.48 h -0.48 z" /><path
       id="path278"
       style="fill:#000000;fill-opacity:1;fill-rule:nonzero;stroke:none"
       d="m 433.92,483.72 h 91.68 v 0.48 h -91.68 z" /><path
       id="path280"
       style="fill:#000000;fill-opacity:1;fill-rule:nonzero;stroke:none"
       d="m 525.6,483.72 h 0.48 v 0.48 h -0.48 z" /><path
       id="path282"
       style="fill:#000000;fill-opacity:1;fill-rule:nonzero;stroke:none"
       d="m 107.4,465.84 h 0.481 v 17.88 H 107.4 Z" /><path
       id="path284"
       style="fill:#000000;fill-opacity:1;fill-rule:nonzero;stroke:none"
       d="m 256.32,465.84 h 0.48 v 17.88 h -0.48 z" /><path
       id="path286"
       style="fill:#000000;fill-opacity:1;fill-rule:nonzero;stroke:none"
       d="M 362.52,465.84 H 363 v 17.88 h -0.48 z" /><path
       id="path288"
       style="fill:#000000;fill-opacity:1;fill-rule:nonzero;stroke:none"
       d="m 433.44,465.84 h 0.48 v 17.88 h -0.48 z" /><path
       id="path290"
       style="fill:#000000;fill-opacity:1;fill-rule:nonzero;stroke:none"
       d="m 525.6,465.84 h 0.48 v 17.88 h -0.48 z" /><g
       id="g292"><g
         clip-path="url(#clipPath298)"
         id="g294"><text
           id="text302"
           style="font-variant:normal;font-weight:bold;font-stretch:normal;font-size:10.56000042px;font-family:Arial;-inkscape-font-specification:Arial-BoldMT;writing-mode:lr-tb;fill:#000000;fill-opacity:1;fill-rule:nonzero;stroke:none"
           transform="matrix(1,0,0,-1,113.52,455.4)"><tspan
             id="tspan300"
             y="0"
             x="0 7.0794239 13.439712 19.320576 22.800097 25.682976 31.563841 34.44672 42.127007 45.009888">Shafie Bin</tspan></text>
</g></g><g
       id="g304"><g
         clip-path="url(#clipPath310)"
         id="g306" /></g><g
       id="g312"><g
         clip-path="url(#clipPath318)"
         id="g314"><text
           id="text322"
           style="font-variant:normal;font-weight:bold;font-stretch:normal;font-size:10.56000042px;font-family:Arial;-inkscape-font-specification:Arial-BoldMT;writing-mode:lr-tb;fill:#000000;fill-opacity:1;fill-rule:nonzero;stroke:none"
           transform="matrix(1,0,0,-1,167.88,455.4)"><tspan
             id="tspan320"
             y="0"
             x="0 6.9600959 13.443936 19.204416 28.563744 34.44355 40.803841 47.287682 53.771519 56.530849">Shamsuddin</tspan></text>
</g></g><g
       id="g324"><g
         clip-path="url(#clipPath330)"
         id="g326" /></g><g
       id="g332"><g
         clip-path="url(#clipPath338)"
         id="g334"><text
           id="text342"
           style="font-variant:normal;font-weight:bold;font-stretch:normal;font-size:10.56000042px;font-family:Arial;-inkscape-font-specification:Arial-BoldMT;writing-mode:lr-tb;fill:#000000;fill-opacity:1;fill-rule:nonzero;stroke:none"
           transform="matrix(1,0,0,-1,261.84,455.4)"><tspan
             id="tspan340"
             y="0"
             x="0 8.7595196 14.640384 21.124224 26.883648 33.367489 36.2472 42.606434 49.090271 51.973152 59.653439 62.533154 66.61248 72.493347 78.373154 81.732285 88.216125">Managing Director</tspan></text>
</g></g><g
       id="g344"><g
         clip-path="url(#clipPath350)"
         id="g346" /></g><g
       id="g352"><g
         clip-path="url(#clipPath358)"
         id="g354"><text
           id="text362"
           style="font-style:italic;font-variant:normal;font-weight:normal;font-stretch:normal;font-size:11.03999996px;font-family:'Brush Script MT';-inkscape-font-specification:BrushScriptMT;writing-mode:lr-tb;fill:#000000;fill-opacity:1;fill-rule:nonzero;stroke:none"
           transform="matrix(1,0,0,-1,386.04,455.52)"><tspan
             id="tspan360"
             y="0"
             x="0 7.0766401 11.157024 15.596208 18.59688 21.117311">Shafie</tspan></text>
</g></g><g
       id="g364"><g
         clip-path="url(#clipPath370)"
         id="g366" /></g><g
       id="g372"><g
         clip-path="url(#clipPath378)"
         id="g374"><text
           id="text382"
           style="font-variant:normal;font-weight:bold;font-stretch:normal;font-size:8.03999996px;font-family:Arial;-inkscape-font-specification:Arial-BoldMT;writing-mode:lr-tb;fill:#000000;fill-opacity:1;fill-rule:nonzero;stroke:none"
           transform="matrix(1,0,0,-1,439.08,457.68)"><tspan
             id="tspan380"
             y="0"
             x="0 4.4380798 8.8761597 13.795836 18.716316 23.154396 26.273916 30.711996 32.995358 37.433437 41.871517 44.031864 46.315224 50.753304 55.191383 59.629463">January 15, 2020</tspan></text>
</g></g><g
       id="g384"><g
         clip-path="url(#clipPath390)"
         id="g386" /></g><path
       id="path392"
       style="fill:#000000;fill-opacity:1;fill-rule:nonzero;stroke:none"
       d="m 107.4,465.36 h 0.481 v 0.48 H 107.4 Z" /><path
       id="path394"
       style="fill:#000000;fill-opacity:1;fill-rule:nonzero;stroke:none"
       d="m 107.88,465.36 h 148.44 v 0.48 H 107.88 Z" /><path
       id="path396"
       style="fill:#000000;fill-opacity:1;fill-rule:nonzero;stroke:none"
       d="m 256.32,465.36 h 0.48 v 0.48 h -0.48 z" /><path
       id="path398"
       style="fill:#000000;fill-opacity:1;fill-rule:nonzero;stroke:none"
       d="m 256.8,465.36 h 105.72 v 0.48 H 256.8 Z" /><path
       id="path400"
       style="fill:#000000;fill-opacity:1;fill-rule:nonzero;stroke:none"
       d="M 362.52,465.36 H 363 v 0.48 h -0.48 z" /><path
       id="path402"
       style="fill:#000000;fill-opacity:1;fill-rule:nonzero;stroke:none"
       d="m 363,465.36 h 70.44 v 0.48 H 363 Z" /><path
       id="path404"
       style="fill:#000000;fill-opacity:1;fill-rule:nonzero;stroke:none"
       d="m 433.44,465.36 h 0.48 v 0.48 h -0.48 z" /><path
       id="path406"
       style="fill:#000000;fill-opacity:1;fill-rule:nonzero;stroke:none"
       d="m 433.92,465.36 h 91.68 v 0.48 h -91.68 z" /><path
       id="path408"
       style="fill:#000000;fill-opacity:1;fill-rule:nonzero;stroke:none"
       d="m 525.6,465.36 h 0.48 v 0.48 h -0.48 z" /><path
       id="path410"
       style="fill:#000000;fill-opacity:1;fill-rule:nonzero;stroke:none"
       d="m 107.4,447.36 h 0.481 v 18 H 107.4 Z" /><path
       id="path412"
       style="fill:#000000;fill-opacity:1;fill-rule:nonzero;stroke:none"
       d="m 107.4,446.88 h 0.481 v 0.481 H 107.4 Z" /><path
       id="path414"
       style="fill:#000000;fill-opacity:1;fill-rule:nonzero;stroke:none"
       d="m 107.4,446.88 h 0.481 v 0.481 H 107.4 Z" /><path
       id="path416"
       style="fill:#000000;fill-opacity:1;fill-rule:nonzero;stroke:none"
       d="m 107.88,446.88 h 148.44 v 0.481 H 107.88 Z" /><path
       id="path418"
       style="fill:#000000;fill-opacity:1;fill-rule:nonzero;stroke:none"
       d="m 256.32,447.36 h 0.48 v 18 h -0.48 z" /><path
       id="path420"
       style="fill:#000000;fill-opacity:1;fill-rule:nonzero;stroke:none"
       d="m 256.32,446.88 h 0.48 v 0.481 h -0.48 z" /><path
       id="path422"
       style="fill:#000000;fill-opacity:1;fill-rule:nonzero;stroke:none"
       d="m 256.8,446.88 h 105.72 v 0.481 H 256.8 Z" /><path
       id="path424"
       style="fill:#000000;fill-opacity:1;fill-rule:nonzero;stroke:none"
       d="M 362.52,447.36 H 363 v 18 h -0.48 z" /><path
       id="path426"
       style="fill:#000000;fill-opacity:1;fill-rule:nonzero;stroke:none"
       d="M 362.52,446.88 H 363 v 0.481 h -0.48 z" /><path
       id="path428"
       style="fill:#000000;fill-opacity:1;fill-rule:nonzero;stroke:none"
       d="m 363,446.88 h 70.44 v 0.481 H 363 Z" /><path
       id="path430"
       style="fill:#000000;fill-opacity:1;fill-rule:nonzero;stroke:none"
       d="m 433.44,447.36 h 0.48 v 18 h -0.48 z" /><path
       id="path432"
       style="fill:#000000;fill-opacity:1;fill-rule:nonzero;stroke:none"
       d="m 433.44,446.88 h 0.48 v 0.481 h -0.48 z" /><path
       id="path434"
       style="fill:#000000;fill-opacity:1;fill-rule:nonzero;stroke:none"
       d="m 433.92,446.88 h 91.68 v 0.481 h -91.68 z" /><path
       id="path436"
       style="fill:#000000;fill-opacity:1;fill-rule:nonzero;stroke:none"
       d="m 525.6,447.36 h 0.48 v 18 h -0.48 z" /><path
       id="path438"
       style="fill:#000000;fill-opacity:1;fill-rule:nonzero;stroke:none"
       d="m 525.6,446.88 h 0.48 v 0.481 h -0.48 z" /><path
       id="path440"
       style="fill:#000000;fill-opacity:1;fill-rule:nonzero;stroke:none"
       d="m 525.6,446.88 h 0.48 v 0.481 h -0.48 z" /><text
       id="text444"
       style="font-variant:normal;font-weight:normal;font-stretch:normal;font-size:11.03999996px;font-family:Arial;-inkscape-font-specification:ArialMT;writing-mode:lr-tb;fill:#000000;fill-opacity:1;fill-rule:nonzero;stroke:none"
       transform="matrix(1,0,0,-1,110.64,423.84)"><tspan
         id="tspan442"
         y="0"
         x="0 6.1161599 17.995199 28.435728 34.551888 40.071888 43.071457 46.19136 52.307522 54.707615 60.227615 63.351936 69.352173 73.071548 79.187714 81.707039 87.823196 93.222862 96.342766 99.342339 104.86234 110.97849 120.21787 126.33403 128.73413 134.85028 137.85097 143.96712 150.08328 153.2076 156.3275 162.32664 165.45096 170.97096 177.08711 183.20328 186.80342 189.92775 195.44774 201.44798 204.56789 206.96799 212.48799 215.60789 221.72404 227.12372 230.24362">1.Was this project completed to your satisfacti</tspan></text>
<text
       id="text448"
       style="font-variant:normal;font-weight:normal;font-stretch:normal;font-size:11.03999996px;font-family:Arial;-inkscape-font-specification:ArialMT;writing-mode:lr-tb;fill:#000000;fill-opacity:1;fill-rule:nonzero;stroke:none"
       transform="matrix(1,0,0,-1,343.2845,423.84)"><tspan
         id="tspan446"
         y="0"
         x="0 6.1161599 12.23232">on?</tspan></text>
<text
       id="text452"
       style="font-variant:normal;font-weight:bold;font-stretch:normal;font-size:11.03999996px;font-family:Arial;-inkscape-font-specification:Arial-BoldMT;writing-mode:lr-tb;fill:#000000;fill-opacity:1;fill-rule:nonzero;stroke:none"
       transform="matrix(1,0,0,-1,388.5499,423.84)"><tspan
         id="tspan450"
         y="0"
         x="0 7.31952 19.68432 27.003839 33.119999 39.23616">X Yes </tspan></text>
<text
       id="text456"
       style="font-variant:normal;font-weight:bold;font-stretch:normal;font-size:11.03999996px;font-family:Arial;-inkscape-font-specification:Arial-BoldMT;writing-mode:lr-tb;fill:#000000;fill-opacity:1;fill-rule:nonzero;stroke:none"
       transform="matrix(1,0,0,-1,437.0376,423.84)"><tspan
         id="tspan454"
         y="0"
         x="0 6.1161599 12.23232 18.232559 24.356447 32.276543">___ No</tspan></text>
<path
       id="path458"
       style="fill:#000000;fill-opacity:1;fill-rule:evenodd;stroke:none"
       d="m 388.56,421.44 h 16.56 v 1.2 h -16.56 z" /><text
       id="text462"
       style="font-variant:normal;font-weight:normal;font-stretch:normal;font-size:11.03999996px;font-family:Arial;-inkscape-font-specification:ArialMT;writing-mode:lr-tb;fill:#000000;fill-opacity:1;fill-rule:nonzero;stroke:none"
       transform="matrix(1,0,0,-1,110.6338,385.9253)"><tspan
         id="tspan460"
         y="0"
         x="0 6.1161599 17.995199">2.P</tspan></text>
<text
       id="text468"
       style="font-variant:normal;font-weight:normal;font-stretch:normal;font-size:11.03999996px;font-family:Arial;-inkscape-font-specification:ArialMT;writing-mode:lr-tb;fill:#000000;fill-opacity:1;fill-rule:nonzero;stroke:none"
       transform="matrix(1,0,0,-1,135.94848,385.92528)"><tspan
         id="tspan464"
         y="0"
         x="0 2.4000959 8.5162563 14.632416 20.152416 26.268576 30.706656 36.822815 40.542191 46.658352 52.178352 54.578449 60.694607 66.810768 71.130722 74.250626 80.366783 86.482941 90.802895 100.04227 106.15843 108.55853 114.55766 118.99574 122.71622 128.83238 134.94855 140.46965 146.58582 152.70197 158.10274 162.42268 165.54259 171.65875 175.2589 179.69698 185.21698 191.33313 197.4493 201.04834 205.48642 211.00641 217.07841 220.19832 222.59842 228.11842 231.23833 237.23856 242.75856 245.87846 248.27856 254.39471 260.51089 264.94897 271.06512 274.66525 279.10333 285.21951 287.6196 293.13959 298.65961 304.65872 307.77975 310.17874 315.69873 318.81973 324.93591 330.33557 333.45547 335.85556 341.97174 348.08789 352.40784 360.32794 362.72803 365.84793 371.96408 376.40219 379.52209 385.63824 388.03833">lease provide the main reasons for your satisfaction or dissatisfaction with this</tspan><tspan
         id="tspan466"
         y="12.59664"
         x="-7.31952 -1.20336 2.5171199 8.6332798 11.152608 17.268768 22.668432 25.788336">project.</tspan></text>
<text
       id="text472"
       style="font-variant:normal;font-weight:normal;font-stretch:normal;font-size:11.03999996px;font-family:Arial;-inkscape-font-specification:ArialMT;writing-mode:lr-tb;fill:#000000;fill-opacity:1;fill-rule:nonzero;stroke:none"
       transform="matrix(1,0,0,-1,128.6179,348.0139)"><tspan
         id="tspan470"
         y="0"
         x="0 6.7233601 12.83952 18.955681 22.08 28.196159">The pr</tspan></text>
<text
       id="text480"
       style="font-variant:normal;font-weight:normal;font-stretch:normal;font-size:11.03999996px;font-family:Arial;-inkscape-font-specification:ArialMT;writing-mode:lr-tb;fill:#000000;fill-opacity:1;fill-rule:nonzero;stroke:none"
       transform="matrix(1,0,0,-1,160.53456,348.01392)"><tspan
         id="tspan474"
         y="0"
         x="0 6.0002398 8.5195684 14.635728 20.155727 23.155296 26.2752 32.391361 38.507519 40.907616 47.023777 50.026657 53.146561 59.262718 62.398079 68.514236 74.630402 77.030495 79.430595 84.830254 90.946419 94.665794 97.668671 100.78968 106.90584 110.02574 116.14191 121.56144 124.68576 127.08144 133.20091 136.2038 139.3237 141.71938 150.95985 157.07933 160.08 163.20432 169.92767 176.04384 182.16 185.15956 190.67957 196.19957 201.71957 204.72025 210.8364 220.07687 223.2012 225.6013 231.00096 234.12527 240.24144 246.3576 251.87759 257.39761 260.39716 263.51706 269.63324 272.75754 278.75668 284.2767 290.39285 293.51718 299.63333 305.74948 311.74973 314.87405 317.99396 323.98868 329.50867 335.64911 339.3696 342.49393 348.48865">oject able to deliver to us in time. The system is easy to use and face-to-</tspan><tspan
         id="tspan476"
         y="12.59664"
         x="-31.916639 -28.796736 -22.680576 -17.160576 -11.044416 -8.0371199 -4.9172158 -1.196736 4.9194241 7.31952 13.43568 15.835776 21.951937 28.068096 31.192415 33.59251 39.112511 42.236832 48.237072 51.957554 58.073711 63.593712 65.993805 72.10997 78.226128 84.342285 87.342957 90.342529 96.458687 99.583008 105.70248 108.10258 110.50267 113.62257 116.74689 122.86637 128.98694 131.98982 137.50983 140.63414 146.63438 149.7587 152.75827 155.8826 158.99808 166.19836 169.91774 176.03391 178.55324 184.66939 190.06906 193.18896 196.19183 205.43121 211.43146 217.54762 223.66377 229.77994 235.8961 239.61548 242.73538 248.85153 254.9677 257.3678 263.48395 266.48685 269.60675 275.7229 278.72577 284.24579 290.36194 296.47809 304.39819 307.52252 313.63867 319.03833 322.16266 328.1618 334.27795">face training is provided to all the staff. Project manager able to show us how</tspan><tspan
         id="tspan478"
         y="25.31472"
         x="-31.916639 -22.676161 -16.559999 -11.04 -4.92384 -1.79952 4.199616 7.31952 10.440528 16.439665 20.160145 23.159712 26.284033 32.400192 38.516354 44.51659 47.640911 53.160912 59.277073 64.797073 67.797745 70.922066 76.442062 82.558228 88.558464 91.682785 97.798943 103.91511 107.03942 112.55943 118.55966 121.67957 124.80389 130.80412 133.92403 136.9236 140.04791 146.16408 151.68408 154.08418 160.20033 166.3165 169.31717 172.43707 178.55324 180.95332 186.47333 189.59764 196.79794 199.91785 203.04216 208.44182 213.96182 219.48183 222.60283 228.60197 237.84245">much effort and cost can be cut off using this AI system.</tspan></text>
<text
       id="text484"
       style="font-variant:normal;font-weight:normal;font-stretch:normal;font-size:11.03999996px;font-family:Arial;-inkscape-font-specification:ArialMT;writing-mode:lr-tb;fill:#000000;fill-opacity:1;fill-rule:nonzero;stroke:none"
       transform="matrix(1,0,0,-1,110.6227,297.3845)"><tspan
         id="tspan482"
         y="0"
         x="0 6.1161599 17.995199">3.P</tspan></text>
<text
       id="text490"
       style="font-variant:normal;font-weight:normal;font-stretch:normal;font-size:11.03999996px;font-family:Arial;-inkscape-font-specification:ArialMT;writing-mode:lr-tb;fill:#000000;fill-opacity:1;fill-rule:nonzero;stroke:none"
       transform="matrix(1,0,0,-1,135.93744,297.38448)"><tspan
         id="tspan486"
         y="0"
         x="0 2.4000959 8.5162563 14.632416 20.152416 26.268576 31.788576 37.904736 41.625217 47.741375 53.261375 55.661472 61.777634 67.893791 73.413795 78.933792 85.04995 91.166115 97.282272 103.39843 108.7981 111.918 114.31809 120.43426 126.55042 132.07042 137.59042 143.70657 149.82274 155.34274 161.45889 167.57506 175.49515 181.01515 187.13132 193.13155 196.85204 202.37202 208.37117 212.09164 218.20781 224.32397 230.44012 232.84023 238.36023 244.47638 247.59628 249.99638 256.11255 262.2287 267.74872 273.26871 279.38486 285.50104 287.90112 294.01727 299.53729 301.93738 311.17676 317.177 320.89746 327.01364 332.53363 338.64978 344.28241 346.56216 349.68207 355.08282 360.60284 366.71899 370.43835 376.4386 378.95905 385.0752 390.59521">lease provide suggestions on how our organization could improve its project</tspan><tspan
         id="tspan488"
         y="12.59664"
         x="-7.31952 -1.20336 4.9161119 7.3117919 9.7074718 15.227472 21.348047 25.068527 30.588528 33.71616 39.23616 45.352322 51.468479 57.584641 63.700802 66.100899 68.500992 70.901085 74.020988 79.540993 82.660896 85.060989 91.177155 94.180031 97.299934 103.4161 109.53226 112.53513 115.65504 121.7712 124.89111 130.89134 134.61182 140.72798">delivery capability in the future.</tspan></text>
<text
       id="text494"
       style="font-variant:normal;font-weight:normal;font-stretch:normal;font-size:11.03999996px;font-family:Arial;-inkscape-font-specification:ArialMT;writing-mode:lr-tb;fill:#000000;fill-opacity:1;fill-rule:nonzero;stroke:none"
       transform="matrix(1,0,0,-1,128.8498,259.4731)"><tspan
         id="tspan492"
         y="0"
         x="0">O</tspan></text>
<text
       id="text504"
       style="font-variant:normal;font-weight:normal;font-stretch:normal;font-size:11.03999996px;font-family:Arial;-inkscape-font-specification:ArialMT;writing-mode:lr-tb;fill:#000000;fill-opacity:1;fill-rule:nonzero;stroke:none"
       transform="matrix(1,0,0,-1,137.49408,259.47312)"><tspan
         id="tspan496"
         y="0"
         x="0 6.1161599 12.23232 17.034719 22.55472 28.670879 34.787041 40.903198 47.01936 52.419025 55.538929 57.939026 64.055183 70.171341 74.973747 77.37384 82.893837 87.696243 90.816147 96.932304 102.93254 106.05244 110.73231 119.37221 126.09557 135.33604 141.93576 146.73816 149.85806 155.97754 161.3761 166.19617 171.71616 174.83606 180.8363 183.95621 186.95578 191.75818 197.87433 203.99049 210.10666 216.22281 221.02522 224.14513 230.14536 234.94775 237.34785 243.46402 246.58392 252.70007 256.30023 265.54071 270.34311 277.66263 283.77878 289.89496 296.01111 300.81351 303.93451 310.05066 317.85043 322.65283 328.76898 334.88516 340.40515 345.92514 350.60501 356.72116 362.83734 368.95349 375.06964">ne suggestion is that QTMT Inc staff need to inform Aeon few days ahead</tspan><tspan
         id="tspan498"
         y="12.59664"
         x="-8.6443195 -2.5281601 3.5880001 6.7079039 12.824064 16.54344 22.54368 25.30368 27.703775 36.943153 43.059311 45.459408 51.458546 60.699024 66.815186 72.931343 75.930908 78.69091 84.807076 90.923233 96.323997 99.084 104.604 110.60313 116.7193 122.83546 128.95161 135.06778 140.58777 143.22745 146.34845 152.34758 155.10759 158.22749 164.34364 170.34389 173.10388 178.62389 184.14389 189.54355 192.66345 198.6637 207.90308 210.95012 213.71233 220.43568 226.43591 230.15529 232.79385 238.91002 244.43002 250.54617 259.78665 265.9028 268.30182 274.41797 277.41754 280.17752 283.29745 289.4136 295.41385 299.13321 305.13345 307.91663 310.31232 315.72192 318.48193 324.59808 330.71423 336.83041 339.46896 342.58887 344.98895 354.108 360.22415 362.98416 366.10406 372.22021 378.21936">before implement any changes to the system. For example, there is one time that</tspan><tspan
         id="tspan500"
         y="25.31472"
         x="-8.6332798 0.0066240001 6.7299838 15.970464 22.570175 25.810415 35.049793 41.165951 46.684849 52.685089 55.925327 59.045231 65.161392 71.27755 74.637024 82.437889 85.437454 88.796928 94.316925 100.43309 106.54925 112.54948 118.66565 124.78181 130.3018 133.66129 139.77744 145.8936 151.89384 155.13408 158.25398 164.37015 170.37038 173.73096 179.25096 182.37086 188.37 191.49101 194.49057 197.73082 200.85072 206.96687 213.08304 216.08261 219.44208 225.55824 231.55849 237.67464 241.39513 247.51128 250.63118 256.63144 259.99091 262.99158 269.10773 275.22388 278.46301 283.98303 289.50302 295.02301 298.14291 304.14316 313.26331 316.62277 322.62302 326.34351 332.45966 335.82025 341.9364 348.05255 354.0528 360.16895 362.56906 368.68521 372.04468 375.16571">QTMT make the UI changes and the staff that operate the system are unable to</tspan><tspan
         id="tspan502"
         y="37.911362"
         x="-8.6332798 -5.5133762 -3.1132801 3.0028801 9.1190395 12.24336 15.363264 21.479424 27.489599 30.61392 34.3344 40.450562 46.566719 51.966385 61.205761 67.321922 73.322159 76.442062 80.041107 83.165421 89.281586 95.397743 98.397308 101.51722 107.63338 113.63361 116.75793 124.67803 130.79419 133.19429 138.71429 144.83044 147.95477 150.35486 156.47102 162.58719 168.70334 171.82767 174.94757 180.94781 184.07213 190.07237 193.19669 199.31285 203.03333 209.14949 215.26566 217.66574 223.78191 232.90205 235.90273 239.02263 245.13878 248.26311 254.37926 259.77893">find the “payment” button which lead to a problem to us.</tspan></text>
<text
       id="text508"
       style="font-variant:normal;font-weight:normal;font-stretch:normal;font-size:11.03999996px;font-family:Arial;-inkscape-font-specification:ArialMT;writing-mode:lr-tb;fill:#000000;fill-opacity:1;fill-rule:nonzero;stroke:none"
       transform="matrix(1,0,0,-1,265.4256,107.7062)"><tspan
         id="tspan506"
         y="0"
         x="0 6.7233601 12.83952 18.955681 25.07184">Thank</tspan></text>
<text
       id="text512"
       style="font-variant:normal;font-weight:normal;font-stretch:normal;font-size:11.03999996px;font-family:Arial;-inkscape-font-specification:ArialMT;writing-mode:lr-tb;fill:#000000;fill-opacity:1;fill-rule:nonzero;stroke:none"
       transform="matrix(1,0,0,-1,299.14176,107.70624)"><tspan
         id="tspan510"
         y="0"
         x="0 5.52 11.63616 17.752319 20.752993 23.872896 29.989056 33.589199 36.71352 42.233521 48.349682 54.348816 58.069298 61.193615 63.593712 69.709869 75.826035 81.942192 84.942863 87.966721">you for your input. </tspan></text>
</g></svg>