<?xml version="1.0" standalone="no"?>
<!DOCTYPE svg PUBLIC "-//W3C//DTD SVG 20010904//EN"
 "http://www.w3.org/TR/2001/REC-SVG-20010904/DTD/svg10.dtd">
<svg version="1.0" xmlns="http://www.w3.org/2000/svg"
 width="901.000000pt" height="577.000000pt" viewBox="0 0 901.000000 577.000000"
 preserveAspectRatio="xMidYMid meet">

<g transform="translate(0.000000,577.000000) scale(0.100000,-0.100000)"
fill="#000000" stroke="none">
<path d="M2750 3142 c0 -1303 -3 -2457 -7 -2565 l-6 -197 2726 0 2727 0 0 444
c0 244 3 458 6 475 6 27 4 31 -15 31 -23 0 -29 -28 -11 -46 7 -7 10 -47 8
-100 l-3 -89 -672 -3 -673 -2 0 100 0 100 654 0 c426 0 657 3 661 10 4 7 -217
10 -654 10 l-661 0 0 105 0 105 675 0 674 0 4 -93 c1 -50 4 847 5 1996 l2
2087 -2720 0 -2720 0 0 -2368z m1350 1403 l0 -955 -670 0 -670 0 0 955 0 955
670 0 670 0 0 -955z m1360 0 l0 -955 -675 0 -675 0 0 955 0 955 675 0 675 0 0
-955z m1360 0 l0 -955 -675 0 -675 0 0 955 0 955 675 0 675 0 0 -955z m1358 3
l-3 -953 -672 -3 -673 -2 0 955 0 955 675 0 675 0 -2 -952z m-4078 -1543 l0
-575 -670 0 -670 0 0 575 0 575 670 0 670 0 0 -575z m1360 0 l0 -575 -672 2
-673 3 -3 573 -2 572 675 0 675 0 0 -575z m1360 0 l0 -575 -675 0 -675 0 0
575 0 575 675 0 675 0 0 -575z m1358 3 l-3 -573 -672 -3 -673 -2 0 575 0 575
675 0 675 0 -2 -572z m-4078 -1253 l0 -665 -670 0 -670 0 0 665 0 665 670 0
670 0 0 -665z m1360 0 l0 -665 -672 2 -673 3 -3 663 -2 662 675 0 675 0 0
-665z m1358 0 l-3 -665 -672 0 -673 0 0 665 0 665 675 0 676 0 -3 -665z m1360
223 l-3 -443 -672 -3 -673 -2 0 445 0 445 675 0 675 0 -2 -442z m-4078 -1118
l0 -220 -670 0 -670 0 0 220 0 220 670 0 670 0 0 -220z m1360 0 l0 -220 -675
0 -675 0 0 220 0 220 675 0 675 0 0 -220z m1360 0 l0 -220 -675 0 -675 0 0
220 0 220 675 0 675 0 0 -220z m1360 0 l0 -220 -675 0 -675 0 0 220 0 220 675
0 675 0 0 -220z m-4085 -350 l0 -110 -667 0 -668 0 0 110 0 110 668 0 667 0 0
-110z m1355 0 l0 -110 -670 0 -670 0 0 110 0 110 670 0 670 0 0 -110z m1360 0
l0 -110 -670 0 -670 0 0 110 0 110 670 0 670 0 0 -110z m1360 0 l0 -110 -670
0 -670 0 0 110 0 110 670 0 670 0 0 -110z"/>
<path d="M2828 5239 c-21 -12 -24 -59 -6 -77 7 -7 21 -12 33 -12 28 0 45 19
45 50 0 44 -33 62 -72 39z m47 -39 c0 -16 -6 -26 -18 -28 -19 -4 -32 20 -23
44 9 25 41 13 41 -16z"/>
<path d="M2928 5200 c20 -63 38 -62 63 3 14 34 16 48 7 45 -7 -3 -17 -19 -22
-36 -5 -18 -12 -32 -16 -32 -4 0 -11 14 -16 32 -5 17 -15 33 -21 35 -8 3 -6
-12 5 -47z"/>
<path d="M3020 5200 c0 -49 1 -50 30 -50 17 0 30 5 30 10 0 6 -9 10 -20 10
-27 0 -25 16 3 25 l22 8 -22 4 c-28 5 -30 23 -3 23 11 0 20 5 20 10 0 6 -13
10 -30 10 -29 0 -30 -1 -30 -50z"/>
<path d="M3100 5201 c0 -28 5 -51 10 -51 6 0 10 7 10 15 0 8 5 15 10 15 6 0
13 -7 16 -15 7 -17 49 -20 59 -5 3 6 15 10 26 10 10 0 19 -4 19 -10 0 -5 7
-10 15 -10 12 0 12 7 -4 48 -10 26 -24 47 -31 47 -8 0 -20 -19 -27 -42 -8 -24
-19 -43 -24 -43 -9 0 -11 6 -13 55 -1 26 -5 30 -33 33 l-33 3 0 -50z m50 14
c0 -8 -7 -15 -15 -15 -8 0 -15 7 -15 15 0 8 7 15 15 15 8 0 15 -7 15 -15z m90
-15 c0 -11 -4 -20 -10 -20 -5 0 -10 9 -10 20 0 11 5 20 10 20 6 0 10 -9 10
-20z"/>
<path d="M3290 5200 c0 -49 1 -50 30 -50 17 0 30 5 30 10 0 6 -9 10 -20 10
-17 0 -20 7 -20 40 0 22 -4 40 -10 40 -5 0 -10 -22 -10 -50z"/>
<path d="M3370 5200 c0 -47 2 -50 25 -50 14 0 25 5 25 10 0 6 -7 10 -15 10
-11 0 -15 11 -15 40 0 22 -4 40 -10 40 -5 0 -10 -22 -10 -50z"/>
<path d="M3477 5243 c-4 -3 -7 -26 -7 -50 0 -33 4 -43 16 -43 10 0 14 6 10 15
-3 10 3 17 19 21 28 7 40 31 24 50 -12 15 -51 19 -62 7z m43 -28 c0 -8 -4 -15
-10 -15 -5 0 -10 7 -10 15 0 8 5 15 10 15 6 0 10 -7 10 -15z"/>
<path d="M3560 5201 c0 -28 5 -51 10 -51 6 0 10 7 10 15 0 8 6 15 14 15 8 0
16 -7 20 -15 3 -8 10 -15 16 -15 6 0 8 5 3 12 -4 7 -7 29 -8 48 0 32 -3 35
-32 38 l-33 3 0 -50z m50 13 c0 -9 -5 -14 -12 -12 -18 6 -21 28 -4 28 9 0 16
-7 16 -16z"/>
<path d="M3668 5239 c-21 -12 -24 -59 -6 -77 7 -7 21 -12 33 -12 28 0 45 19
45 50 0 44 -33 62 -72 39z m50 -42 c3 -22 -1 -27 -18 -27 -23 0 -35 22 -26 46
10 25 41 12 44 -19z"/>
<path d="M3774 5235 c-4 -8 -4 -25 -1 -36 3 -12 0 -22 -9 -26 -20 -8 -17 -23
5 -23 19 0 31 25 31 67 0 27 -18 40 -26 18z"/>
<path d="M3820 5200 c0 -49 1 -50 30 -50 17 0 30 5 30 10 0 6 -9 10 -20 10
-11 0 -20 5 -20 10 0 6 7 10 15 10 8 0 15 5 15 10 0 6 -7 10 -15 10 -8 0 -15
5 -15 10 0 6 9 10 20 10 11 0 20 5 20 10 0 6 -13 10 -30 10 -29 0 -30 -1 -30
-50z"/>
<path d="M3912 5238 c-6 -6 -12 -27 -12 -45 0 -27 5 -34 26 -39 14 -4 30 -2
37 5 8 8 4 11 -17 11 -24 0 -27 3 -24 28 2 21 8 27 26 26 12 0 21 4 19 10 -5
16 -40 19 -55 4z"/>
<path d="M3980 5240 c0 -5 7 -10 15 -10 11 0 15 -11 15 -40 0 -22 5 -40 10
-40 6 0 10 18 10 40 0 29 4 40 15 40 8 0 15 5 15 10 0 6 -18 10 -40 10 -22 0
-40 -4 -40 -10z"/>
<path d="M3302 4828 c-30 -30 -4 -94 34 -86 26 5 28 25 2 24 -33 -1 -33 48 0
52 12 2 22 8 22 13 0 13 -44 11 -58 -3z"/>
<path d="M3536 4821 c-8 -12 4 -70 16 -77 5 -4 15 -1 21 5 8 8 8 11 -1 11 -7
0 -12 9 -12 20 0 11 5 20 11 20 6 0 4 7 -5 15 -17 17 -23 18 -30 6z"/>
<path d="M3387 4803 c-13 -12 -7 -51 9 -57 24 -9 31 -8 48 10 12 12 13 20 6
35 -10 18 -50 26 -63 12z m43 -29 c0 -8 -7 -14 -15 -14 -15 0 -21 21 -9 33 10
9 24 -2 24 -19z"/>
<path d="M3470 4795 c0 -7 8 -19 18 -24 16 -10 16 -10 -1 -11 -10 0 -15 -4
-12 -10 9 -15 35 -12 42 5 3 9 -2 22 -13 31 -19 14 -19 14 0 7 13 -4 17 -3 12
5 -10 17 -46 15 -46 -3z"/>
<path d="M2857 4389 c-24 -14 -21 -36 8 -55 27 -18 25 -34 -6 -34 -16 0 -17
-3 -7 -13 10 -11 15 -11 30 2 24 21 23 31 -9 57 l-28 23 24 9 c14 5 20 11 15
15 -5 3 -17 1 -27 -4z"/>
<path d="M3606 4381 c-4 -5 3 -7 14 -4 27 7 27 -27 0 -52 -28 -26 -25 -35 13
-34 23 1 26 3 10 6 l-23 4 22 29 c17 24 19 32 8 45 -14 17 -36 20 -44 6z"/>
<path d="M3689 4373 c-12 -15 -12 -16 4 -10 14 5 17 1 17 -27 0 -19 -6 -37
-12 -39 -7 -3 1 -5 17 -5 17 0 24 2 18 5 -8 3 -13 23 -13 49 0 47 -9 55 -31
27z"/>
<path d="M3800 4365 c0 -18 5 -25 18 -25 10 0 21 -3 25 -6 11 -12 -5 -34 -27
-35 -17 -1 -18 -2 -3 -6 21 -5 47 13 47 33 0 8 -11 19 -25 24 -31 12 -32 27
-2 33 19 4 18 4 -5 6 -24 1 -28 -3 -28 -24z"/>
<path d="M3902 4383 c24 -4 26 -7 18 -23 -19 -36 -29 -70 -21 -70 7 0 41 76
41 93 0 4 -15 6 -32 6 -31 -2 -31 -2 -6 -6z"/>
<path d="M3997 4360 c4 -25 2 -30 -13 -30 -14 0 -15 3 -6 12 7 7 12 17 12 23
-1 11 -30 -25 -30 -37 0 -4 7 -8 15 -8 7 0 18 -7 23 -16 7 -13 10 -13 14 -3 7
20 -3 89 -13 89 -5 0 -6 -13 -2 -30z"/>
<path d="M3765 4290 c-4 -12 -5 -24 -2 -27 3 -2 8 5 12 17 4 12 5 24 2 27 -3
2 -8 -5 -12 -17z"/>
<path d="M2858 4170 c-25 -23 -22 -38 7 -52 30 -13 27 -33 -4 -32 -23 1 -29
-12 -8 -19 19 -7 47 12 47 32 0 10 -11 23 -25 29 -30 14 -32 29 -5 34 11 2 17
7 12 14 -5 8 -12 6 -24 -6z"/>
<path d="M3623 4163 c23 -6 22 -36 -3 -58 -28 -26 -25 -35 13 -34 23 1 26 3
10 6 l-23 4 21 28 c23 32 16 62 -15 60 -16 -1 -17 -2 -3 -6z"/>
<path d="M3680 4152 c0 -9 10 -22 23 -27 12 -6 22 -17 22 -25 0 -9 -9 -15 -22
-14 -13 0 -23 -3 -23 -8 0 -9 22 -11 44 -2 22 9 20 41 -4 56 -25 16 -25 25 -2
31 10 3 6 5 -10 6 -21 1 -28 -4 -28 -17z"/>
<path d="M3804 4156 c-3 -8 -3 -20 1 -26 4 -6 2 -17 -4 -24 -14 -17 10 -39 36
-34 14 3 18 13 18 48 0 39 -3 45 -23 48 -13 2 -25 -3 -28 -12z m37 -11 c-1
-15 -24 -12 -29 3 -3 9 2 13 12 10 10 -1 17 -7 17 -13z m9 -46 c0 -12 -29 -24
-37 -16 -3 4 -3 13 0 21 6 16 37 11 37 -5z"/>
<path d="M3884 4157 c-3 -8 -4 -30 -2 -49 2 -28 7 -33 28 -33 23 0 25 4 25 45
0 39 -3 45 -23 48 -13 2 -24 -3 -28 -11z m41 -38 c0 -24 -5 -34 -15 -34 -16 0
-25 37 -16 62 10 26 31 8 31 -28z"/>
<path d="M3964 4156 c-3 -8 -4 -29 -2 -48 2 -25 8 -34 25 -36 30 -4 50 41 34
75 -12 26 -48 31 -57 9z m44 -33 c-3 -43 -31 -54 -36 -15 -5 32 4 52 23 52 13
0 15 -9 13 -37z"/>
<path d="M3766 4074 c-4 -9 -4 -19 -1 -22 2 -3 7 3 11 12 4 9 4 19 1 22 -2 3
-7 -3 -11 -12z"/>
<path d="M2857 3952 c-24 -26 -21 -41 9 -52 30 -12 27 -35 -4 -34 -17 0 -19
-3 -11 -12 8 -10 15 -11 30 -1 27 17 24 46 -6 57 -30 11 -33 27 -5 32 13 2 17
7 12 16 -7 10 -12 8 -25 -6z"/>
<path d="M3622 3943 l28 -4 -21 -41 c-11 -22 -18 -42 -15 -45 5 -5 30 39 40
75 7 20 4 22 -26 21 -30 -2 -30 -2 -6 -6z"/>
<path d="M3687 3944 c-14 -14 -8 -82 8 -88 31 -12 46 5 43 48 -2 32 -7 42 -23
44 -12 2 -24 0 -28 -4z m41 -41 c-3 -43 -31 -54 -36 -15 -5 32 4 52 23 52 13
0 15 -9 13 -37z"/>
<path d="M3801 3923 c1 -16 0 -34 -2 -41 -5 -18 24 -37 45 -29 18 7 22 47 5
47 -8 0 -8 4 1 15 16 19 4 35 -26 35 -20 0 -24 -5 -23 -27z m43 8 c3 -5 0 -11
-8 -14 -15 -6 -26 1 -26 15 0 11 27 10 34 -1z m2 -42 c10 -17 -13 -36 -27 -22
-12 12 -4 33 11 33 5 0 12 -5 16 -11z"/>
<path d="M3887 3944 c-14 -15 -7 -82 9 -88 27 -10 45 14 42 53 -2 27 -8 37
-23 39 -12 2 -24 0 -28 -4z m41 -41 c-2 -26 -8 -38 -18 -38 -10 0 -16 12 -18
38 -3 32 0 37 18 37 18 0 21 -5 18 -37z"/>
<path d="M3967 3943 c-12 -12 -7 -70 7 -82 32 -27 68 28 46 69 -10 19 -40 27
-53 13z m41 -40 c-3 -43 -31 -54 -36 -15 -5 32 4 52 23 52 13 0 15 -9 13 -37z"/>
<path d="M3766 3855 c-9 -26 -7 -32 5 -12 6 10 9 21 6 23 -2 3 -7 -2 -11 -11z"/>
<path d="M2857 3736 c-24 -18 -21 -33 8 -52 28 -18 25 -34 -7 -34 -17 0 -18
-3 -9 -14 11 -13 15 -12 32 2 26 22 24 40 -6 54 -27 12 -28 34 -1 32 9 -1 16
2 16 7 0 15 -15 17 -33 5z"/>
<path d="M3828 3673 c6 -2 18 -2 25 0 6 3 1 5 -13 5 -14 0 -19 -2 -12 -5z"/>
<path d="M4238 5239 c-21 -12 -24 -59 -6 -77 7 -7 25 -12 40 -12 23 0 28 4 28
25 0 19 -5 25 -21 25 -19 0 -20 -2 -8 -16 12 -14 11 -16 -6 -13 -14 3 -20 12
-20 29 0 21 5 25 28 25 15 -1 26 4 24 10 -5 14 -39 17 -59 4z"/>
<path d="M4320 5201 c0 -28 5 -51 10 -51 6 0 10 7 10 15 0 8 6 15 14 15 8 0
16 -7 20 -15 6 -17 56 -21 56 -5 0 6 9 10 19 10 11 0 23 -4 26 -10 17 -28 21
-4 7 40 -9 28 -21 50 -28 50 -7 0 -20 -20 -30 -45 -9 -25 -21 -45 -25 -45 -9
0 -11 7 -13 55 -1 26 -5 30 -33 33 l-33 3 0 -50z m50 13 c0 -17 -22 -14 -28 4
-2 7 3 12 12 12 9 0 16 -7 16 -16z m90 -28 c-14 -14 -24 0 -16 21 6 15 8 15
16 3 6 -9 5 -19 0 -24z"/>
<path d="M4517 5243 c-11 -10 -8 -93 2 -93 6 0 11 17 13 38 l3 37 20 -37 c27
-54 45 -49 45 12 0 28 -4 50 -10 50 -5 0 -10 -17 -10 -37 l-1 -38 -20 38 c-19
36 -29 44 -42 30z"/>
<path d="M4610 5240 c0 -5 7 -10 15 -10 11 0 15 -11 15 -40 0 -22 5 -40 10
-40 6 0 10 18 10 40 0 29 4 40 15 40 8 0 15 5 15 10 0 6 -18 10 -40 10 -22 0
-40 -4 -40 -10z"/>
<path d="M4740 5200 c0 -27 5 -50 10 -50 6 0 10 7 10 15 0 8 5 15 10 15 6 0
13 -7 16 -15 4 -8 13 -15 21 -15 12 0 13 3 3 15 -6 8 -9 23 -5 35 8 27 -11 50
-41 50 -22 0 -24 -4 -24 -50z m48 18 c-6 -18 -28 -21 -28 -4 0 9 7 16 16 16 9
0 14 -5 12 -12z"/>
<path d="M4830 5200 c0 -49 1 -50 30 -50 17 0 30 5 30 10 0 6 -9 10 -20 10
-27 0 -25 16 3 25 l22 8 -22 4 c-28 5 -30 23 -3 23 11 0 20 5 20 10 0 6 -13
10 -30 10 -29 0 -30 -1 -30 -50z"/>
<path d="M4922 5238 c-7 -7 -12 -24 -12 -38 0 -31 17 -50 45 -50 12 0 26 -5
33 -12 15 -15 27 -4 16 14 -5 7 -7 26 -5 41 1 15 -3 35 -9 43 -15 17 -52 18
-68 2z m53 -38 c0 -16 -6 -26 -18 -28 -19 -4 -32 20 -23 44 9 25 41 13 41 -16z"/>
<path d="M5020 5212 c0 -43 14 -62 45 -62 31 0 45 19 45 62 0 49 -18 50 -22 1
-2 -30 -7 -38 -23 -38 -16 0 -21 8 -23 38 -4 49 -22 48 -22 -1z"/>
<path d="M5130 5200 c0 -49 1 -50 30 -50 17 0 30 5 30 10 0 6 -9 10 -20 10
-11 0 -20 5 -20 10 0 6 7 10 15 10 8 0 15 5 15 10 0 6 -7 10 -15 10 -8 0 -15
5 -15 10 0 6 9 10 20 10 11 0 20 5 20 10 0 6 -13 10 -30 10 -29 0 -30 -1 -30
-50z"/>
<path d="M5217 5244 c-14 -14 -7 -43 13 -49 29 -9 25 -25 -7 -25 -19 0 -24 -3
-16 -11 6 -6 21 -9 34 -7 32 4 39 44 10 53 -27 8 -27 29 0 22 13 -3 19 -1 16
6 -4 14 -39 21 -50 11z"/>
<path d="M5280 5240 c0 -5 7 -10 15 -10 11 0 15 -11 15 -40 0 -22 5 -40 10
-40 6 0 10 18 10 40 0 29 4 40 15 40 8 0 15 5 15 10 0 6 -18 10 -40 10 -22 0
-40 -4 -40 -10z"/>
<path d="M4530 4815 c-5 -14 -13 -37 -16 -51 -6 -24 -5 -25 15 -12 17 10 25
11 42 0 12 -7 23 -12 25 -10 8 8 -32 98 -44 98 -7 0 -17 -11 -22 -25z m28 -34
c-15 -5 -21 7 -13 26 7 17 8 17 15 -2 4 -11 3 -22 -2 -24z"/>
<path d="M5018 4818 c-8 -22 5 -70 19 -75 20 -8 30 6 13 17 -12 8 -13 13 -3
28 9 15 9 22 0 31 -14 14 -24 14 -29 -1z"/>
<path d="M4610 4775 c0 -41 17 -48 22 -7 4 33 22 32 26 -3 2 -14 7 -25 12 -25
5 0 10 11 12 25 2 14 8 26 13 26 6 0 11 -12 13 -26 5 -37 24 -30 20 8 -3 32
-4 32 -60 35 l-58 3 0 -36z"/>
<path d="M4751 4791 c-13 -24 8 -55 34 -50 23 5 40 32 32 53 -9 22 -54 20 -66
-3z m49 -17 c0 -14 -21 -19 -33 -7 -9 9 13 34 24 27 5 -3 9 -12 9 -20z"/>
<path d="M4842 4778 c3 -29 7 -33 36 -35 30 -1 32 1 32 33 0 37 -17 47 -22 12
-5 -32 -28 -35 -28 -4 0 14 -5 26 -11 26 -6 0 -9 -14 -7 -32z"/>
<path d="M4930 4776 c0 -42 17 -49 22 -8 4 33 22 32 26 -3 5 -37 24 -30 20 8
-3 28 -7 32 -35 35 -32 3 -33 2 -33 -32z"/>
<path d="M4217 4389 c-25 -15 -21 -44 9 -57 28 -13 24 -32 -6 -32 -14 0 -18
-5 -13 -16 3 -9 9 -12 12 -7 3 5 14 12 24 16 25 9 21 36 -8 49 -31 14 -32 36
-2 40 12 2 17 6 12 10 -6 3 -18 2 -28 -3z"/>
<path d="M4960 4381 c0 -6 7 -8 15 -5 25 10 30 -25 6 -50 -29 -30 -27 -36 12
-35 24 1 27 3 9 6 -22 4 -23 6 -7 23 23 25 16 64 -12 68 -13 2 -23 -1 -23 -7z"/>
<path d="M5049 4373 c-8 -9 -9 -14 -3 -10 8 4 13 -5 16 -28 3 -25 0 -35 -12
-39 -8 -2 1 -4 20 -4 19 0 29 2 23 5 -8 3 -13 23 -13 49 0 47 -9 55 -31 27z"/>
<path d="M5160 4365 c0 -18 5 -25 20 -25 33 0 26 -38 -7 -43 l-28 -4 26 -2
c15 0 32 5 38 13 15 18 3 46 -20 46 -27 0 -24 28 4 33 19 4 18 4 -5 6 -24 1
-28 -3 -28 -24z"/>
<path d="M5262 4383 l28 -4 -21 -41 c-11 -22 -18 -42 -15 -45 5 -6 46 70 46
87 0 5 -15 9 -32 9 -31 -2 -31 -2 -6 -6z"/>
<path d="M5331 4358 c-19 -30 -19 -33 -3 -36 9 -2 22 -10 28 -18 16 -20 22 0
16 49 -5 45 -14 47 -41 5z m29 -8 c0 -11 -7 -20 -15 -20 -13 0 -14 4 -5 20 6
11 13 20 15 20 3 0 5 -9 5 -20z"/>
<path d="M5120 4284 c0 -8 5 -12 10 -9 6 3 10 10 10 16 0 5 -4 9 -10 9 -5 0
-10 -7 -10 -16z"/>
<path d="M4217 4172 c-23 -25 -21 -37 8 -56 30 -20 23 -40 -10 -33 -20 3 -22
1 -12 -14 9 -14 13 -15 24 -3 8 8 19 14 24 14 19 0 8 30 -16 46 -30 20 -32 32
-5 36 13 2 17 7 12 16 -7 10 -12 8 -25 -6z"/>
<path d="M4978 4163 c27 -5 28 -23 2 -56 -27 -34 -26 -37 13 -36 23 1 26 3 9
6 -22 4 -22 5 -6 33 21 34 12 60 -18 59 l-23 -2 23 -4z"/>
<path d="M5040 4150 c0 -11 6 -20 14 -20 19 0 36 -23 28 -37 -4 -6 -16 -13
-27 -16 -19 -4 -19 -5 1 -6 45 -2 57 55 14 66 -27 7 -25 21 3 26 19 4 18 4 -5
6 -22 1 -28 -4 -28 -19z"/>
<path d="M5161 4148 c1 -13 -1 -31 -5 -40 -11 -24 1 -38 30 -38 28 0 42 24 25
43 -7 10 -7 17 0 24 16 16 2 33 -27 33 -20 0 -25 -5 -23 -22z m39 -4 c0 -17
-22 -14 -28 4 -2 7 3 12 12 12 9 0 16 -7 16 -16z m4 -55 c-8 -14 -34 -11 -34
4 0 8 3 17 7 20 9 9 34 -13 27 -24z"/>
<path d="M5242 4158 c-16 -16 -15 -50 2 -74 23 -30 51 -7 51 42 0 31 -4 40
-20 42 -11 1 -26 -3 -33 -10z m43 -38 c0 -25 -5 -36 -17 -38 -15 -3 -18 4 -18
38 0 34 3 41 18 38 12 -2 17 -13 17 -38z"/>
<path d="M5320 4146 c-14 -38 3 -78 33 -74 19 3 22 9 22 48 0 39 -3 45 -22 48
-17 3 -26 -3 -33 -22z m45 -27 c0 -24 -5 -34 -15 -34 -16 0 -25 37 -16 62 10
26 31 8 31 -28z"/>
<path d="M5120 4068 c0 -19 2 -20 10 -8 13 19 13 30 0 30 -5 0 -10 -10 -10
-22z"/>
<path d="M4217 3956 c-25 -19 -21 -45 8 -56 34 -13 23 -44 -13 -35 -22 5 -24
4 -12 -10 11 -13 16 -14 34 -2 31 21 32 45 2 57 -31 11 -34 27 -6 32 12 2 17
7 12 15 -5 8 -11 8 -25 -1z"/>
<path d="M4978 3943 c26 -5 26 -2 7 -46 -23 -54 -17 -58 10 -7 31 58 31 60 -7
59 -24 -1 -27 -3 -10 -6z"/>
<path d="M5040 3928 c-8 -16 -8 -32 -1 -51 19 -50 65 -24 59 35 -4 42 -42 53
-58 16z m45 -28 c0 -51 -29 -48 -33 3 -3 33 -1 38 15 35 13 -2 18 -12 18 -38z"/>
<path d="M5161 3928 c2 -13 0 -29 -5 -36 -10 -17 11 -42 36 -42 23 0 34 25 19
43 -7 10 -7 17 0 24 16 16 2 33 -27 33 -21 0 -25 -4 -23 -22z m37 1 c-2 -6 -8
-10 -13 -10 -5 0 -11 4 -13 10 -2 6 4 11 13 11 9 0 15 -5 13 -11z m7 -49 c0
-8 -8 -16 -17 -18 -13 -2 -18 3 -18 18 0 15 5 20 18 18 9 -2 17 -10 17 -18z"/>
<path d="M5234 3925 c-4 -15 -2 -37 5 -51 21 -47 65 -19 59 38 -2 28 -7 34
-30 36 -22 3 -29 -2 -34 -23z m54 -15 c1 -14 -2 -31 -7 -39 -14 -22 -31 -3
-31 35 0 28 4 35 18 32 10 -2 18 -14 20 -28z"/>
<path d="M5320 3926 c-6 -17 -6 -35 0 -51 19 -49 64 -20 58 37 -4 44 -43 53
-58 14z m45 -26 c0 -51 -29 -48 -33 3 -3 33 -1 38 15 35 13 -2 18 -12 18 -38z"/>
<path d="M5120 3848 c0 -19 2 -20 10 -8 13 19 13 30 0 30 -5 0 -10 -10 -10
-22z"/>
<path d="M4217 3739 c-26 -15 -21 -48 9 -59 28 -11 24 -30 -6 -30 -13 0 -17
-5 -14 -15 5 -12 9 -12 30 2 31 20 31 41 -1 53 -31 12 -35 45 -5 37 11 -3 20
-1 20 3 0 15 -15 19 -33 9z"/>
<path d="M5188 3673 c6 -2 18 -2 25 0 6 3 1 5 -13 5 -14 0 -19 -2 -12 -5z"/>
<path d="M5659 5248 c0 -2 -1 -24 -2 -51 -2 -48 16 -66 26 -27 3 11 12 20 20
20 20 0 30 29 16 46 -9 11 -57 21 -60 12z m43 -33 c0 -5 -5 -11 -11 -13 -6 -2
-11 4 -11 13 0 9 5 15 11 13 6 -2 11 -8 11 -13z"/>
<path d="M5740 5201 c0 -28 5 -51 10 -51 6 0 10 7 10 15 0 8 6 15 14 15 8 0
16 -7 20 -15 3 -8 10 -15 16 -15 6 0 8 5 3 12 -4 7 -7 29 -8 48 0 32 -3 35
-32 38 l-33 3 0 -50z m50 13 c0 -17 -22 -14 -28 4 -2 7 3 12 12 12 9 0 16 -7
16 -16z"/>
<path d="M5840 5200 c0 -27 5 -50 10 -50 6 0 10 23 10 50 0 28 -4 50 -10 50
-5 0 -10 -22 -10 -50z"/>
<path d="M5887 5244 c-14 -14 -7 -43 13 -49 29 -9 25 -25 -7 -25 -19 0 -24 -3
-16 -11 6 -6 21 -9 34 -7 32 4 39 44 10 53 -27 8 -27 29 0 22 13 -3 19 -1 16
6 -4 14 -39 21 -50 11z"/>
<path d="M5960 5200 c0 -56 17 -68 23 -17 l3 32 13 -32 c7 -18 17 -33 22 -33
6 0 16 15 24 33 l14 32 1 -32 c0 -18 5 -33 10 -33 6 0 10 23 10 50 0 59 -18
67 -42 18 l-17 -33 -12 33 c-8 19 -20 32 -31 32 -15 0 -18 -9 -18 -50z"/>
<path d="M6140 5200 c0 -56 17 -68 23 -17 l4 32 13 -32 c18 -41 29 -42 43 -3
15 39 25 38 30 -2 3 -23 4 -16 5 20 2 61 -15 70 -40 20 l-16 -33 -12 33 c-8
21 -19 32 -31 32 -16 0 -19 -8 -19 -50z"/>
<path d="M6296 5203 c-9 -25 -13 -49 -10 -52 4 -3 9 0 11 7 3 6 15 12 28 12
13 0 25 -6 28 -12 2 -7 8 -10 12 -6 11 10 -25 98 -40 98 -7 0 -20 -21 -29 -47z
m39 -13 c-11 -17 -23 -1 -18 21 5 19 7 19 15 5 5 -9 6 -21 3 -26z"/>
<path d="M6380 5240 c0 -5 7 -10 15 -10 11 0 15 -11 15 -40 0 -22 5 -40 10
-40 6 0 10 18 10 40 0 30 4 40 16 40 8 0 12 5 9 10 -3 6 -22 10 -41 10 -19 0
-34 -4 -34 -10z"/>
<path d="M6482 5238 c-6 -6 -12 -27 -12 -45 0 -27 5 -34 26 -39 14 -4 30 -2
37 5 8 8 4 11 -17 11 -24 0 -27 3 -24 28 2 21 8 27 26 26 12 0 21 4 19 10 -5
16 -40 19 -55 4z"/>
<path d="M6560 5200 c0 -27 5 -50 10 -50 6 0 10 9 10 20 0 13 7 20 20 20 13 0
20 -7 20 -20 0 -11 5 -20 10 -20 6 0 10 23 10 50 0 50 -13 67 -23 30 -3 -11
-12 -20 -21 -20 -9 0 -16 8 -16 20 0 11 -4 20 -10 20 -5 0 -10 -22 -10 -50z"/>
<path d="M5878 4790 c-14 -44 -10 -68 7 -40 3 6 15 10 26 10 10 0 19 -4 19
-10 0 -5 7 -10 15 -10 12 0 12 7 -4 48 -25 63 -42 64 -63 2z m42 5 c0 -8 -7
-15 -15 -15 -9 0 -12 6 -9 15 4 8 10 15 15 15 5 0 9 -7 9 -15z"/>
<path d="M6377 4817 c-7 -18 3 -66 15 -73 5 -4 15 -1 21 5 8 8 8 11 -1 11 -7
0 -12 9 -12 20 0 11 5 20 11 20 6 0 4 7 -5 15 -18 18 -22 19 -29 2z"/>
<path d="M5970 4775 c0 -41 17 -47 22 -7 4 33 22 32 26 -3 2 -14 7 -25 12 -25
5 0 10 11 12 25 2 14 8 26 13 26 6 0 11 -12 13 -26 4 -29 22 -34 22 -6 0 43
-10 51 -66 51 l-54 0 0 -35z"/>
<path d="M6109 4794 c-17 -21 0 -49 31 -49 27 0 46 25 37 49 -8 21 -51 21 -68
0z m49 -17 c2 -10 -3 -17 -12 -17 -18 0 -29 16 -21 31 9 14 29 6 33 -14z"/>
<path d="M6202 4778 c3 -29 7 -33 36 -35 30 -1 32 1 32 33 0 38 -17 47 -22 12
-2 -13 -10 -23 -18 -23 -9 0 -15 9 -14 23 0 12 -3 22 -8 22 -5 0 -8 -15 -6
-32z"/>
<path d="M6290 4774 c0 -39 15 -38 22 1 5 28 22 21 26 -10 5 -37 24 -30 20 8
-3 28 -7 32 -35 35 -32 3 -33 2 -33 -34z"/>
<path d="M5565 4380 c-15 -16 -15 -22 -5 -35 7 -8 19 -15 26 -15 8 0 14 -7 14
-16 0 -12 -7 -15 -25 -12 -28 6 -30 3 -13 -16 10 -10 16 -9 35 8 29 25 29 34
-2 48 -30 14 -35 43 -5 35 23 -6 28 8 6 16 -8 3 -22 -3 -31 -13z"/>
<path d="M6548 4323 c7 -3 16 -2 19 1 4 3 -2 6 -13 5 -11 0 -14 -3 -6 -6z"/>
<path d="M5565 4163 c-20 -14 -19 -15 8 -37 34 -28 36 -50 3 -44 -21 4 -23 2
-13 -12 10 -16 12 -16 35 6 22 19 23 25 13 38 -8 9 -20 16 -27 16 -23 0 -16
28 9 32 17 2 18 5 7 9 -9 4 -25 0 -35 -8z"/>
<path d="M6548 4113 c7 -3 16 -2 19 1 4 3 -2 6 -13 5 -11 0 -14 -3 -6 -6z"/>
<path d="M5565 3948 c-20 -20 -20 -20 9 -43 31 -25 27 -50 -6 -42 -15 4 -17 3
-8 -9 9 -10 17 -11 30 -4 33 17 34 32 7 55 -33 25 -34 33 -5 37 18 2 19 5 7
14 -11 9 -19 7 -34 -8z"/>
<path d="M6548 3893 c7 -3 16 -2 19 1 4 3 -2 6 -13 5 -11 0 -14 -3 -6 -6z"/>
<path d="M5565 3730 c-15 -16 -15 -22 -5 -35 7 -8 19 -15 26 -15 8 0 14 -7 14
-15 0 -9 -9 -15 -25 -15 -21 0 -24 -2 -13 -14 11 -11 16 -11 35 1 30 20 29 41
-2 53 -31 12 -35 45 -4 37 16 -4 18 -3 8 9 -14 17 -12 18 -34 -6z"/>
<path d="M6548 3673 c7 -3 16 -2 19 1 4 3 -2 6 -13 5 -11 0 -14 -3 -6 -6z"/>
<path d="M6997 5353 c-11 -10 -8 -93 2 -93 6 0 11 15 14 33 l4 32 13 -32 c8
-18 19 -33 25 -33 6 0 17 15 25 33 l13 32 4 -32 c6 -50 18 -39 17 14 -2 53
-20 65 -40 25 -18 -36 -23 -37 -35 -4 -10 30 -27 40 -42 25z"/>
<path d="M7147 5313 c-19 -52 -18 -60 11 -42 17 10 23 10 36 -1 9 -7 19 -10
22 -7 9 9 -27 97 -40 97 -7 0 -19 -21 -29 -47z m43 -9 c0 -8 -7 -14 -15 -14
-17 0 -18 2 -9 24 7 18 24 12 24 -10z"/>
<path d="M7230 5350 c0 -5 7 -10 15 -10 11 0 15 -11 15 -40 0 -22 5 -40 10
-40 6 0 10 18 10 40 0 30 4 40 16 40 8 0 12 5 9 10 -3 6 -22 10 -41 10 -19 0
-34 -4 -34 -10z"/>
<path d="M7337 5347 c-13 -9 -18 -23 -15 -47 3 -31 6 -35 36 -38 18 -2 32 1
32 7 0 6 -12 11 -26 11 -22 0 -25 4 -22 28 2 21 8 27 26 26 12 0 21 4 19 10
-6 17 -30 18 -50 3z"/>
<path d="M7410 5310 c0 -27 5 -50 10 -50 6 0 10 9 10 20 0 13 7 20 20 20 13 0
20 -7 20 -20 0 -11 5 -20 10 -20 6 0 10 23 10 50 0 28 -4 50 -10 50 -5 0 -10
-9 -10 -20 0 -13 -7 -20 -20 -20 -13 0 -20 7 -20 20 0 11 -4 20 -10 20 -5 0
-10 -22 -10 -50z"/>
<path d="M7551 5308 c2 -53 2 -53 8 -13 l7 40 19 -37 c27 -55 45 -49 45 13 0
31 -4 48 -10 44 -5 -3 -10 -21 -10 -38 l-1 -32 -20 38 c-11 20 -24 37 -29 37
-6 0 -9 -24 -9 -52z"/>
<path d="M7666 5344 c-32 -31 -14 -84 29 -84 28 0 45 19 45 50 0 47 -42 66
-74 34z m52 -37 c3 -22 -1 -27 -18 -27 -23 0 -35 22 -26 46 10 25 41 12 44
-19z"/>
<path d="M7755 5350 c-3 -5 1 -10 9 -10 12 0 16 -10 16 -40 0 -22 5 -40 10
-40 6 0 10 18 10 40 0 29 4 40 15 40 8 0 15 5 15 10 0 6 -15 10 -34 10 -19 0
-38 -4 -41 -10z"/>
<path d="M7880 5310 c0 -27 5 -50 10 -50 6 0 10 23 10 50 0 28 -4 50 -10 50
-5 0 -10 -22 -10 -50z"/>
<path d="M7931 5308 c2 -53 2 -53 8 -13 l7 40 19 -37 c27 -55 45 -49 45 13 0
31 -4 48 -10 44 -5 -3 -10 -21 -10 -38 l-1 -32 -20 38 c-11 20 -24 37 -29 37
-6 0 -9 -24 -9 -52z"/>
<path d="M7290 5091 c0 -28 5 -51 10 -51 6 0 10 7 10 15 0 9 12 20 26 25 39
15 30 54 -13 58 l-33 3 0 -50z m48 18 c-2 -6 -8 -10 -13 -10 -5 0 -11 4 -13
10 -2 6 4 11 13 11 9 0 15 -5 13 -11z"/>
<path d="M7380 5091 c0 -53 13 -68 24 -28 l7 22 16 -22 c16 -24 40 -33 26 -11
-4 7 -7 29 -8 48 0 32 -3 35 -32 38 l-33 3 0 -50z m48 18 c-2 -6 -8 -10 -13
-10 -5 0 -11 4 -13 10 -2 6 4 11 13 11 9 0 15 -5 13 -11z"/>
<path d="M7470 5091 c0 -52 14 -69 23 -28 8 33 2 70 -11 75 -8 2 -12 -13 -12
-47z"/>
<path d="M7521 5126 c-9 -11 -8 -18 4 -30 9 -9 21 -16 26 -16 5 0 9 -4 9 -10
0 -5 -12 -10 -27 -10 -20 0 -24 -3 -16 -11 7 -7 23 -9 37 -5 35 9 34 39 -1 56
l-28 14 28 4 c15 2 25 8 22 13 -9 14 -41 11 -54 -5z"/>
<path d="M7600 5090 c0 -54 20 -71 21 -17 l0 32 16 -32 c9 -18 20 -33 25 -33
4 0 14 15 22 33 l14 32 1 -32 c2 -54 21 -37 21 17 0 58 -20 68 -40 20 -7 -16
-15 -30 -19 -30 -4 0 -12 14 -18 30 -6 17 -18 30 -27 30 -13 0 -16 -11 -16
-50z"/>
<path d="M7236 4794 c-9 -26 -13 -50 -10 -53 4 -3 9 0 11 7 3 6 15 12 28 12
13 0 25 -6 28 -12 2 -7 8 -10 12 -6 11 11 -20 93 -37 96 -11 2 -21 -12 -32
-44z m44 -6 c0 -5 -6 -8 -14 -8 -9 0 -12 7 -9 21 4 16 8 17 14 7 5 -7 9 -16 9
-20z"/>
<path d="M7736 4821 c-8 -12 4 -70 16 -77 5 -4 15 -1 21 5 8 8 8 11 -1 11 -7
0 -12 9 -12 20 0 11 5 20 11 20 6 0 4 7 -5 15 -17 17 -23 18 -30 6z"/>
<path d="M7330 4775 c0 -41 17 -47 22 -7 4 36 21 34 29 -4 4 -19 8 -24 11 -14
21 56 22 56 26 23 4 -44 22 -42 22 2 l0 35 -55 0 -55 0 0 -35z"/>
<path d="M7467 4803 c-13 -12 -7 -51 9 -57 28 -11 43 -7 54 15 9 15 8 24 -1
35 -12 14 -51 19 -62 7z m48 -24 c0 -7 -8 -15 -17 -17 -18 -3 -25 18 -11 32
10 10 28 1 28 -15z"/>
<path d="M7550 4786 c0 -29 19 -46 48 -43 18 1 22 7 22 34 0 18 -4 33 -10 33
-5 0 -10 -12 -10 -26 0 -31 -23 -28 -28 4 -5 30 -22 28 -22 -2z"/>
<path d="M7640 4775 c0 -19 5 -35 10 -35 6 0 10 11 10 24 0 13 7 26 15 30 11
4 15 -1 15 -19 0 -13 5 -27 10 -30 6 -4 10 8 10 29 0 34 -2 36 -35 36 -33 0
-35 -2 -35 -35z"/>
<path d="M6926 4385 c-22 -17 -15 -45 14 -52 31 -8 26 -36 -5 -31 -28 6 -30 3
-13 -16 10 -10 15 -10 30 3 24 20 23 47 -2 54 -11 3 -20 13 -20 22 0 13 6 16
21 12 16 -4 18 -3 8 9 -6 8 -12 14 -13 14 0 0 -9 -7 -20 -15z"/>
<path d="M7908 4323 c7 -3 16 -2 19 1 4 3 -2 6 -13 5 -11 0 -14 -3 -6 -6z"/>
<path d="M6927 4170 c-24 -23 -21 -39 9 -50 30 -12 27 -35 -5 -34 -24 1 -26
-2 -9 -20 10 -10 15 -10 30 3 24 21 23 52 -2 58 -25 7 -26 31 -1 35 14 2 16 6
7 14 -8 7 -16 6 -29 -6z"/>
<path d="M7908 4113 c7 -3 16 -2 19 1 4 3 -2 6 -13 5 -11 0 -14 -3 -6 -6z"/>
<path d="M6924 3949 c-19 -21 -19 -21 10 -44 31 -25 27 -50 -6 -42 -15 4 -17
3 -8 -8 9 -11 16 -12 31 -2 25 15 24 43 -1 57 -26 14 -25 28 2 32 18 3 19 5 6
15 -12 11 -18 9 -34 -8z"/>
<path d="M7898 3893 c6 -2 18 -2 25 0 6 3 1 5 -13 5 -14 0 -19 -2 -12 -5z"/>
<path d="M6928 3736 c-25 -18 -22 -33 7 -52 32 -21 32 -34 0 -34 -21 0 -23 -2
-13 -13 10 -11 15 -11 30 2 23 20 23 38 -2 51 -27 15 -27 44 1 37 16 -4 18 -3
8 9 -6 8 -12 14 -13 14 0 0 -9 -7 -18 -14z"/>
<path d="M7908 3673 c7 -3 16 -2 19 1 4 3 -2 6 -13 5 -11 0 -14 -3 -6 -6z"/>
<path d="M2857 3519 c-24 -14 -21 -36 8 -55 27 -18 23 -39 -6 -31 -21 6 -27
-9 -6 -16 16 -6 47 11 47 25 0 7 -12 22 -27 34 l-28 23 24 9 c14 5 20 11 15
15 -5 3 -17 1 -27 -4z"/>
<path d="M3529 3503 c-10 -11 -10 -14 -1 -9 9 5 12 -2 12 -28 0 -19 -6 -37
-12 -39 -7 -3 3 -5 22 -5 19 0 29 2 23 5 -8 3 -13 23 -13 49 0 47 -9 55 -31
27z"/>
<path d="M3609 3503 c-12 -15 -12 -16 4 -10 14 5 17 1 17 -28 0 -24 -5 -35
-17 -38 -10 -3 -2 -5 17 -5 19 0 29 2 23 5 -8 3 -13 23 -13 49 0 47 -9 55 -31
27z"/>
<path d="M3687 3513 c-2 -4 -4 -26 -3 -48 1 -30 6 -41 19 -43 23 -5 49 17 39
32 -4 6 -7 22 -7 36 0 18 -6 26 -22 28 -11 2 -23 0 -26 -5z m38 -12 c7 -12
-12 -24 -25 -16 -11 7 -4 25 10 25 5 0 11 -4 15 -9z m5 -56 c0 -8 -9 -15 -20
-15 -20 0 -26 11 -13 23 12 13 33 7 33 -8z"/>
<path d="M3810 3504 c-11 -12 -11 -15 1 -12 23 5 25 -59 2 -65 -10 -3 -2 -5
17 -5 19 0 29 2 23 5 -8 3 -13 23 -13 49 0 46 -9 54 -30 28z"/>
<path d="M3902 3513 c24 -4 26 -7 18 -23 -18 -34 -30 -70 -22 -70 7 0 42 77
42 93 0 4 -15 6 -32 6 -31 -2 -31 -2 -6 -6z"/>
<path d="M3997 3490 c4 -24 2 -30 -12 -30 -14 0 -15 3 -5 15 7 9 11 18 8 21
-3 2 -13 -7 -22 -21 -16 -24 -16 -25 9 -25 17 0 25 -6 25 -17 1 -15 2 -16 9
-3 10 18 2 90 -10 90 -5 0 -6 -13 -2 -30z"/>
<path d="M3766 3424 c-4 -9 -4 -19 -1 -22 2 -3 7 3 11 12 4 9 4 19 1 22 -2 3
-7 -3 -11 -12z"/>
<path d="M2857 2812 c-24 -26 -21 -41 9 -52 30 -12 27 -35 -5 -34 -23 1 -28
-11 -8 -19 18 -7 47 16 47 37 0 9 -11 21 -25 26 -30 11 -33 27 -5 32 13 2 17
7 12 16 -7 10 -12 8 -25 -6z"/>
<path d="M3530 2800 c-10 -6 -11 -10 -2 -10 7 0 12 -14 12 -34 0 -19 -6 -37
-12 -39 -7 -3 3 -5 22 -5 19 0 29 2 23 5 -8 3 -13 23 -13 49 0 45 -4 51 -30
34z"/>
<path d="M3607 2804 c-14 -14 -8 -84 8 -90 26 -10 46 16 43 55 -2 27 -8 37
-23 39 -12 2 -24 0 -28 -4z m38 -44 c0 -51 -29 -48 -33 3 -3 33 -1 38 15 35
13 -2 18 -12 18 -38z"/>
<path d="M3685 2800 c-4 -6 -2 -17 4 -24 7 -9 7 -16 -1 -24 -17 -17 -1 -44 24
-40 20 3 23 9 23 48 0 38 -3 45 -22 48 -11 2 -24 -2 -28 -8z m45 -9 c0 -14
-18 -23 -30 -16 -6 4 -8 11 -5 16 8 12 35 12 35 0z m-4 -42 c10 -17 -13 -36
-27 -22 -12 12 -4 33 11 33 5 0 12 -5 16 -11z"/>
<path d="M3810 2800 c-13 -8 -12 -10 3 -10 12 0 17 -8 17 -30 0 -17 -7 -33
-17 -39 -15 -8 -11 -10 17 -10 19 0 29 3 23 6 -8 3 -13 23 -13 49 0 45 -4 51
-30 34z"/>
<path d="M3887 2804 c-14 -14 -8 -84 8 -90 26 -10 46 16 43 55 -2 27 -8 37
-23 39 -12 2 -24 0 -28 -4z m41 -41 c-3 -43 -31 -54 -36 -15 -5 32 4 52 23 52
13 0 15 -9 13 -37z"/>
<path d="M3967 2803 c-4 -3 -7 -23 -7 -44 0 -35 12 -49 41 -49 18 0 31 53 20
77 -10 22 -40 31 -54 16z m41 -40 c-3 -43 -31 -54 -36 -15 -5 32 4 52 23 52
13 0 15 -9 13 -37z"/>
<path d="M3766 2714 c-4 -9 -4 -19 -1 -22 2 -3 7 3 11 12 4 9 4 19 1 22 -2 3
-7 -3 -11 -12z"/>
<path d="M2857 2596 c-24 -19 -21 -41 8 -54 33 -15 32 -32 -1 -32 -22 0 -24
-3 -15 -14 11 -13 15 -12 32 2 26 22 24 40 -6 54 -27 12 -28 34 -1 32 9 -1 16
2 16 7 0 15 -15 17 -33 5z"/>
<path d="M3828 2533 c6 -2 18 -2 25 0 6 3 1 5 -13 5 -14 0 -19 -2 -12 -5z"/>
<path d="M4217 3519 c-24 -14 -21 -36 8 -55 29 -19 23 -38 -10 -31 -20 3 -22
2 -12 -14 6 -10 14 -15 17 -10 3 4 13 10 23 14 25 9 21 36 -8 49 -31 14 -32
36 -2 40 12 2 17 6 12 10 -6 3 -18 2 -28 -3z"/>
<path d="M4893 3513 c-7 -2 -13 -9 -13 -14 0 -6 5 -7 10 -4 6 4 10 -8 10 -29
0 -19 -6 -37 -12 -39 -7 -3 3 -5 22 -5 19 0 29 2 23 5 -8 3 -13 23 -13 49 0
43 -3 47 -27 37z"/>
<path d="M4973 3513 c-7 -2 -13 -9 -13 -14 0 -6 5 -7 10 -4 6 4 10 -8 10 -29
0 -19 -6 -37 -12 -39 -7 -3 3 -5 22 -5 19 0 29 2 23 5 -8 3 -13 23 -13 49 0
43 -3 47 -27 37z"/>
<path d="M5044 3506 c-3 -8 -3 -20 1 -26 4 -6 2 -16 -4 -23 -15 -19 3 -39 30
-35 21 3 24 8 24 48 0 39 -3 45 -23 48 -13 2 -25 -3 -28 -12z m37 -11 c-1 -15
-24 -12 -29 3 -3 9 2 13 12 10 10 -1 17 -7 17 -13z m7 -52 c2 -8 -5 -13 -17
-13 -12 0 -21 6 -21 16 0 18 31 15 38 -3z"/>
<path d="M5173 3513 c-7 -2 -13 -9 -13 -14 0 -6 5 -7 10 -4 6 4 10 -8 10 -29
0 -19 -6 -37 -12 -39 -7 -3 3 -5 22 -5 19 0 29 2 23 5 -8 3 -13 23 -13 49 0
43 -3 47 -27 37z"/>
<path d="M5262 3513 l28 -4 -21 -41 c-11 -22 -18 -42 -15 -45 5 -6 46 70 46
87 0 5 -15 9 -32 9 -31 -2 -31 -2 -6 -6z"/>
<path d="M5331 3488 l-20 -33 20 -3 c11 -2 23 -11 26 -20 6 -14 7 -14 13 2 8
22 0 86 -10 86 -4 0 -17 -15 -29 -32z m29 -8 c0 -11 -7 -20 -15 -20 -13 0 -14
4 -5 20 6 11 13 20 15 20 3 0 5 -9 5 -20z"/>
<path d="M5127 3433 c-4 -3 -7 -13 -7 -22 1 -13 3 -13 11 2 11 19 8 33 -4 20z"/>
<path d="M4217 2816 c-25 -19 -21 -45 8 -56 34 -13 23 -44 -13 -35 -22 5 -24
4 -12 -10 11 -13 16 -14 34 -2 31 21 32 45 2 57 -31 11 -34 27 -6 32 12 2 17
7 12 15 -5 8 -11 8 -25 -1z"/>
<path d="M4885 2800 c-3 -5 -1 -10 4 -10 15 0 14 -67 -1 -73 -7 -3 3 -5 22 -5
19 0 29 2 23 5 -8 3 -13 23 -13 49 0 32 -4 44 -14 44 -8 0 -18 -4 -21 -10z"/>
<path d="M4962 2798 c-17 -17 -15 -63 4 -79 26 -21 49 1 49 47 0 31 -4 40 -20
42 -11 1 -26 -3 -33 -10z m46 -28 c1 -14 -2 -31 -7 -39 -14 -22 -31 -3 -31 35
0 28 4 35 18 32 10 -2 18 -14 20 -28z"/>
<path d="M5046 2798 c-2 -7 -4 -20 -4 -28 0 -8 -1 -21 -3 -28 -5 -18 24 -37
45 -29 12 5 15 17 13 49 -2 36 -7 44 -25 46 -12 2 -24 -3 -26 -10z m38 -7 c3
-5 0 -11 -8 -14 -15 -6 -26 1 -26 15 0 11 27 10 34 -1z m2 -42 c10 -17 -13
-36 -27 -22 -12 12 -4 33 11 33 5 0 12 -5 16 -11z"/>
<path d="M5165 2800 c-3 -5 -1 -10 4 -10 15 0 14 -67 -1 -73 -7 -3 3 -5 22 -5
19 0 29 2 23 5 -8 3 -13 23 -13 49 0 32 -4 44 -14 44 -8 0 -18 -4 -21 -10z"/>
<path d="M5242 2798 c-16 -16 -15 -50 2 -74 23 -30 51 -7 51 42 0 31 -4 40
-20 42 -11 1 -26 -3 -33 -10z m43 -38 c0 -51 -29 -48 -33 3 -3 33 -1 38 15 35
13 -2 18 -12 18 -38z"/>
<path d="M5320 2786 c-6 -17 -6 -35 0 -51 19 -49 64 -20 58 37 -4 44 -43 53
-58 14z m45 -26 c0 -51 -29 -48 -33 3 -3 33 -1 38 15 35 13 -2 18 -12 18 -38z"/>
<path d="M5120 2708 c0 -19 2 -20 10 -8 13 19 13 30 0 30 -5 0 -10 -10 -10
-22z"/>
<path d="M4217 2599 c-26 -15 -21 -48 9 -59 30 -12 23 -30 -12 -30 -21 0 -23
-2 -12 -14 11 -11 16 -11 35 1 30 20 29 41 -3 53 -27 11 -28 36 0 34 9 -1 16
2 16 7 0 14 -15 18 -33 8z"/>
<path d="M5188 2533 c6 -2 18 -2 25 0 6 3 1 5 -13 5 -14 0 -19 -2 -12 -5z"/>
<path d="M5564 3508 c-18 -19 -18 -20 1 -34 10 -8 22 -14 27 -14 4 0 8 -7 8
-16 0 -12 -7 -15 -25 -12 -28 6 -30 3 -13 -16 10 -10 16 -9 35 8 29 25 29 34
-2 48 -31 14 -32 36 -2 40 18 3 19 4 5 10 -10 4 -23 -1 -34 -14z"/>
<path d="M6548 3463 c7 -3 16 -2 19 1 4 3 -2 6 -13 5 -11 0 -14 -3 -6 -6z"/>
<path d="M5564 2805 c-19 -15 -18 -16 9 -38 35 -29 36 -51 2 -45 -20 4 -23 3
-14 -8 8 -10 16 -11 29 -4 33 17 34 32 7 55 -32 25 -34 35 -6 35 11 0 17 5 14
10 -8 14 -18 13 -41 -5z"/>
<path d="M6548 2753 c7 -3 16 -2 19 1 4 3 -2 6 -13 5 -11 0 -14 -3 -6 -6z"/>
<path d="M5565 2590 c-15 -16 -15 -22 -5 -35 7 -8 19 -15 26 -15 24 0 15 -29
-10 -32 -18 -2 -21 -6 -12 -14 10 -9 18 -7 35 5 25 19 20 46 -10 54 -10 3 -19
13 -19 22 0 13 6 16 21 12 16 -4 18 -3 8 9 -14 17 -12 18 -34 -6z"/>
<path d="M6548 2533 c7 -3 16 -2 19 1 4 3 -2 6 -13 5 -11 0 -14 -3 -6 -6z"/>
<path d="M6925 3516 c-22 -16 -14 -46 15 -53 31 -8 26 -36 -5 -31 -28 6 -30 3
-13 -16 10 -10 15 -10 30 3 24 20 23 48 -2 56 -25 8 -26 32 -2 37 11 2 13 6 6
10 -6 4 -19 1 -29 -6z"/>
<path d="M7908 3463 c7 -3 16 -2 19 1 4 3 -2 6 -13 5 -11 0 -14 -3 -6 -6z"/>
<path d="M6925 2807 c-20 -19 -20 -19 9 -42 31 -25 27 -50 -6 -42 -15 4 -17 3
-8 -9 9 -10 17 -11 31 -3 25 13 24 45 -1 59 -25 13 -26 28 -1 32 14 2 16 6 7
14 -8 7 -17 5 -31 -9z"/>
<path d="M7898 2753 c6 -2 18 -2 25 0 6 3 1 5 -13 5 -14 0 -19 -2 -12 -5z"/>
<path d="M6924 2589 c-19 -21 -19 -21 9 -43 34 -27 34 -36 1 -36 -23 0 -25 -2
-14 -15 12 -14 15 -14 31 1 24 22 24 41 -1 54 -29 15 -27 43 2 34 20 -6 21 -5
9 10 -17 20 -14 20 -37 -5z"/>
<path d="M7908 2533 c7 -3 16 -2 19 1 4 3 -2 6 -13 5 -11 0 -14 -3 -6 -6z"/>
<path d="M2858 2360 c-25 -23 -22 -38 7 -52 30 -13 27 -33 -4 -32 -23 1 -29
-12 -8 -19 20 -7 47 12 47 33 0 11 -4 20 -8 20 -5 0 -17 6 -28 14 -19 14 -19
15 3 23 13 5 19 13 15 19 -5 8 -13 6 -24 -6z"/>
<path d="M3529 2343 c-10 -11 -10 -14 -1 -9 9 5 12 -2 12 -28 0 -19 -6 -37
-12 -39 -7 -3 3 -5 22 -5 19 0 29 2 23 5 -8 3 -13 23 -13 49 0 47 -9 55 -31
27z"/>
<path d="M3604 2347 c-3 -8 -4 -30 -2 -49 2 -28 7 -33 28 -33 23 0 25 4 25 45
0 39 -3 45 -23 48 -13 2 -24 -3 -28 -11z m41 -38 c0 -24 -5 -34 -15 -34 -16 0
-25 37 -16 62 10 26 31 8 31 -28z"/>
<path d="M3688 2353 c-2 -4 -4 -26 -4 -48 1 -36 4 -40 26 -40 23 0 25 4 25 45
0 38 -3 45 -22 48 -11 2 -23 0 -25 -5z m37 -12 c7 -12 -12 -24 -25 -16 -11 7
-4 25 10 25 5 0 11 -4 15 -9z m5 -57 c0 -16 -26 -19 -35 -4 -3 6 -4 14 0 20 8
13 35 1 35 -16z"/>
<path d="M3810 2345 c-11 -13 -10 -14 4 -9 23 9 22 -51 -1 -65 -15 -8 -11 -10
17 -10 19 0 29 3 23 6 -8 3 -13 23 -13 49 0 46 -9 54 -30 29z"/>
<path d="M3884 2347 c-3 -8 -4 -30 -2 -49 2 -28 7 -33 28 -33 23 0 25 4 25 45
0 39 -3 45 -23 48 -13 2 -24 -3 -28 -11z m41 -38 c0 -24 -5 -34 -15 -34 -16 0
-25 37 -16 62 10 26 31 8 31 -28z"/>
<path d="M3964 2346 c-3 -8 -4 -29 -2 -48 2 -25 8 -34 25 -36 30 -4 50 41 34
75 -12 26 -48 31 -57 9z m44 -33 c-3 -43 -31 -54 -36 -15 -5 32 4 52 23 52 13
0 15 -9 13 -37z"/>
<path d="M3766 2264 c-4 -9 -4 -19 -1 -22 2 -3 7 3 11 12 4 9 4 19 1 22 -2 3
-7 -3 -11 -12z"/>
<path d="M2857 1672 c-24 -26 -21 -41 9 -52 30 -12 27 -35 -5 -34 -23 1 -28
-11 -8 -19 18 -7 47 16 47 37 0 9 -11 21 -25 26 -30 11 -33 27 -5 32 13 2 17
7 12 16 -7 10 -12 8 -25 -6z"/>
<path d="M3530 1660 c-10 -6 -11 -10 -2 -10 7 0 12 -14 12 -34 0 -19 -6 -37
-12 -39 -7 -3 3 -5 22 -5 19 0 29 2 23 5 -8 3 -13 23 -13 49 0 45 -4 51 -30
34z"/>
<path d="M3623 1663 c23 -6 22 -36 -3 -58 -28 -26 -25 -35 13 -34 23 1 26 3 9
6 l-22 4 21 30 c25 35 19 59 -13 58 -17 -1 -18 -2 -5 -6z"/>
<path d="M3702 1663 c24 -4 26 -7 18 -23 -20 -37 -30 -71 -20 -65 10 6 40 70
40 86 0 5 -15 8 -32 8 -31 -2 -31 -2 -6 -6z"/>
<path d="M3818 1663 c27 -5 28 -23 2 -56 -27 -34 -26 -37 13 -36 27 1 28 2 10
7 -23 7 -23 7 -4 36 24 36 17 56 -18 55 -23 -2 -24 -2 -3 -6z"/>
<path d="M3887 1664 c-11 -11 -8 -82 3 -89 6 -3 19 -3 31 0 17 6 20 14 17 48
-2 33 -7 43 -23 45 -12 2 -24 0 -28 -4z m38 -45 c0 -24 -5 -34 -15 -34 -16 0
-25 37 -16 62 10 26 31 8 31 -28z"/>
<path d="M3964 1656 c-3 -8 -4 -29 -2 -48 2 -25 8 -34 25 -36 30 -4 50 41 34
75 -12 26 -48 31 -57 9z m44 -33 c-3 -43 -31 -54 -36 -15 -5 32 4 52 23 52 13
0 15 -9 13 -37z"/>
<path d="M3766 1574 c-4 -9 -4 -19 -1 -22 2 -3 7 3 11 12 4 9 4 19 1 22 -2 3
-7 -3 -11 -12z"/>
<path d="M2857 1456 c-24 -19 -21 -41 8 -54 14 -6 25 -16 25 -21 0 -13 -30
-22 -43 -14 -7 4 -6 -1 2 -10 13 -16 15 -16 32 -1 26 23 24 42 -6 56 -27 12
-28 34 -1 32 9 -1 16 2 16 7 0 15 -15 17 -33 5z"/>
<path d="M3828 1393 c6 -2 18 -2 25 0 6 3 1 5 -13 5 -14 0 -19 -2 -12 -5z"/>
<path d="M2857 1239 c-24 -14 -21 -36 8 -55 28 -18 25 -34 -7 -34 -17 0 -18
-3 -9 -14 11 -13 15 -12 32 2 26 22 24 32 -8 58 l-28 23 24 9 c14 5 20 11 15
15 -5 3 -17 1 -27 -4z"/>
<path d="M3838 1173 c7 -3 16 -2 19 1 4 3 -2 6 -13 5 -11 0 -14 -3 -6 -6z"/>
<path d="M4217 2362 c-23 -25 -21 -37 8 -56 30 -20 23 -40 -10 -33 -20 3 -22
1 -12 -14 9 -14 13 -15 24 -3 8 8 19 14 24 14 19 0 8 30 -16 46 -30 20 -32 32
-5 36 13 2 17 7 12 16 -7 10 -12 8 -25 -6z"/>
<path d="M4893 2353 c-7 -2 -13 -9 -13 -14 0 -6 5 -7 10 -4 6 4 10 -8 10 -29
0 -19 -6 -37 -12 -39 -7 -3 3 -5 22 -5 19 0 29 2 23 5 -8 3 -13 23 -13 49 0
43 -3 47 -27 37z"/>
<path d="M4962 2348 c-17 -17 -15 -63 4 -79 26 -21 49 1 49 47 0 31 -4 40 -20
42 -11 1 -26 -3 -33 -10z m43 -38 c0 -25 -5 -36 -17 -38 -15 -3 -18 4 -18 38
0 34 3 41 18 38 12 -2 17 -13 17 -38z"/>
<path d="M5044 2346 c-3 -8 -3 -20 1 -26 4 -6 2 -17 -4 -24 -14 -17 10 -39 36
-34 14 3 18 13 18 48 0 39 -3 45 -23 48 -13 2 -25 -3 -28 -12z m37 -11 c-1
-15 -24 -12 -29 3 -3 9 2 13 12 10 10 -1 17 -7 17 -13z m9 -51 c0 -8 -9 -14
-20 -14 -19 0 -27 19 -14 33 10 9 34 -4 34 -19z"/>
<path d="M5173 2353 c-7 -2 -13 -9 -13 -14 0 -6 5 -7 10 -4 6 4 10 -8 10 -29
0 -19 -6 -37 -12 -39 -7 -3 3 -5 22 -5 19 0 29 2 23 5 -8 3 -13 23 -13 49 0
43 -3 47 -27 37z"/>
<path d="M5242 2348 c-17 -17 -15 -63 4 -79 26 -21 49 1 49 47 0 31 -4 40 -20
42 -11 1 -26 -3 -33 -10z m43 -38 c0 -25 -5 -36 -17 -38 -15 -3 -18 4 -18 38
0 34 3 41 18 38 12 -2 17 -13 17 -38z"/>
<path d="M5320 2336 c-14 -38 3 -78 33 -74 19 3 22 9 22 48 0 39 -3 45 -22 48
-17 3 -26 -3 -33 -22z m45 -27 c0 -24 -5 -34 -15 -34 -16 0 -25 37 -16 62 10
26 31 8 31 -28z"/>
<path d="M5127 2273 c-4 -3 -7 -13 -7 -22 1 -13 3 -13 11 2 11 19 8 33 -4 20z"/>
<path d="M4217 1672 c-22 -24 -21 -39 3 -52 30 -16 26 -44 -5 -38 -21 4 -23 3
-14 -9 10 -11 15 -11 33 0 31 21 32 45 2 57 -31 11 -34 27 -6 32 13 2 17 7 12
16 -7 10 -12 8 -25 -6z"/>
<path d="M4885 1660 c-3 -5 -1 -10 4 -10 15 0 14 -67 -1 -73 -7 -3 3 -5 22 -5
19 0 29 2 23 5 -8 3 -13 23 -13 49 0 32 -4 44 -14 44 -8 0 -18 -4 -21 -10z"/>
<path d="M4978 1663 c27 -5 28 -23 2 -56 -27 -34 -26 -37 13 -36 23 1 26 3 10
6 -27 5 -29 16 -8 33 8 7 15 23 15 36 0 20 -5 24 -27 23 -24 -2 -25 -2 -5 -6z"/>
<path d="M5058 1663 c26 -5 27 -14 6 -54 -8 -17 -13 -33 -10 -36 5 -5 46 79
46 93 0 2 -15 3 -32 3 -24 -1 -27 -3 -10 -6z"/>
<path d="M5178 1663 c27 -6 28 -23 2 -56 -27 -34 -26 -37 13 -36 23 1 26 3 10
6 -27 5 -29 16 -8 33 24 20 15 55 -15 57 -22 1 -22 1 -2 -4z"/>
<path d="M5242 1658 c-16 -16 -15 -50 2 -74 23 -30 51 -7 51 42 0 31 -4 40
-20 42 -11 1 -26 -3 -33 -10z m43 -38 c0 -51 -29 -48 -33 3 -3 33 -1 38 15 35
13 -2 18 -12 18 -38z"/>
<path d="M5320 1646 c-6 -17 -6 -35 0 -51 19 -49 64 -20 58 37 -4 44 -43 53
-58 14z m45 -26 c0 -51 -29 -48 -33 3 -3 33 -1 38 15 35 13 -2 18 -12 18 -38z"/>
<path d="M5120 1568 c0 -19 2 -20 10 -8 13 19 13 30 0 30 -5 0 -10 -10 -10
-22z"/>
<path d="M4218 1456 c-26 -19 -22 -45 8 -56 22 -9 24 -13 14 -25 -8 -10 -21
-13 -33 -9 -17 5 -18 4 -6 -9 12 -13 17 -13 34 -3 30 20 30 44 0 56 -28 11
-29 36 -2 34 9 -1 13 4 10 12 -6 17 -4 17 -25 0z"/>
<path d="M5188 1393 c6 -2 18 -2 25 0 6 3 1 5 -13 5 -14 0 -19 -2 -12 -5z"/>
<path d="M4217 1239 c-25 -15 -21 -44 9 -57 28 -13 24 -32 -6 -32 -13 0 -17
-5 -14 -15 5 -12 9 -12 30 2 31 20 31 40 -1 55 -31 14 -32 36 -2 40 12 2 17 6
12 10 -6 3 -18 2 -28 -3z"/>
<path d="M5188 1173 c7 -3 16 -2 19 1 4 3 -2 6 -13 5 -11 0 -14 -3 -6 -6z"/>
<path d="M5567 2355 c-21 -15 -13 -41 14 -48 10 -3 19 -13 19 -22 0 -13 -6
-16 -24 -13 -21 4 -23 2 -13 -12 10 -16 12 -16 35 6 22 19 23 25 13 38 -8 9
-20 16 -27 16 -23 0 -16 28 9 32 17 2 18 5 7 9 -9 4 -24 1 -33 -6z"/>
<path d="M6548 2303 c7 -3 16 -2 19 1 4 3 -2 6 -13 5 -11 0 -14 -3 -6 -6z"/>
<path d="M5564 1665 c-19 -15 -18 -16 9 -38 35 -29 36 -51 2 -45 -20 4 -23 3
-14 -8 8 -10 16 -11 29 -4 33 17 34 32 7 55 -32 25 -34 35 -6 35 11 0 17 5 14
10 -8 14 -18 13 -41 -5z"/>
<path d="M6548 1613 c7 -3 16 -2 19 1 4 3 -2 6 -13 5 -11 0 -14 -3 -6 -6z"/>
<path d="M5564 1449 c-19 -21 -19 -21 10 -44 32 -25 27 -50 -7 -39 -19 6 -20
5 -9 -9 13 -15 16 -15 38 0 13 8 24 18 24 22 0 12 -15 28 -32 34 -26 9 -23 41
3 34 16 -4 18 -3 8 9 -14 18 -12 18 -35 -7z"/>
<path d="M6548 1393 c7 -3 16 -2 19 1 4 3 -2 6 -13 5 -11 0 -14 -3 -6 -6z"/>
<path d="M5565 1230 c-15 -16 -15 -22 -5 -35 7 -8 19 -15 26 -15 8 0 14 -7 14
-16 0 -12 -7 -15 -25 -12 -28 6 -30 3 -13 -16 10 -10 16 -9 35 8 29 25 29 34
-2 46 -31 12 -35 45 -5 37 23 -6 28 8 6 16 -8 3 -22 -3 -31 -13z"/>
<path d="M6548 1173 c7 -3 16 -2 19 1 4 3 -2 6 -13 5 -11 0 -14 -3 -6 -6z"/>
<path d="M6928 2360 c-25 -23 -22 -38 7 -52 30 -13 27 -33 -4 -32 -24 1 -26
-2 -9 -20 10 -10 15 -10 30 3 24 20 23 48 -2 56 -23 7 -27 32 -5 37 8 2 11 8
7 14 -5 8 -12 6 -24 -6z"/>
<path d="M7908 2303 c7 -3 16 -2 19 1 4 3 -2 6 -13 5 -11 0 -14 -3 -6 -6z"/>
<path d="M6927 1670 c-24 -23 -21 -35 9 -49 30 -13 27 -36 -4 -35 -17 0 -19
-2 -11 -13 8 -9 16 -10 30 -2 25 13 25 49 -1 56 -25 7 -26 31 -1 35 14 2 16 6
7 14 -8 7 -16 6 -29 -6z"/>
<path d="M7908 1613 c7 -3 16 -2 19 1 4 3 -2 6 -13 5 -11 0 -14 -3 -6 -6z"/>
<path d="M2858 1020 c-25 -23 -22 -38 7 -52 30 -13 27 -33 -4 -32 -23 1 -29
-12 -8 -19 20 -7 47 12 47 33 0 11 -4 20 -8 20 -5 0 -17 6 -28 14 -19 14 -19
15 3 23 13 5 19 13 15 19 -5 8 -13 6 -24 -6z"/>
<path d="M3529 1003 c-10 -11 -10 -14 -1 -9 9 5 12 -2 12 -28 0 -19 -6 -37
-12 -39 -7 -3 3 -5 22 -5 19 0 29 2 23 5 -8 3 -13 23 -13 49 0 47 -9 55 -31
27z"/>
<path d="M3606 1011 c-4 -5 3 -7 14 -4 27 7 27 -27 0 -52 -28 -26 -25 -35 13
-34 23 1 26 3 10 6 l-23 4 21 28 c12 16 17 34 13 44 -7 18 -39 23 -48 8z"/>
<path d="M3702 1013 c24 -4 26 -7 18 -23 -19 -36 -29 -70 -21 -70 7 0 41 76
41 93 0 4 -15 6 -32 6 -31 -2 -31 -2 -6 -6z"/>
<path d="M3823 1013 c23 -6 22 -36 -3 -58 -28 -26 -25 -35 13 -34 29 1 30 2 7
8 -18 5 -21 9 -12 15 35 22 30 77 -7 75 -13 -1 -13 -2 2 -6z"/>
<path d="M3884 1007 c-3 -8 -4 -30 -2 -49 2 -28 7 -33 28 -33 23 0 25 4 25 45
0 39 -3 45 -23 48 -13 2 -24 -3 -28 -11z m41 -38 c0 -24 -5 -34 -15 -34 -16 0
-25 37 -16 62 10 26 31 8 31 -28z"/>
<path d="M3964 1006 c-3 -8 -4 -29 -2 -48 2 -25 8 -34 25 -36 30 -4 50 41 34
75 -12 26 -48 31 -57 9z m44 -33 c-3 -43 -31 -54 -36 -15 -5 32 4 52 23 52 13
0 15 -9 13 -37z"/>
<path d="M3766 924 c-4 -9 -4 -19 -1 -22 2 -3 7 3 11 12 4 9 4 19 1 22 -2 3
-7 -3 -11 -12z"/>
<path d="M4217 1022 c-23 -25 -21 -37 8 -56 30 -20 23 -40 -10 -33 -20 3 -22
1 -12 -14 9 -14 13 -15 24 -3 8 8 19 14 24 14 19 0 8 30 -16 46 -30 20 -32 32
-5 36 13 2 17 7 12 16 -7 10 -12 8 -25 -6z"/>
<path d="M4893 1013 c-7 -2 -13 -9 -13 -14 0 -6 5 -7 10 -4 6 4 10 -8 10 -29
0 -19 -6 -37 -12 -39 -7 -3 3 -5 22 -5 19 0 29 2 23 5 -8 3 -13 23 -13 49 0
43 -3 47 -27 37z"/>
<path d="M4978 1013 c27 -5 28 -23 2 -56 -27 -34 -26 -37 13 -36 23 1 26 3 9
6 -22 4 -22 5 -6 33 21 34 12 60 -18 59 l-23 -2 23 -4z"/>
<path d="M5062 1013 l28 -4 -21 -41 c-11 -22 -18 -42 -15 -45 5 -6 46 70 46
87 0 5 -15 9 -32 9 -31 -2 -31 -2 -6 -6z"/>
<path d="M5178 1010 c28 -12 28 -22 -4 -59 l-26 -31 39 1 c23 1 29 3 16 6 -27
5 -29 16 -8 33 24 20 15 55 -15 57 -25 3 -25 3 -2 -7z"/>
<path d="M5242 1008 c-17 -17 -15 -63 4 -79 26 -21 49 1 49 47 0 31 -4 40 -20
42 -11 1 -26 -3 -33 -10z m43 -38 c0 -25 -5 -36 -17 -38 -15 -3 -18 4 -18 38
0 34 3 41 18 38 12 -2 17 -13 17 -38z"/>
<path d="M5320 996 c-14 -38 3 -78 33 -74 19 3 22 9 22 48 0 39 -3 45 -22 48
-17 3 -26 -3 -33 -22z m45 -27 c0 -24 -5 -34 -15 -34 -16 0 -25 37 -16 62 10
26 31 8 31 -28z"/>
<path d="M5127 933 c-4 -3 -7 -13 -7 -22 1 -13 3 -13 11 2 11 19 8 33 -4 20z"/>
<path d="M5565 1013 c-20 -14 -19 -15 8 -37 34 -28 36 -50 3 -44 -21 4 -23 2
-13 -12 10 -16 12 -16 35 6 22 19 23 25 13 38 -8 9 -20 16 -27 16 -23 0 -16
28 9 32 17 2 18 5 7 9 -9 4 -25 0 -35 -8z"/>
<path d="M6548 963 c7 -3 16 -2 19 1 4 3 -2 6 -13 5 -11 0 -14 -3 -6 -6z"/>
<path d="M6928 1020 c-25 -23 -22 -38 7 -52 30 -13 27 -33 -4 -32 -24 1 -26
-2 -9 -20 10 -10 15 -10 30 3 24 20 23 48 -2 56 -23 7 -27 32 -5 37 8 2 11 8
7 14 -5 8 -12 6 -24 -6z"/>
<path d="M7908 963 c7 -3 16 -2 19 1 4 3 -2 6 -13 5 -11 0 -14 -3 -6 -6z"/>
<path d="M2866 562 c-22 -25 -20 -49 4 -57 27 -9 25 -23 -4 -27 -22 -3 -23 -5
-11 -21 13 -18 14 -18 34 0 27 22 27 50 1 58 -11 3 -20 11 -20 17 0 6 9 8 20
5 23 -6 25 1 6 25 -12 17 -14 17 -30 0z"/>
<path d="M3507 554 c-14 -14 -7 -22 16 -17 20 4 21 3 5 -10 -22 -17 -23 -27
-3 -27 8 0 15 -4 15 -10 0 -5 -9 -10 -20 -10 -11 0 -20 -5 -20 -11 0 -6 12 -9
28 -7 25 3 27 6 27 48 0 38 -3 45 -20 48 -12 2 -24 0 -28 -4z"/>
<path d="M3580 534 c0 -17 6 -28 20 -31 27 -7 25 -21 -2 -26 -20 -3 -21 -4 -5
-11 25 -12 47 0 47 25 0 12 -8 23 -20 26 -11 3 -20 9 -20 14 0 5 9 9 20 9 11
0 20 5 20 10 0 6 -13 10 -30 10 -26 0 -30 -4 -30 -26z"/>
<path d="M3667 554 c-13 -14 -7 -22 13 -17 11 3 20 0 20 -6 0 -6 -7 -11 -15
-11 -8 0 -15 -4 -15 -10 0 -5 7 -10 15 -10 8 0 15 -4 15 -10 0 -5 -9 -10 -21
-10 -11 0 -17 -4 -14 -10 9 -15 41 -12 55 5 6 8 8 20 4 27 -5 7 -8 22 -9 33 0
20 -34 33 -48 19z"/>
<path d="M3800 528 c-25 -41 -25 -48 -2 -48 10 0 23 -5 28 -10 8 -8 15 -6 23
4 8 10 9 16 1 21 -5 3 -10 19 -10 36 0 38 -15 37 -40 -3z m30 -18 c0 -5 -7
-10 -16 -10 -8 0 -12 5 -9 10 3 6 10 10 16 10 5 0 9 -4 9 -10z"/>
<path d="M3870 550 c0 -5 9 -10 20 -10 23 0 24 -6 5 -40 -17 -30 -18 -40 -5
-40 10 0 40 63 40 86 0 9 -11 14 -30 14 -16 0 -30 -4 -30 -10z"/>
<path d="M3968 538 c-29 -45 -29 -58 -4 -58 14 0 27 -6 29 -12 10 -25 23 10
19 52 -5 45 -22 52 -44 18z m18 -35 c-10 -10 -19 5 -10 18 6 11 8 11 12 0 2
-7 1 -15 -2 -18z"/>
<path d="M3750 483 c0 -6 -3 -20 -6 -30 -7 -17 -6 -17 12 -1 14 14 16 21 6 30
-8 8 -12 9 -12 1z"/>
<path d="M4219 554 l-24 -26 30 -24 30 -24 -28 0 c-24 0 -26 -2 -15 -19 11
-18 13 -18 35 -3 30 22 29 36 -4 61 -27 20 -27 20 -5 21 23 0 27 7 14 28 -6 9
-15 5 -33 -14z"/>
<path d="M4865 551 c-3 -6 1 -11 9 -11 22 0 20 -17 -1 -23 -15 -4 -15 -6 5
-12 30 -10 28 -25 -5 -25 -20 0 -24 -3 -16 -11 7 -7 23 -9 37 -5 23 6 25 11
23 49 -2 34 -7 43 -24 45 -12 2 -24 -2 -28 -7z"/>
<path d="M4940 534 c0 -17 6 -28 20 -31 11 -3 20 -9 20 -14 0 -5 -9 -9 -20 -9
-11 0 -20 -4 -20 -10 0 -11 20 -13 44 -4 23 9 20 45 -4 51 -23 6 -27 23 -5 23
8 0 15 5 15 10 0 6 -11 10 -25 10 -20 0 -25 -5 -25 -26z"/>
<path d="M5027 554 c-14 -14 -7 -22 16 -17 20 4 21 3 5 -10 -22 -17 -23 -27
-3 -27 8 0 15 -4 15 -10 0 -5 -9 -10 -20 -10 -11 0 -20 -5 -20 -11 0 -6 12 -9
28 -7 25 3 27 6 27 48 0 38 -3 45 -20 48 -12 2 -24 0 -28 -4z"/>
<path d="M5158 529 c-23 -39 -23 -49 1 -49 11 0 21 -6 23 -12 3 -9 9 -8 21 4
11 10 13 19 7 23 -5 3 -10 19 -10 36 0 38 -20 37 -42 -2z m22 -14 c0 -8 -4
-15 -10 -15 -5 0 -7 7 -4 15 4 8 8 15 10 15 2 0 4 -7 4 -15z"/>
<path d="M5230 550 c0 -5 9 -10 20 -10 l20 0 -20 -40 c-15 -30 -17 -40 -7 -40
14 0 47 60 47 85 0 10 -10 15 -30 15 -16 0 -30 -4 -30 -10z"/>
<path d="M5320 528 c-25 -41 -25 -48 -2 -48 10 0 23 -5 28 -10 8 -8 15 -6 23
4 8 10 9 16 1 21 -5 3 -10 19 -10 36 0 38 -15 37 -40 -3z m30 -13 c0 -8 -7
-15 -16 -15 -14 0 -14 3 -4 15 7 8 14 15 16 15 2 0 4 -7 4 -15z"/>
<path d="M5105 469 c-9 -28 1 -36 14 -10 7 12 7 22 2 26 -5 3 -13 -4 -16 -16z"/>
<path d="M5578 561 c-25 -24 -23 -36 10 -60 l27 -20 -28 -1 c-25 0 -26 -2 -15
-20 12 -19 13 -19 38 5 l25 25 -30 26 c-27 23 -28 25 -7 21 25 -6 28 2 10 25
-12 15 -15 15 -30 -1z"/>
<path d="M6538 503 c6 -2 18 -2 25 0 6 3 1 5 -13 5 -14 0 -19 -2 -12 -5z"/>
<path d="M6938 560 c-24 -22 -23 -47 2 -55 11 -3 20 -11 20 -16 0 -5 -9 -9
-20 -9 -23 0 -25 -6 -8 -24 10 -10 15 -10 30 3 24 20 23 48 -2 56 -11 3 -20
11 -20 17 0 6 9 8 20 5 23 -6 25 1 7 24 -11 14 -14 14 -29 -1z"/>
<path d="M7888 503 c6 -2 18 -2 25 0 6 3 1 5 -13 5 -14 0 -19 -2 -12 -5z"/>
<path d="M931 4570 c0 -63 15 -84 21 -27 4 44 31 43 40 -3 l6 -35 -1 40 c-2
35 -5 40 -24 39 -18 0 -23 5 -23 23 0 13 -4 23 -9 23 -5 0 -10 -27 -10 -60z"/>
<path d="M857 4613 c-15 -14 -6 -40 18 -53 30 -16 28 -32 -6 -42 -22 -6 -21
-7 6 -5 40 3 46 37 11 61 -32 20 -33 33 -3 39 20 4 20 4 1 6 -11 0 -24 -2 -27
-6z"/>
<path d="M1329 4603 c-1 -10 -1 -26 0 -35 1 -10 -2 -18 -7 -18 -6 0 -8 -9 -5
-20 6 -23 23 -27 23 -5 0 21 18 19 23 -2 4 -17 5 -17 6 0 0 9 5 17 9 17 5 0 7
16 5 36 -2 37 -13 61 -13 31 0 -9 -7 -17 -15 -17 -9 0 -12 6 -9 15 4 8 1 15
-5 15 -6 0 -12 -8 -12 -17z m39 -35 c-6 -18 -28 -21 -28 -4 0 9 7 16 16 16 9
0 14 -5 12 -12z"/>
<path d="M1425 4610 c-3 -5 -1 -10 4 -10 15 0 14 -77 -1 -83 -7 -3 3 -5 22 -5
19 0 28 2 20 4 -11 4 -14 16 -12 54 3 40 1 50 -11 50 -9 0 -19 -4 -22 -10z"/>
<path d="M1561 4579 c-7 -23 -15 -48 -18 -58 -5 -13 -3 -14 8 -3 17 15 51 16
67 0 16 -16 15 -1 -4 55 -9 26 -21 47 -28 47 -7 0 -18 -18 -25 -41z m39 -21
c0 -10 -7 -18 -15 -18 -16 0 -19 17 -9 45 5 13 8 14 15 3 5 -7 9 -21 9 -30z"/>
<path d="M1218 4599 c-2 -6 -2 -28 0 -50 3 -28 9 -39 21 -38 10 0 11 2 4 6
-15 5 -18 60 -4 65 5 2 3 8 -4 15 -9 8 -15 9 -17 2z"/>
<path d="M2091 4590 c-9 -5 -10 -10 -2 -14 6 -4 11 -20 11 -37 0 -21 5 -29 18
-28 10 0 12 3 5 6 -16 6 -17 60 -1 65 8 3 7 6 -3 10 -9 3 -22 3 -28 -2z"/>
<path d="M1040 4576 c-6 -8 -10 -25 -8 -38 2 -18 10 -23 33 -25 18 -1 22 1 10
4 -36 9 -40 23 -7 23 33 0 42 16 20 38 -16 16 -33 15 -48 -2z m44 -11 c4 -11
-1 -15 -19 -15 -18 0 -23 4 -19 15 4 8 12 15 19 15 7 0 15 -7 19 -15z"/>
<path d="M1130 4576 c-6 -8 -10 -25 -8 -38 2 -18 10 -23 33 -25 18 -1 22 1 10
4 -36 9 -40 23 -7 23 33 0 42 16 20 38 -16 16 -33 15 -48 -2z m48 -13 c2 -8
-6 -13 -22 -13 -19 0 -24 4 -19 15 6 18 34 16 41 -2z"/>
<path d="M1660 4576 c-6 -8 -10 -25 -8 -38 2 -18 10 -23 33 -25 21 -1 23 0 7
4 -18 4 -23 10 -20 31 2 18 9 27 20 26 10 -1 15 2 12 7 -8 14 -30 11 -44 -5z"/>
<path d="M1730 4564 c-13 -32 2 -54 36 -54 13 0 24 -4 24 -10 0 -6 -167 -11
-477 -12 l-478 -3 475 -5 c261 -3 610 -3 775 0 l300 5 -292 3 -293 2 0 48 c0
46 -1 48 -30 50 -25 2 -32 -3 -40 -24z m50 1 c16 -20 5 -45 -20 -45 -14 0 -20
7 -20 23 0 38 18 48 40 22z"/>
<path d="M1833 4555 c2 -37 4 -40 35 -43 31 -3 32 -3 32 38 0 25 -4 39 -10 35
-5 -3 -10 -20 -10 -36 0 -44 -33 -35 -42 11 l-6 35 1 -40z"/>
<path d="M1933 4550 c0 -25 2 -35 4 -22 2 12 2 32 0 45 -2 12 -4 2 -4 -23z"/>
<path d="M1974 4575 c-7 -18 3 -35 22 -35 23 0 16 -18 -8 -23 -20 -4 -19 -4 5
-6 33 -1 37 23 7 39 -23 12 -17 35 7 26 8 -3 11 -1 8 4 -9 15 -35 12 -41 -5z"/>
<path d="M2053 4550 c0 -25 2 -35 4 -22 2 12 2 32 0 45 -2 12 -4 2 -4 -23z"/>
<path d="M2163 4550 c0 -25 2 -35 4 -22 2 12 2 32 0 45 -2 12 -4 2 -4 -23z"/>
<path d="M2206 4574 c-19 -18 -19 -20 -6 -45 13 -23 52 -25 70 -4 10 12 10 21
2 40 -13 29 -43 33 -66 9z m52 -27 c3 -22 -1 -27 -18 -27 -23 0 -35 22 -26 46
10 25 41 12 44 -19z"/>
<path d="M2301 4545 c2 -28 3 -32 6 -13 5 31 30 56 43 42 4 -5 11 -22 13 -39
3 -22 4 -19 3 10 -1 38 -3 40 -33 40 -32 1 -33 0 -32 -40z"/>
<path d="M851 4338 c1 -29 3 -46 5 -38 3 9 15 20 27 25 14 7 22 19 22 35 0 20
-6 26 -27 28 -28 3 -28 2 -27 -50z m46 27 c5 -16 -14 -38 -26 -31 -18 12 -13
48 6 44 9 -2 18 -7 20 -13z"/>
<path d="M1465 4370 c-28 -31 -10 -74 30 -77 28 -2 28 -1 5 5 -20 7 -25 14
-25 42 0 31 3 35 27 35 14 -1 24 3 22 7 -9 15 -41 8 -59 -12z"/>
<path d="M1300 4370 c0 -5 -13 -10 -30 -10 -28 0 -30 -2 -29 -37 1 -37 2 -37
8 -8 4 21 13 31 29 33 19 3 22 -1 22 -27 0 -23 4 -31 18 -30 10 0 12 3 5 6
-15 5 -18 50 -4 55 5 2 3 9 -5 16 -8 7 -14 8 -14 2z"/>
<path d="M1698 4368 c-7 -20 6 -71 18 -75 7 -2 9 8 6 27 -3 19 0 30 8 30 7 0
6 5 -4 15 -18 18 -23 19 -28 3z"/>
<path d="M931 4323 c1 -38 1 -38 9 -9 5 16 15 33 22 37 9 6 6 9 -9 9 -20 0
-23 -5 -22 -37z"/>
<path d="M989 4344 c-16 -20 -1 -48 29 -52 27 -4 49 33 31 54 -15 19 -43 18
-60 -2z m51 -19 c0 -18 -5 -25 -19 -25 -11 0 -21 6 -24 13 -7 20 4 37 24 37
14 0 19 -7 19 -25z"/>
<path d="M1081 4305 c1 -27 3 -42 6 -32 2 9 13 17 24 17 11 0 21 9 25 24 8 33
-2 46 -31 44 -23 -2 -25 -6 -24 -53z m44 19 c0 -10 -8 -20 -17 -22 -18 -3 -26
27 -11 42 12 11 28 0 28 -20z"/>
<path d="M1160 4345 c-18 -22 -1 -49 31 -52 23 -1 23 -1 2 4 -13 2 -23 8 -23
13 0 5 10 10 23 12 12 2 22 10 22 18 0 21 -39 24 -55 5z m40 -5 c0 -5 -7 -10
-15 -10 -8 0 -15 5 -15 10 0 6 7 10 15 10 8 0 15 -4 15 -10z"/>
<path d="M1340 4358 c1 -2 7 -25 14 -52 l12 -48 22 51 c11 28 17 51 12 51 -4
0 -13 -12 -18 -27 l-10 -28 -11 28 c-6 15 -13 27 -16 27 -3 0 -5 -1 -5 -2z"/>
<path d="M1549 4344 c-17 -21 0 -49 31 -49 31 0 48 28 31 49 -8 9 -21 16 -31
16 -10 0 -23 -7 -31 -16z m51 -19 c0 -18 -5 -25 -19 -25 -11 0 -21 6 -24 13
-7 20 4 37 24 37 14 0 19 -7 19 -25z"/>
<path d="M1635 4349 c-4 -6 3 -18 16 -27 21 -15 22 -16 3 -23 -16 -6 -16 -8
-2 -8 26 -1 33 20 12 36 -16 12 -17 15 -4 23 13 8 13 10 -2 10 -9 0 -20 -5
-23 -11z"/>
<path d="M1754 4349 c-4 -7 4 -20 17 -30 l24 -19 -25 -1 c-19 -1 -20 -2 -6 -6
10 -3 23 0 30 7 8 8 5 16 -13 29 -23 18 -23 19 -5 24 15 4 16 5 2 6 -9 0 -20
-4 -24 -10z"/>
<path d="M1130 4160 c0 -13 -7 -20 -19 -20 -26 0 -34 -15 -27 -45 5 -19 12
-24 31 -23 23 2 25 6 25 55 0 29 -2 53 -5 53 -3 0 -5 -9 -5 -20z m0 -49 c0
-11 -5 -23 -11 -27 -15 -9 -33 12 -26 30 9 23 37 20 37 -3z"/>
<path d="M1473 4125 c0 -33 2 -45 4 -27 2 18 2 45 0 60 -2 15 -4 0 -4 -33z"/>
<path d="M850 4120 c0 -27 5 -50 10 -50 6 0 10 23 10 50 0 28 -4 50 -10 50 -5
0 -10 -22 -10 -50z"/>
<path d="M1545 4154 c-18 -18 -13 -63 8 -76 16 -10 45 -10 51 0 2 4 -8 8 -22
7 -24 0 -27 4 -27 35 0 31 3 35 27 35 14 -1 24 3 22 7 -9 14 -42 9 -59 -8z"/>
<path d="M1332 4118 c2 -23 8 -43 13 -45 8 -2 11 30 6 80 -1 4 -6 7 -12 7 -6
0 -9 -17 -7 -42z"/>
<path d="M1788 4154 c-3 -5 -3 -26 -1 -46 4 -27 10 -38 22 -38 13 0 13 2 2 9
-8 5 -12 19 -9 34 5 26 -6 56 -14 41z"/>
<path d="M896 4110 c1 -41 14 -51 14 -12 0 44 27 43 33 0 4 -32 4 -32 5 5 2
34 0 37 -25 37 -25 0 -28 -4 -27 -30z"/>
<path d="M975 4120 c-11 -33 32 -68 49 -41 4 5 -3 7 -14 4 -19 -5 -21 -2 -24
29 -1 7 10 15 24 19 l25 7 -27 1 c-19 1 -29 -5 -33 -19z"/>
<path d="M1053 4105 c0 -22 2 -30 4 -17 2 12 2 30 0 40 -3 9 -5 -1 -4 -23z"/>
<path d="M1163 4124 c-12 -33 35 -70 59 -46 6 6 0 8 -16 5 -19 -4 -26 -1 -26
11 0 11 9 16 26 16 34 0 26 24 -9 28 -18 2 -29 -2 -34 -14z m44 0 c-3 -3 -12
-4 -19 -1 -8 3 -5 6 6 6 11 1 17 -2 13 -5z"/>
<path d="M1252 4103 c1 -37 1 -37 5 -5 6 42 33 44 33 2 0 -16 5 -30 11 -30 6
0 9 14 7 33 -2 27 -8 33 -30 35 -26 3 -28 1 -26 -35z"/>
<path d="M1410 4131 l25 -8 -25 -4 c-37 -6 -34 -43 3 -47 27 -3 28 -1 25 30
-2 27 -7 33 -28 35 l-25 2 25 -8z m15 -30 c7 -12 -12 -24 -25 -16 -11 7 -4 25
10 25 5 0 11 -4 15 -9z"/>
<path d="M1629 4124 c-17 -21 0 -49 31 -49 27 0 46 25 37 49 -8 21 -51 21 -68
0z m55 -3 c10 -16 -6 -42 -23 -39 -9 2 -17 13 -19 26 -3 16 2 22 17 22 11 0
22 -4 25 -9z"/>
<path d="M1715 4130 c-3 -5 3 -15 15 -22 25 -16 25 -25 3 -31 -17 -4 -17 -5 0
-6 26 -2 34 29 11 42 -17 10 -17 11 1 18 19 7 19 8 -2 8 -12 1 -25 -3 -28 -9z"/>
<path d="M1835 4130 c-3 -5 3 -15 15 -22 26 -16 26 -32 0 -25 -11 3 -18 1 -14
-4 9 -15 34 -10 41 7 4 10 -1 20 -12 26 -14 8 -15 12 -4 19 11 7 11 9 -3 9 -9
0 -20 -4 -23 -10z"/>
<path d="M992 3948 c-1 -9 -12 -18 -24 -20 -19 -2 -23 -9 -23 -38 0 -31 3 -35
24 -32 33 3 33 3 28 58 -2 27 -4 41 -5 32z m-8 -45 c4 -9 0 -23 -8 -32 -14
-13 -16 -13 -22 2 -7 20 1 47 15 47 5 0 12 -8 15 -17z"/>
<path d="M857 3905 c-9 -25 -12 -45 -6 -45 5 0 9 5 9 10 0 17 42 11 57 -7 10
-13 13 -14 9 -3 -2 8 -10 32 -17 53 -16 49 -34 47 -52 -8z m42 -7 c1 -5 -6 -8
-14 -8 -16 0 -19 9 -8 36 6 16 7 16 14 -2 4 -10 8 -22 8 -26z"/>
<path d="M1840 3931 c-15 -28 -12 -46 8 -64 20 -19 48 -22 56 -8 4 5 -2 7 -12
4 -24 -6 -44 19 -40 49 2 14 12 25 28 29 l25 7 -27 1 c-17 1 -31 -6 -38 -18z"/>
<path d="M1368 3934 c-10 -10 8 -78 22 -82 12 -4 13 -2 3 9 -16 17 -17 56 -1
61 8 3 6 6 -4 10 -9 4 -18 5 -20 2z"/>
<path d="M1558 3934 c-10 -10 8 -78 22 -82 12 -4 13 -2 3 9 -16 17 -17 56 -1
61 8 3 6 6 -4 10 -9 4 -18 5 -20 2z"/>
<path d="M2078 3934 c-4 -3 -5 -11 -3 -17 2 -7 6 -24 9 -39 9 -42 21 -33 20
14 -1 39 -12 57 -26 42z"/>
<path d="M1059 3917 c6 -6 12 -22 12 -36 1 -25 2 -25 8 3 9 41 31 46 31 7 0
-17 5 -31 10 -31 14 0 12 47 -2 57 -21 13 -72 13 -59 0z"/>
<path d="M1153 3895 c0 -22 2 -30 4 -17 2 12 2 30 0 40 -3 9 -5 -1 -4 -23z"/>
<path d="M1198 3923 c-12 -3 -18 -14 -18 -34 0 -37 18 -38 22 -1 4 36 21 34
30 -4 6 -28 6 -28 5 5 -2 36 -9 42 -39 34z"/>
<path d="M1273 3895 c0 -22 2 -30 4 -17 2 12 2 30 0 40 -3 9 -5 -1 -4 -23z"/>
<path d="M1303 3914 c-4 -10 0 -20 10 -26 23 -12 22 -32 0 -23 -14 5 -15 4 -6
-6 10 -10 16 -9 29 2 15 12 14 15 -6 31 -20 16 -19 23 3 19 5 -1 6 3 2 9 -9
15 -25 12 -32 -6z"/>
<path d="M1433 3923 c-7 -2 -13 -19 -12 -36 l1 -32 8 29 c5 16 15 33 22 37 14
9 1 11 -19 2z"/>
<path d="M1485 3921 c-3 -6 0 -8 8 -5 8 3 18 1 22 -5 3 -7 -2 -11 -15 -11 -24
0 -38 -26 -22 -42 5 -5 20 -7 32 -3 17 5 21 13 18 38 -3 32 -29 49 -43 28z
m35 -40 c0 -14 -18 -23 -30 -16 -6 4 -8 11 -5 16 8 12 35 12 35 0z"/>
<path d="M1613 3895 c0 -22 2 -30 4 -17 2 12 2 30 0 40 -3 9 -5 -1 -4 -23z"/>
<path d="M1641 3924 c-2 -18 20 -74 29 -74 4 0 13 14 19 31 15 43 13 51 -4 14
l-13 -30 -15 35 c-9 19 -16 30 -16 24z"/>
<path d="M1720 3911 c-13 -26 3 -61 28 -61 16 1 16 1 0 11 -26 15 -22 29 8 29
19 0 25 5 22 18 -5 25 -44 27 -58 3z m45 -1 c3 -5 -3 -10 -14 -10 -12 0 -21 5
-21 10 0 6 6 10 14 10 8 0 18 -4 21 -10z"/>
<path d="M1928 3905 c-13 -29 3 -55 33 -55 27 0 46 44 29 65 -19 23 -49 18
-62 -10z m50 -9 c2 -10 -1 -23 -8 -30 -17 -17 -44 22 -28 41 14 17 32 12 36
-11z"/>
<path d="M2014 3919 c-4 -7 3 -19 16 -29 15 -11 19 -19 11 -24 -6 -4 -16 -4
-23 0 -7 4 -8 3 -4 -4 10 -17 36 -15 43 4 4 10 0 20 -10 26 -21 11 -22 32 -1
24 8 -3 12 -2 9 4 -8 13 -32 13 -41 -1z"/>
<path d="M2134 3918 c-4 -6 2 -19 15 -29 22 -18 13 -37 -11 -23 -10 5 -10 4
-1 -6 14 -15 43 -6 43 14 0 8 -10 18 -22 22 -21 6 -21 7 -3 20 16 12 16 14 3
14 -9 0 -20 -5 -24 -12z"/>
<path d="M1020 3890 c0 -16 5 -30 10 -30 6 0 10 14 10 30 0 17 -4 30 -10 30
-5 0 -10 -13 -10 -30z"/>
<path d="M1020 3727 c0 -7 -10 -17 -22 -22 -15 -7 -23 -19 -23 -35 0 -21 5
-26 33 -28 l32 -3 0 50 c0 28 -4 51 -10 51 -5 0 -10 -6 -10 -13z m0 -52 c0
-15 -6 -25 -14 -25 -19 0 -28 14 -20 34 10 25 34 19 34 -9z"/>
<path d="M1406 3724 c-19 -18 -21 -55 -4 -72 7 -7 23 -11 38 -11 23 2 23 2 2
6 -30 6 -46 37 -31 64 7 14 17 19 30 16 10 -3 17 -1 13 4 -8 14 -31 11 -48 -7z"/>
<path d="M850 3685 c0 -25 5 -45 10 -45 6 0 10 20 10 45 0 25 -4 45 -10 45 -5
0 -10 -20 -10 -45z"/>
<path d="M1302 3713 c-8 -8 -9 -13 -2 -13 5 0 10 -13 10 -30 0 -16 4 -30 9
-30 4 0 6 12 3 26 -2 14 0 29 6 33 6 4 6 10 -2 17 -9 8 -15 7 -24 -3z"/>
<path d="M1638 3719 c-2 -6 -2 -26 0 -45 3 -24 9 -34 21 -33 10 0 11 2 4 6
-15 5 -18 50 -4 55 5 2 3 8 -4 15 -9 9 -15 9 -17 2z"/>
<path d="M898 3674 c-2 -19 -1 -34 3 -34 4 0 9 12 11 27 5 39 26 40 31 1 l5
-33 -2 35 c-1 28 -5 35 -23 36 -17 1 -22 -5 -25 -32z"/>
<path d="M1063 3675 c0 -22 2 -30 4 -17 2 12 2 30 0 40 -3 9 -5 -1 -4 -23z"/>
<path d="M1090 3675 c0 -19 5 -35 10 -35 6 0 10 13 10 29 0 16 6 32 13 34 6 3
2 6 -10 6 -20 1 -23 -4 -23 -34z"/>
<path d="M1150 3695 c-18 -22 -1 -49 31 -52 23 -1 23 -1 2 4 -31 6 -29 23 3
23 19 0 25 5 22 18 -4 23 -41 27 -58 7z m45 -5 c3 -5 -3 -10 -14 -10 -12 0
-21 5 -21 10 0 6 6 10 14 10 8 0 18 -4 21 -10z"/>
<path d="M1234 3696 c-11 -28 1 -51 26 -53 23 -1 23 -1 2 4 -28 6 -28 49 1 47
9 -1 17 2 17 7 0 15 -40 10 -46 -5z"/>
<path d="M1491 3696 c-21 -26 -9 -51 24 -51 27 0 30 3 30 30 0 23 -5 31 -21
33 -11 2 -26 -4 -33 -12z m47 -19 c4 -20 -25 -34 -40 -19 -15 15 -1 44 19 40
10 -2 19 -11 21 -21z"/>
<path d="M1574 3699 c-4 -7 4 -20 17 -30 l24 -19 -25 -1 c-19 -1 -20 -2 -6 -6
32 -8 43 15 16 34 -22 16 -22 17 -4 24 16 6 16 8 2 8 -9 1 -20 -4 -24 -10z"/>
<path d="M1695 3699 c-4 -5 1 -19 10 -29 15 -17 15 -19 -2 -23 -15 -4 -14 -5
4 -6 30 -1 38 16 13 31 -25 16 -25 25 -2 31 15 4 15 5 0 6 -9 0 -20 -4 -23
-10z"/>
<path d="M2653 3475 c0 -33 2 -45 4 -27 2 18 2 45 0 60 -2 15 -4 0 -4 -33z"/>
<path d="M2273 3503 c-4 -10 2 -23 15 -34 27 -21 28 -36 5 -42 -14 -3 -13 -4
2 -3 28 1 31 35 6 52 -27 19 -27 38 -1 31 11 -3 18 -1 14 4 -9 15 -34 10 -41
-8z"/>
<path d="M2343 3513 c13 -3 17 -15 17 -49 0 -24 5 -44 10 -44 6 0 10 20 10 44
0 34 4 46 18 49 9 3 -3 5 -28 5 -25 0 -37 -2 -27 -5z"/>
<path d="M2518 3499 c-2 -6 -2 -26 0 -45 3 -24 9 -34 21 -33 10 0 11 2 4 6
-15 5 -18 50 -4 55 5 2 3 8 -4 15 -9 9 -15 9 -17 2z"/>
<path d="M2430 3475 c-18 -22 -1 -50 31 -50 20 0 24 5 24 30 0 23 -5 31 -21
33 -11 2 -27 -4 -34 -13z m45 -20 c0 -11 -7 -21 -16 -23 -18 -3 -33 23 -23 39
10 17 39 5 39 -16z"/>
<path d="M2595 3481 c19 -8 19 -8 -2 -15 -14 -4 -23 -15 -23 -27 0 -14 7 -19
30 -19 23 0 30 5 30 19 0 34 -12 51 -34 50 -20 0 -20 -1 -1 -8z m15 -36 c0 -8
-7 -15 -15 -15 -16 0 -20 12 -8 23 11 12 23 8 23 -8z"/>
<path d="M938 3054 c-11 -11 -10 -112 1 -119 5 -3 11 9 13 27 5 50 35 51 41 1
l4 -38 -1 40 c-1 33 -5 40 -21 40 -14 0 -21 8 -25 28 -3 16 -8 25 -12 21z"/>
<path d="M857 3043 c-14 -14 -6 -38 20 -58 32 -26 23 -50 -16 -40 -19 5 -23 4
-15 -5 7 -6 22 -10 35 -8 35 5 37 38 4 64 -30 24 -26 49 6 41 11 -3 17 -1 13
4 -6 10 -38 12 -47 2z"/>
<path d="M1337 3043 c-13 -21 -20 -116 -8 -109 6 4 11 14 11 22 0 24 20 16 21
-8 0 -22 1 -22 11 2 6 14 11 40 10 59 -2 38 -12 57 -12 23 0 -29 -18 -28 -22
1 -2 14 -6 18 -11 10z m28 -53 c-3 -5 -10 -10 -16 -10 -5 0 -9 5 -9 10 0 6 7
10 16 10 8 0 12 -4 9 -10z"/>
<path d="M1416 3042 c-3 -5 5 -8 17 -8 31 1 32 -26 2 -62 -14 -16 -25 -33 -25
-36 0 -3 17 -5 38 -5 29 2 31 3 10 6 l-28 4 21 28 c26 35 22 75 -8 79 -11 2
-24 -1 -27 -6z"/>
<path d="M1550 2990 c0 -59 0 -60 28 -60 37 0 52 17 52 60 0 43 -15 60 -52 60
-28 0 -28 -1 -28 -60z m58 38 c7 -7 12 -24 12 -38 0 -30 -17 -50 -42 -50 -15
0 -18 9 -18 50 0 41 3 50 18 50 10 0 23 -5 30 -12z"/>
<path d="M1820 3040 c0 -5 5 -10 10 -10 6 0 10 5 10 10 0 6 -4 10 -10 10 -5 0
-10 -4 -10 -10z"/>
<path d="M1218 3017 c-7 -22 7 -80 20 -83 7 -1 8 0 2 3 -12 6 -13 60 -1 65 5
2 3 8 -4 15 -10 9 -14 9 -17 0z"/>
<path d="M1037 3004 c-11 -11 -8 -49 5 -62 14 -14 44 -16 52 -4 2 4 -5 8 -17
7 -31 0 -33 19 -2 23 18 2 25 9 23 20 -3 17 -48 29 -61 16z m48 -14 c4 -6 -5
-10 -20 -10 -15 0 -24 4 -20 10 3 6 12 10 20 10 8 0 17 -4 20 -10z"/>
<path d="M1127 3004 c-11 -11 -8 -49 5 -62 14 -14 44 -16 52 -4 2 4 -5 8 -17
7 -31 0 -33 19 -2 23 18 2 25 9 23 20 -3 17 -48 29 -61 16z m48 -14 c4 -6 -5
-10 -20 -10 -15 0 -24 4 -20 10 3 6 12 10 20 10 8 0 17 -4 20 -10z"/>
<path d="M1662 2998 c-15 -15 -15 -41 0 -56 14 -14 44 -16 52 -4 3 5 -4 8 -16
8 -12 -1 -23 5 -25 12 -3 7 5 12 22 12 20 0 26 4 23 18 -4 21 -39 27 -56 10z
m48 -8 c0 -5 -9 -10 -20 -10 -11 0 -20 5 -20 10 0 6 9 10 20 10 11 0 20 -4 20
-10z"/>
<path d="M1744 2998 c-4 -7 2 -18 14 -26 28 -18 29 -36 2 -29 -11 3 -18 1 -14
-4 8 -13 41 -11 50 3 4 6 -2 19 -14 29 -27 21 -27 26 -4 32 13 4 12 5 -5 6
-12 0 -25 -4 -29 -11z"/>
<path d="M1820 2969 c0 -24 4 -38 10 -34 6 3 10 22 10 41 0 19 -4 34 -10 34
-5 0 -10 -18 -10 -41z"/>
<path d="M1865 3000 c-4 -6 -5 -23 -4 -38 2 -15 0 -33 -4 -40 -6 -9 -122 -13
-515 -14 l-507 -2 531 -6 c292 -3 562 -2 600 1 64 5 65 6 18 7 -43 2 -53 6
-57 22 -3 14 -14 20 -34 21 -27 1 -27 1 -4 8 13 3 28 16 32 29 7 20 5 22 -21
22 -16 0 -32 -5 -35 -10z m45 -15 c0 -8 -6 -15 -14 -15 -17 0 -28 14 -19 24
12 12 33 6 33 -9z m1 -60 c0 -5 -9 -11 -21 -13 -20 -3 -27 8 -13 22 10 9 34 3
34 -9z"/>
<path d="M1951 2965 l2 -40 6 35 c9 50 41 55 41 6 0 -20 5 -36 10 -36 12 0 13
50 2 68 -5 6 -20 11 -35 10 -25 -2 -27 -6 -26 -43z"/>
<path d="M850 2766 c0 -50 10 -61 45 -52 28 7 44 50 28 75 -6 9 -24 17 -42 19
-31 3 -31 3 -31 -42z m60 14 c14 -26 -4 -63 -28 -58 -12 2 -18 15 -20 41 -3
32 0 37 17 37 11 0 25 -9 31 -20z"/>
<path d="M1332 2798 c-7 -7 -12 -24 -12 -38 0 -14 5 -31 12 -38 14 -14 44 -16
52 -3 4 5 -2 7 -12 4 -25 -6 -46 21 -38 51 4 17 15 26 34 29 27 4 27 4 2 6
-15 0 -31 -4 -38 -11z"/>
<path d="M1568 2794 c-10 -9 8 -77 20 -80 7 -1 8 0 2 3 -14 7 -13 60 2 65 8 3
6 6 -4 10 -9 4 -18 5 -20 2z"/>
<path d="M964 2782 c-30 -20 -18 -72 16 -72 10 0 21 4 24 8 3 5 -4 8 -16 8
-12 -1 -23 5 -25 12 -3 7 5 12 21 12 29 0 36 24 10 34 -19 7 -17 7 -30 -2z
m31 -12 c3 -5 -3 -10 -15 -10 -12 0 -18 5 -15 10 3 6 10 10 15 10 5 0 12 -4
15 -10z"/>
<path d="M1033 2774 c-4 -10 0 -20 10 -26 21 -11 22 -32 2 -24 -8 3 -15 1 -15
-4 0 -15 26 -12 39 4 10 12 8 17 -9 26 -11 6 -18 15 -15 21 4 5 11 6 17 3 7
-4 8 -2 4 4 -10 17 -26 15 -33 -4z"/>
<path d="M1137 2783 c-3 -5 -7 -26 -8 -48 -4 -39 -3 -40 26 -40 37 0 41 26 5
35 -24 6 -24 6 -4 12 12 3 23 15 27 27 4 17 1 21 -18 21 -13 0 -26 -3 -28 -7z
m33 -24 c0 -5 -7 -9 -15 -9 -15 0 -20 12 -9 23 8 8 24 -1 24 -14z m5 -49 c-3
-5 -13 -10 -21 -10 -8 0 -14 5 -14 10 0 6 9 10 21 10 11 0 17 -4 14 -10z"/>
<path d="M1218 2783 c-20 -5 -26 -63 -7 -63 6 0 9 9 6 20 -3 10 1 24 9 31 15
12 19 6 28 -41 2 -14 3 -7 3 14 -2 40 -9 47 -39 39z"/>
<path d="M1422 2778 c-19 -19 -14 -56 8 -63 24 -8 50 10 50 34 0 19 -19 41
-35 41 -6 0 -16 -5 -23 -12z m42 -13 c8 -21 -3 -45 -20 -45 -8 0 -17 7 -20 15
-8 21 2 45 20 45 7 0 16 -7 20 -15z"/>
<path d="M1503 2774 c-4 -10 0 -20 10 -26 21 -11 22 -32 2 -24 -8 3 -15 1 -15
-4 0 -15 26 -12 39 4 10 11 7 17 -11 30 -20 14 -18 21 5 17 5 -1 6 3 2 9 -9
15 -25 12 -32 -6z"/>
<path d="M1623 2774 c-4 -10 0 -20 10 -26 22 -12 22 -25 0 -31 -17 -4 -17 -5
0 -6 24 -1 34 29 14 41 -21 11 -22 32 -1 24 8 -3 12 -2 9 4 -9 15 -25 12 -32
-6z"/>
<path d="M1090 2750 c0 -16 5 -30 10 -30 6 0 10 14 10 30 0 17 -4 30 -10 30
-5 0 -10 -13 -10 -30z"/>
<path d="M1050 2577 c0 -18 -5 -23 -21 -23 -12 1 -26 -7 -33 -16 -16 -26 4
-53 43 -55 l31 -1 0 59 c0 33 -4 59 -10 59 -5 0 -10 -10 -10 -23z m-5 -58 c0
-15 -7 -25 -17 -27 -13 -3 -18 3 -18 21 0 13 3 27 7 31 13 12 28 -1 28 -25z"/>
<path d="M1490 2580 c-39 -39 -16 -101 38 -99 27 1 27 1 -3 8 -25 5 -31 12
-33 39 -4 39 14 65 40 59 10 -3 16 -1 12 4 -9 15 -33 10 -54 -11z"/>
<path d="M850 2535 c0 -30 5 -55 10 -55 6 0 10 25 10 55 0 30 -4 55 -10 55 -5
0 -10 -25 -10 -55z"/>
<path d="M1368 2568 c-2 -7 -2 -29 2 -48 3 -25 11 -35 25 -37 11 -2 14 0 8 3
-16 7 -17 64 -2 64 6 0 4 7 -5 15 -18 18 -23 19 -28 3z"/>
<path d="M1748 2568 c-2 -7 -2 -29 2 -48 3 -25 11 -35 25 -37 11 -2 14 0 8 3
-16 7 -17 64 -2 64 6 0 4 7 -5 15 -18 18 -23 19 -28 3z"/>
<path d="M901 2515 l2 -40 6 35 c9 50 41 55 41 6 0 -20 5 -36 10 -36 12 0 13
50 2 68 -5 6 -20 11 -35 10 -25 -2 -27 -6 -26 -43z"/>
<path d="M1103 2520 c0 -25 2 -35 4 -22 2 12 2 32 0 45 -2 12 -4 2 -4 -23z"/>
<path d="M1140 2518 c0 -21 5 -38 10 -38 6 0 10 15 10 34 0 24 5 36 18 39 9 3
5 4 -10 4 -25 -1 -28 -5 -28 -39z"/>
<path d="M1212 2548 c-27 -27 -2 -75 35 -65 14 4 14 5 -4 6 -35 2 -38 21 -3
21 27 0 31 3 28 23 -3 25 -36 35 -56 15z m41 -13 c1 -5 -6 -11 -15 -13 -11 -2
-18 3 -18 13 0 17 30 18 33 0z"/>
<path d="M1300 2546 c-20 -25 -8 -61 20 -63 25 -3 25 -3 3 7 -13 5 -23 15 -23
22 0 24 18 41 35 35 9 -4 14 -3 10 3 -9 14 -31 12 -45 -4z"/>
<path d="M1580 2545 c-26 -32 13 -81 48 -59 34 22 22 74 -18 74 -10 0 -23 -7
-30 -15z m55 -15 c8 -26 -1 -40 -26 -40 -13 0 -19 7 -19 23 0 40 34 53 45 17z"/>
<path d="M1674 2548 c-4 -6 2 -19 14 -29 27 -22 28 -33 2 -26 -11 3 -20 1 -20
-4 0 -13 48 -11 56 2 4 7 -4 20 -17 30 -20 16 -22 20 -9 29 13 8 13 10 -2 10
-9 0 -20 -5 -24 -12z"/>
<path d="M1813 2544 c-3 -9 3 -21 18 -32 l23 -16 -24 -7 c-23 -7 -23 -7 -3 -8
32 -1 40 20 15 37 -28 18 -29 36 -2 29 11 -3 18 -1 14 4 -9 14 -34 10 -41 -7z"/>
<path d="M2653 2315 c0 -33 2 -45 4 -27 2 18 2 45 0 60 -2 15 -4 0 -4 -33z"/>
<path d="M2273 2343 c-4 -11 1 -22 15 -31 26 -17 29 -39 5 -45 -14 -3 -13 -4
2 -3 28 1 32 41 6 56 -27 14 -27 34 -1 27 11 -3 18 -1 14 4 -9 15 -34 10 -41
-8z"/>
<path d="M2343 2353 c13 -3 17 -15 17 -49 0 -24 5 -44 10 -44 6 0 10 20 10 44
0 34 4 46 18 49 9 3 -3 5 -28 5 -25 0 -37 -2 -27 -5z"/>
<path d="M2518 2339 c-2 -6 -2 -26 0 -45 3 -24 9 -34 21 -33 10 0 11 2 4 6
-15 5 -18 50 -4 55 5 2 3 8 -4 15 -9 9 -15 9 -17 2z"/>
<path d="M2425 2310 c-8 -27 12 -52 39 -48 16 2 21 10 21 33 0 25 -4 31 -27
33 -19 2 -28 -2 -33 -18z m53 -12 c-4 -27 -33 -36 -42 -13 -8 22 1 35 25 35
15 0 20 -6 17 -22z"/>
<path d="M2595 2320 c14 -6 15 -9 5 -9 -46 -2 -45 -51 1 -51 22 0 29 5 29 19
0 34 -12 51 -34 50 -20 0 -20 -1 -1 -9z m15 -35 c0 -8 -7 -15 -15 -15 -16 0
-20 12 -8 23 11 12 23 8 23 -8z"/>
<path d="M938 1915 c-9 -16 -8 -125 2 -125 5 0 10 15 12 32 5 50 35 50 41 1
l4 -38 -1 40 c-1 33 -5 40 -21 40 -14 0 -21 8 -25 30 -3 17 -8 26 -12 20z"/>
<path d="M857 1903 c-15 -14 -6 -42 20 -61 29 -21 24 -47 -8 -39 -11 3 -19 1
-19 -5 0 -5 12 -8 27 -6 39 4 43 36 8 64 -30 24 -26 49 6 41 11 -3 17 -1 13 4
-6 10 -38 12 -47 2z"/>
<path d="M1337 1903 c-13 -21 -20 -116 -8 -109 6 4 11 14 11 22 0 24 20 16 21
-8 0 -22 1 -22 11 2 6 14 11 40 10 59 -2 38 -12 57 -12 23 0 -29 -18 -28 -22
1 -2 14 -6 18 -11 10z m28 -53 c-3 -5 -10 -10 -16 -10 -5 0 -9 5 -9 10 0 6 7
10 16 10 8 0 12 -4 9 -10z"/>
<path d="M1416 1902 c-3 -6 2 -8 13 -5 30 8 37 -18 11 -39 -22 -18 -22 -18 -1
-18 15 0 21 -6 21 -21 0 -17 -5 -20 -25 -17 -14 3 -25 1 -25 -3 0 -5 11 -9 24
-9 29 0 51 24 39 42 -4 7 -8 27 -8 43 0 23 -5 31 -22 33 -11 2 -24 -1 -27 -6z"/>
<path d="M1551 1848 c1 -35 4 -51 6 -35 5 34 30 35 45 2 6 -14 15 -25 20 -25
5 0 2 13 -7 29 -9 19 -11 32 -5 36 6 3 10 14 10 25 0 19 -19 30 -51 30 -17 0
-19 -7 -18 -62z m52 38 c7 -17 -18 -40 -33 -31 -5 3 -10 15 -10 26 0 23 35 27
43 5z"/>
<path d="M2190 1900 c0 -5 5 -10 10 -10 6 0 10 5 10 10 0 6 -4 10 -10 10 -5 0
-10 -4 -10 -10z"/>
<path d="M1218 1877 c-7 -22 7 -80 20 -83 7 -1 8 0 2 3 -12 6 -13 60 -1 65 5
2 3 8 -4 15 -10 9 -14 9 -17 0z"/>
<path d="M1809 1878 c-4 -45 10 -88 29 -87 10 0 12 3 5 6 -16 6 -17 63 -2 63
6 0 4 7 -5 15 -18 18 -26 19 -27 3z"/>
<path d="M2128 1878 c-2 -7 -2 -29 2 -48 3 -25 11 -35 25 -37 11 -2 14 0 8 3
-16 7 -17 64 -2 64 6 0 4 7 -5 15 -18 18 -23 19 -28 3z"/>
<path d="M1037 1864 c-4 -4 -7 -20 -7 -35 0 -22 6 -30 26 -35 14 -4 30 -2 35
3 5 5 0 9 -14 8 -31 0 -33 19 -2 23 18 2 25 9 23 20 -3 17 -48 29 -61 16z m48
-14 c4 -6 -5 -10 -20 -10 -15 0 -24 4 -20 10 3 6 12 10 20 10 8 0 17 -4 20
-10z"/>
<path d="M1127 1864 c-11 -11 -8 -49 5 -62 14 -14 44 -16 52 -4 2 4 -5 8 -17
7 -31 0 -33 19 -2 23 18 2 25 9 23 20 -3 17 -48 29 -61 16z m48 -14 c4 -6 -5
-10 -20 -10 -15 0 -24 4 -20 10 3 6 12 10 20 10 8 0 17 -4 20 -10z"/>
<path d="M1652 1858 c-26 -26 -6 -69 33 -67 19 0 19 1 -2 9 -33 13 -28 30 7
30 28 0 30 2 20 20 -12 22 -40 26 -58 8z m48 -8 c0 -5 -9 -10 -20 -10 -11 0
-20 5 -20 10 0 6 9 10 20 10 11 0 20 -4 20 -10z"/>
<path d="M1734 1858 c-4 -7 2 -18 14 -26 28 -19 28 -36 1 -29 -15 4 -19 3 -12
-4 15 -15 47 -7 51 13 2 9 -5 19 -17 23 -26 8 -27 22 -3 28 13 4 12 5 -5 6
-12 0 -25 -4 -29 -11z"/>
<path d="M1880 1855 c-26 -32 13 -81 48 -59 34 22 22 74 -18 74 -10 0 -23 -7
-30 -15z m54 -10 c8 -22 -4 -45 -24 -45 -20 0 -32 23 -24 45 4 8 14 15 24 15
10 0 20 -7 24 -15z"/>
<path d="M1970 1829 c0 -22 5 -39 10 -39 6 0 10 13 10 30 0 17 7 33 17 38 13
8 11 10 -10 10 -25 0 -27 -4 -27 -39z"/>
<path d="M2046 1862 c-3 -6 2 -8 13 -5 10 3 22 0 25 -6 4 -7 -1 -11 -12 -11
-23 0 -46 -25 -37 -40 3 -5 20 -9 36 -8 28 2 30 5 27 38 -2 27 -8 36 -25 38
-11 2 -24 -1 -27 -6z m39 -42 c3 -6 -1 -13 -10 -16 -19 -8 -30 0 -20 15 8 14
22 14 30 1z"/>
<path d="M2190 1830 c0 -22 5 -40 10 -40 6 0 10 18 10 40 0 22 -4 40 -10 40
-5 0 -10 -18 -10 -40z"/>
<path d="M2241 1856 c-16 -19 -11 -46 12 -60 25 -16 52 4 52 40 0 24 -5 30
-26 32 -14 2 -31 -4 -38 -12z m54 -26 c0 -18 -6 -26 -22 -28 -20 -3 -23 1 -23
28 0 27 3 31 23 28 16 -2 22 -10 22 -28z"/>
<path d="M2341 1825 l2 -40 6 35 c9 50 41 55 41 6 0 -20 5 -36 10 -36 12 0 13
50 2 68 -5 6 -20 11 -35 10 -25 -2 -27 -6 -26 -43z"/>
<path d="M1232 1763 c219 -2 577 -2 795 0 219 1 40 2 -397 2 -437 0 -616 -1
-398 -2z"/>
<path d="M1490 1669 c0 -5 5 -7 10 -4 6 3 10 8 10 11 0 2 -4 4 -10 4 -5 0 -10
-5 -10 -11z"/>
<path d="M862 1658 c-15 -15 -15 -61 0 -76 14 -14 44 -16 52 -3 4 5 -2 7 -12
4 -25 -6 -46 21 -38 51 4 17 15 26 34 29 27 4 27 4 2 6 -15 0 -31 -4 -38 -11z"/>
<path d="M1746 1654 c-21 -21 -20 -47 2 -67 20 -18 48 -22 56 -9 2 4 -8 8 -22
7 -24 0 -27 4 -27 35 0 28 4 35 25 41 23 6 23 7 3 8 -12 1 -29 -6 -37 -15z"/>
<path d="M1176 1652 c-8 -14 9 -75 22 -78 7 -1 8 0 2 3 -13 6 -13 46 1 60 7 7
6 12 -5 16 -8 3 -17 3 -20 -1z"/>
<path d="M1438 1654 c-10 -9 8 -78 20 -82 11 -3 11 -1 0 17 -10 16 -10 25 -1
40 10 15 9 20 -1 24 -8 3 -16 4 -18 1z"/>
<path d="M1980 1632 c0 -33 9 -62 19 -62 3 0 5 19 5 42 -1 48 -24 67 -24 20z"/>
<path d="M952 1638 c-19 -19 -14 -56 8 -63 24 -8 50 10 50 34 0 19 -19 41 -35
41 -6 0 -16 -5 -23 -12z m37 -12 c14 -17 4 -46 -15 -46 -18 0 -28 24 -20 45 7
19 20 19 35 1z"/>
<path d="M1065 1641 c4 -8 12 -28 16 -45 l7 -31 1 31 c1 19 -6 37 -16 45 -14
12 -16 12 -8 0z"/>
<path d="M1113 1634 c-4 -10 0 -20 10 -26 21 -11 22 -32 2 -24 -8 3 -15 1 -15
-4 0 -16 37 -11 44 5 3 8 -4 21 -17 30 -19 13 -17 20 6 16 5 -1 6 3 2 9 -9 15
-25 12 -32 -6z"/>
<path d="M1248 1643 c-14 -3 -18 -14 -17 -41 1 -28 3 -31 6 -12 3 14 12 33 20
43 9 9 14 16 12 16 -2 -1 -12 -3 -21 -6z"/>
<path d="M1370 1635 c-24 -29 14 -85 41 -58 9 9 7 11 -8 7 -13 -4 -23 0 -27
11 -8 23 11 46 31 38 11 -4 14 -2 9 5 -10 16 -31 15 -46 -3z"/>
<path d="M1536 1635 c-19 -20 -20 -26 -3 -49 26 -36 84 4 61 42 -15 23 -38 26
-58 7z m43 -9 c14 -17 4 -46 -15 -46 -18 0 -28 24 -20 45 7 19 20 19 35 1z"/>
<path d="M1658 1614 c2 -19 8 -37 13 -40 14 -8 10 52 -4 64 -10 9 -12 4 -9
-24z"/>
<path d="M1836 1634 c-19 -19 -20 -36 -4 -52 20 -20 48 -14 60 14 11 22 10 28
-7 40 -24 18 -30 18 -49 -2z m39 -24 c0 -13 -6 -25 -12 -27 -16 -6 -27 21 -19
43 9 23 31 11 31 -16z"/>
<path d="M1920 1636 c-9 -12 -7 -17 9 -28 27 -16 27 -32 1 -25 -11 3 -18 1
-14 -4 9 -15 34 -10 41 7 4 10 0 20 -10 26 -21 11 -22 32 -1 24 8 -3 12 -2 9
4 -9 14 -21 12 -35 -4z"/>
<path d="M2040 1640 c-13 -9 -12 -13 8 -29 22 -19 14 -39 -10 -25 -10 5 -10 4
-1 -6 14 -15 43 -6 43 14 0 8 -10 18 -22 22 -21 6 -21 7 -3 20 21 16 8 19 -15
4z"/>
<path d="M1030 1603 c0 -43 5 -41 13 5 4 18 2 32 -3 32 -6 0 -10 -16 -10 -37z"/>
<path d="M1280 1618 c0 -35 15 -51 39 -43 16 5 21 14 20 38 l-1 32 -7 -29 c-9
-41 -31 -46 -31 -7 0 17 -4 31 -10 31 -5 0 -10 -10 -10 -22z"/>
<path d="M1490 1604 c0 -21 4 -33 10 -29 6 3 10 19 10 36 0 16 -4 29 -10 29
-5 0 -10 -16 -10 -36z"/>
<path d="M1620 1605 c0 -19 2 -35 4 -35 2 0 6 16 8 35 2 19 0 35 -4 35 -4 0
-8 -16 -8 -35z"/>
<path d="M6924 1449 c-19 -21 -19 -21 10 -44 32 -25 27 -50 -7 -39 -19 6 -20
5 -9 -9 11 -13 17 -14 33 -4 25 15 24 43 -1 57 -29 15 -27 43 2 34 20 -6 21
-5 9 10 -17 20 -14 20 -37 -5z"/>
<path d="M876 1451 c-16 -25 -34 -91 -26 -91 6 0 10 5 10 10 0 6 11 10 25 10
14 0 25 -4 25 -10 0 -5 9 -10 20 -10 11 0 20 5 20 10 0 6 11 10 25 10 14 0 25
-4 25 -10 0 -5 4 -10 10 -10 5 0 1 21 -9 48 -10 26 -22 46 -27 45 -5 -1 -15
-20 -23 -42 -8 -23 -18 -41 -22 -41 -4 0 -13 17 -19 38 -15 44 -25 58 -34 43z
m23 -53 c1 -5 -6 -8 -14 -8 -16 0 -19 9 -8 36 6 16 7 16 14 -2 4 -10 8 -22 8
-26z m91 5 c0 -7 -7 -13 -15 -13 -16 0 -19 9 -9 35 5 13 8 14 15 3 5 -7 9 -19
9 -25z"/>
<path d="M1041 1438 c1 -13 -2 -31 -6 -41 -11 -27 13 -46 51 -40 27 4 30 8 26
30 -3 18 -7 21 -13 12 -7 -12 -10 -12 -21 0 -10 11 -10 14 0 18 6 3 12 13 12
24 0 14 -7 19 -26 19 -20 0 -25 -4 -23 -22z m37 1 c-2 -6 -8 -10 -13 -10 -5 0
-11 4 -13 10 -2 6 4 11 13 11 9 0 15 -5 13 -11z m-12 -67 c-22 -5 -30 3 -21
18 5 8 11 7 22 -2 15 -12 14 -13 -1 -16z"/>
<path d="M1147 1453 c-4 -3 -7 -25 -7 -49 0 -29 5 -44 16 -48 23 -9 34 -7 34
4 0 6 -9 10 -20 10 -27 0 -25 28 3 33 l22 4 -22 2 c-13 0 -23 8 -23 16 0 9 10
20 23 25 21 8 21 9 1 9 -11 1 -24 -2 -27 -6z"/>
<path d="M7898 1393 c6 -2 18 -2 25 0 6 3 1 5 -13 5 -14 0 -19 -2 -12 -5z"/>
<path d="M6928 1236 c-25 -18 -22 -33 7 -52 14 -9 25 -21 25 -26 0 -6 -11 -8
-25 -6 -28 6 -30 3 -13 -16 10 -10 15 -10 30 3 23 20 23 38 -2 51 -27 15 -27
44 1 37 16 -4 18 -3 8 9 -6 8 -12 14 -13 14 0 0 -9 -7 -18 -14z"/>
<path d="M850 1191 c0 -28 5 -51 10 -51 6 0 10 20 10 44 0 25 -4 48 -10 51 -6
4 -10 -13 -10 -44z"/>
<path d="M1020 1225 c0 -8 -9 -15 -20 -15 -12 0 -22 -9 -26 -24 -8 -34 2 -46
37 -46 28 0 29 1 29 50 0 28 -4 50 -10 50 -5 0 -10 -7 -10 -15z m0 -50 c0 -15
-6 -25 -14 -25 -16 0 -25 19 -18 38 8 22 32 13 32 -13z"/>
<path d="M1406 1224 c-19 -18 -21 -55 -4 -72 7 -7 23 -11 38 -11 23 2 23 2 2
6 -30 6 -46 37 -31 64 7 14 17 19 30 16 10 -3 17 -1 13 4 -8 14 -31 11 -48 -7z"/>
<path d="M1302 1213 c-8 -8 -9 -13 -2 -13 5 0 10 -13 10 -30 0 -22 5 -30 18
-29 10 0 12 3 5 6 -15 5 -18 50 -4 55 5 2 4 8 -3 14 -8 8 -15 7 -24 -3z"/>
<path d="M1638 1219 c-2 -6 -2 -26 0 -45 3 -24 9 -34 21 -33 10 0 11 2 4 6
-15 5 -18 50 -4 55 5 2 3 8 -4 15 -9 9 -15 9 -17 2z"/>
<path d="M898 1175 c-2 -19 0 -35 4 -35 4 0 8 16 8 35 0 19 -2 35 -4 35 -2 0
-6 -16 -8 -35z"/>
<path d="M927 1202 c6 -4 13 -21 16 -37 4 -27 4 -27 6 8 1 29 -3 37 -16 37
-12 0 -14 -3 -6 -8z"/>
<path d="M1063 1175 c0 -22 2 -30 4 -17 2 12 2 30 0 40 -3 9 -5 -1 -4 -23z"/>
<path d="M1090 1175 c0 -19 5 -35 10 -35 6 0 10 13 10 29 0 16 6 32 13 34 6 3
2 6 -10 6 -20 1 -23 -4 -23 -34z"/>
<path d="M1150 1195 c-18 -22 -1 -49 31 -52 23 -1 23 -1 2 4 -13 2 -23 8 -23
13 0 5 10 10 23 12 12 2 22 10 22 18 0 21 -39 24 -55 5z m40 -5 c0 -5 -7 -10
-15 -10 -8 0 -15 5 -15 10 0 6 7 10 15 10 8 0 15 -4 15 -10z"/>
<path d="M1234 1196 c-11 -28 1 -51 26 -53 22 -1 22 -1 3 4 -16 3 -23 12 -23
28 0 17 7 25 23 28 l22 4 -23 2 c-12 0 -25 -5 -28 -13z"/>
<path d="M1491 1196 c-21 -26 -9 -51 24 -51 27 0 30 3 30 30 0 23 -5 31 -21
33 -11 2 -26 -4 -33 -12z m47 -19 c4 -20 -25 -34 -40 -19 -15 15 -1 44 19 40
10 -2 19 -11 21 -21z"/>
<path d="M1574 1199 c-4 -7 4 -20 17 -30 l24 -19 -25 -1 c-19 -1 -20 -2 -6 -6
10 -3 23 0 30 7 8 8 5 16 -13 29 -23 18 -23 19 -5 24 15 4 16 5 2 6 -9 0 -20
-4 -24 -10z"/>
<path d="M1694 1198 c-4 -6 0 -16 9 -23 22 -16 21 -22 0 -28 -14 -4 -13 -5 4
-6 31 -1 36 13 12 35 -19 17 -19 19 -2 25 16 7 16 8 1 8 -9 1 -20 -4 -24 -11z"/>
<path d="M7908 1173 c7 -3 16 -2 19 1 4 3 -2 6 -13 5 -11 0 -14 -3 -6 -6z"/>
<path d="M2653 975 c0 -33 2 -45 4 -27 2 18 2 45 0 60 -2 15 -4 0 -4 -33z"/>
<path d="M2273 1003 c-4 -11 1 -22 15 -31 28 -19 30 -46 2 -39 -11 3 -20 1
-20 -5 0 -5 10 -8 23 -6 30 4 35 43 8 58 -27 14 -27 34 -1 27 11 -3 18 -1 14
4 -9 15 -34 10 -41 -8z"/>
<path d="M2343 1013 c13 -3 17 -15 17 -49 0 -24 5 -44 10 -44 6 0 10 20 10 44
0 34 4 46 18 49 9 3 -3 5 -28 5 -25 0 -37 -2 -27 -5z"/>
<path d="M2518 999 c-2 -6 -2 -26 0 -45 3 -24 9 -34 21 -33 10 0 11 2 4 6 -15
5 -18 50 -4 55 5 2 3 8 -4 15 -9 9 -15 9 -17 2z"/>
<path d="M2425 970 c-8 -27 12 -52 39 -48 16 2 21 10 21 33 0 25 -4 31 -27 33
-19 2 -28 -2 -33 -18z m53 -12 c-4 -27 -33 -36 -42 -13 -8 22 1 35 25 35 15 0
20 -6 17 -22z"/>
<path d="M2595 980 c14 -6 15 -9 5 -9 -46 -2 -45 -51 1 -51 22 0 29 5 29 19 0
34 -12 51 -34 50 -20 0 -20 -1 -1 -9z m15 -35 c0 -8 -7 -15 -15 -15 -16 0 -20
12 -8 23 11 12 23 8 23 -8z"/>
<path d="M2158 549 c-21 -12 -24 -59 -6 -77 7 -7 25 -12 40 -12 23 0 28 4 28
25 0 19 -5 25 -21 25 -19 0 -20 -2 -8 -16 12 -14 11 -16 -6 -13 -14 3 -20 12
-20 29 0 21 5 25 28 25 15 -1 26 4 24 10 -5 14 -39 17 -59 4z"/>
<path d="M2230 550 c0 -5 7 -10 15 -10 11 0 15 -11 15 -40 0 -22 5 -40 10 -40
6 0 10 18 10 40 0 29 4 40 15 40 8 0 15 5 15 10 0 6 -18 10 -40 10 -22 0 -40
-4 -40 -10z"/>
<path d="M2338 549 c-21 -12 -24 -59 -6 -77 7 -7 21 -12 33 -12 28 0 45 19 45
50 0 44 -33 62 -72 39z m50 -42 c3 -22 -1 -27 -18 -27 -23 0 -35 22 -26 46 10
25 41 12 44 -19z"/>
<path d="M2420 550 c0 -5 7 -10 15 -10 11 0 15 -11 15 -40 0 -22 5 -40 10 -40
6 0 10 18 10 40 0 29 4 40 15 40 8 0 15 5 15 10 0 6 -18 10 -40 10 -22 0 -40
-4 -40 -10z"/>
<path d="M2524 515 c-9 -25 -13 -49 -9 -53 4 -4 10 -1 12 6 6 14 39 16 48 2
17 -28 21 -4 7 40 -9 28 -21 50 -28 50 -7 0 -20 -20 -30 -45z m32 -12 c-10
-10 -19 5 -10 18 6 11 8 11 12 0 2 -7 1 -15 -2 -18z"/>
<path d="M2616 553 c-3 -3 -6 -26 -6 -50 0 -41 1 -43 30 -43 17 0 30 5 30 10
0 6 -7 10 -15 10 -10 0 -15 10 -15 34 0 34 -11 52 -24 39z"/>
</g>
</svg>
