<?xml version="1.0" encoding="UTF-8" standalone="no"?>
<!DOCTYPE svg PUBLIC "-//W3C//DTD SVG 1.1//EN" "http://www.w3.org/Graphics/SVG/1.1/DTD/svg11.dtd">
<svg xmlns="http://www.w3.org/2000/svg" xmlns:xlink="http://www.w3.org/1999/xlink" version="1.1" width="595.2pt" height="841.6pt" viewBox="0 0 595.2 841.6">
<g enable-background="new">
<g>
<g id="Layer-1" data-name="P">
<clipPath id="cp0">
<path transform="matrix(1,0,0,-1,0,841.6)" d="M .000008869 -.000061035 L 595.2 -.000061035 L 595.2 841.5999 L .000008869 841.5999 Z " fill-rule="evenodd"/>
</clipPath>
<g clip-path="url(#cp0)">
<text xml:space="preserve" transform="matrix(1 0 -0 1 0 841.6)" font-size="16.025" font-family="Calibri"><tspan y="-754.32" x="298"> </tspan></text>
</g>
</g>
<g id="Layer-1" data-name="P">
<clipPath id="cp1">
<path transform="matrix(1,0,0,-1,0,841.6)" d="M .000008869 -.000061035 L 595.2 -.000061035 L 595.2 841.5999 L .000008869 841.5999 Z " fill-rule="evenodd"/>
</clipPath>
<g clip-path="url(#cp1)">
<text xml:space="preserve" transform="matrix(1 0 -0 1 0 841.6)" font-size="16.025" font-family="Calibri"><tspan y="-725.5" x="298"> </tspan></text>
</g>
</g>
<g id="Layer-1" data-name="P">
<clipPath id="cp2">
<path transform="matrix(1,0,0,-1,0,841.6)" d="M .000008869 -.000061035 L 595.2 -.000061035 L 595.2 841.5999 L .000008869 841.5999 Z " fill-rule="evenodd"/>
</clipPath>
<g clip-path="url(#cp2)">
<text xml:space="preserve" transform="matrix(1 0 -0 1 0 841.6)" font-size="16.025" font-family="Calibri"><tspan y="-695.88" x="238.72 247.5017 253.89566 264.32795 271.52317 279.5036 283.4938 292.2755 302.7078 313.12403 321.10447 329.88618 339.50117 348.28288">CLOSE CONTRACT</tspan></text>
</g>
<clipPath id="cp3">
<path transform="matrix(1,0,0,-1,0,841.6)" d="M .000008869 -.000061035 L 595.2 -.000061035 L 595.2 841.5999 L .000008869 841.5999 Z " fill-rule="evenodd"/>
</clipPath>
<g clip-path="url(#cp3)">
<text xml:space="preserve" transform="matrix(1 0 -0 1 0 841.6)" font-size="16.025" font-family="Calibri"><tspan y="-695.88" x="356.48"> </tspan></text>
</g>
</g>
<g id="Layer-1" data-name="P">
<clipPath id="cp4">
<path transform="matrix(1,0,0,-1,0,841.6)" d="M .000008869 -.000061035 L 595.2 -.000061035 L 595.2 841.5999 L .000008869 841.5999 Z " fill-rule="evenodd"/>
</clipPath>
<g clip-path="url(#cp4)">
<text xml:space="preserve" transform="matrix(1 0 -0 1 0 841.6)" font-size="11.2" font-family="Calibri" font-weight="bold"><tspan y="-671.85" x="216.3">Q</tspan></text>
</g>
<clipPath id="cp5">
<path transform="matrix(1,0,0,-1,0,841.6)" d="M .000008869 -.000061035 L 595.2 -.000061035 L 595.2 841.5999 L .000008869 841.5999 Z " fill-rule="evenodd"/>
</clipPath>
<g clip-path="url(#cp5)">
<text xml:space="preserve" transform="matrix(1 0 -0 1 0 841.6)" font-size="11.2" font-family="Calibri" font-weight="bold"><tspan y="-671.85" x="224.3 229.88881 239.50962 245.09842 246.70003 249.89203 256.27604 261.06965">TMT Inc.</tspan></text>
</g>
<clipPath id="cp6">
<path transform="matrix(1,0,0,-1,0,841.6)" d="M .000008869 -.000061035 L 595.2 -.000061035 L 595.2 841.5999 L .000008869 841.5999 Z " fill-rule="evenodd"/>
</clipPath>
<g clip-path="url(#cp6)">
<text xml:space="preserve" transform="matrix(1 0 -0 1 0 841.6)" font-size="11.2" font-family="Calibri" font-weight="bold"><tspan y="-671.85" x="264.35 267.542 269.1436 274.7436 281.1276 287.5116 291.4988 295.47483 301.08604 305.87965 309.86686 311.46846 317.06846 319.46525 325.84925 330.64286 337.02687 341.00288 346.63648 348.22688 355.42848 361.81248 365.79969 368.19648 372.99009">, Contract Closure Notice</tspan></text>
</g>
<clipPath id="cp7">
<path transform="matrix(1,0,0,-1,0,841.6)" d="M .000008869 -.000061035 L 595.2 -.000061035 L 595.2 841.5999 L .000008869 841.5999 Z " fill-rule="evenodd"/>
</clipPath>
<g clip-path="url(#cp7)">
<text xml:space="preserve" transform="matrix(1 0 -0 1 0 841.6)" font-size="11.2" font-family="Calibri" font-weight="bold"><tspan y="-671.85" x="378.9"> </tspan></text>
</g>
</g>
<g id="Layer-1" data-name="P">
<clipPath id="cp8">
<path transform="matrix(1,0,0,-1,0,841.6)" d="M .000008869 -.000061035 L 595.2 -.000061035 L 595.2 841.5999 L .000008869 841.5999 Z " fill-rule="evenodd"/>
</clipPath>
<g clip-path="url(#cp8)">
<text xml:space="preserve" transform="matrix(1 0 -0 1 0 841.6)" font-size="11.2" font-family="Calibri" font-weight="bold"><tspan y="-649.42" x="273.17 278.77003 284.37004 289.18605 294.77485 299.59086 305.17967 310.77967 316.37968">15/1/2021</tspan></text>
</g>
<clipPath id="cp9">
<path transform="matrix(1,0,0,-1,0,841.6)" d="M .000008869 -.000061035 L 595.2 -.000061035 L 595.2 841.5999 L .000008869 841.5999 Z " fill-rule="evenodd"/>
</clipPath>
<g clip-path="url(#cp9)">
<text xml:space="preserve" transform="matrix(1 0 -0 1 0 841.6)" font-size="11.2" font-family="Calibri" font-weight="bold"><tspan y="-649.42" x="322.02"> </tspan></text>
</g>
</g>
<g id="Layer-1" data-name="P">
<clipPath id="cp10">
<path transform="matrix(1,0,0,-1,0,841.6)" d="M .000008869 -.000061035 L 595.2 -.000061035 L 595.2 841.5999 L .000008869 841.5999 Z " fill-rule="evenodd"/>
</clipPath>
<g clip-path="url(#cp10)">
<text xml:space="preserve" transform="matrix(1 0 -0 1 0 841.6)" font-size="11.2" font-family="Calibri"><tspan y="-627" x="72.1 77.6888 83.288799 85.68559 90.479198 92.87599 95.27279 100.85039 104.859989 108.84718 114.42478 118.43438 120.03597 125.63597 129.62317 135.22318 140.02797 142.42478 148.02478 153.60239 158.41838 160.81519 164.01839 169.6184 173.60559 182.4088 187.9976 190.39441 192.79122 198.39122 203.99123 207.97843 210.37523 215.16883 220.74643 223.16564 227.15283 232.75284 238.34165 242.32884 243.93045 247.91765 253.51766 259.09526 261.51445 269.52244 275.11125 279.09846 283.90327 286.30006 291.09367 296.69367 302.29368 306.28089 310.2681 315.8569 320.6505 324.63774 330.21534 335.83775 337.43934 345.44734 347.84413 351.83134 357.43135 359.82814 366.22334 371.80094 377.42335 383.02336 385.42015 391.80415 399.00575 402.19773 403.79933 407.0025 416.6121 419.81529 422.21208 428.59608 435.78648 442.97688 444.57847 450.17848 455.76728 460.56089 462.16249 467.76249 473.3401 478.9513 484.5513">This letter provides formal notice that the work contracted with Aeon CO. (M) BHD has been </tspan></text>
</g>
<clipPath id="cp11">
<path transform="matrix(1,0,0,-1,0,841.6)" d="M .000008869 -.000061035 L 595.2 -.000061035 L 595.2 841.5999 L .000008869 841.5999 Z " fill-rule="evenodd"/>
</clipPath>
<g clip-path="url(#cp11)">
<text xml:space="preserve" transform="matrix(1 0 -0 1 0 841.6)" font-size="11.2" font-family="Calibri"><tspan y="-612.57" x="72.1 76.8936 82.4936 91.2968 96.8968 99.293598 104.87119 108.88079 114.45839 120.08079 123.27279 125.669589 132.87119 138.45999 148.0696 153.6584 155.26001 158.45201 164.05202 168.84561 171.24242 176.84243 182.43123 187.22483 188.82643 194.42644 200.00405 204.83124 210.40885 212.82805 218.42806 224.02806 229.60567 235.22808 238.42008 244.00888 246.40569 251.19928 256.7881 260.7753 262.3769 267.9769 270.3737 275.9625 279.9497 285.5273 287.1513 291.13853 296.71614 301.53215 307.13215 312.72096 318.32096 320.71775 324.70497 327.10176 332.70176 338.30177 340.69856 345.49217 350.29698 355.09059 359.0778 364.6554 373.481 375.08259 379.0698 384.6698 390.2586 394.24583 395.8474 400.64103 406.22984 411.82984 414.22663 419.80424 424.65385 428.61866 432.60588 438.19468 442.98829 446.9755 448.5771 453.3707 458.9595 462.94673 464.5483 470.14833 475.74833 484.5515 490.15153 495.72914 499.73875">completed. QTMT Inc has developed a car plate recognition system that can extract car number </tspan></text>
</g>
<clipPath id="cp12">
<path transform="matrix(1,0,0,-1,0,841.6)" d="M .000008869 -.000061035 L 595.2 -.000061035 L 595.2 841.5999 L .000008869 841.5999 Z " fill-rule="evenodd"/>
</clipPath>
<g clip-path="url(#cp12)">
<text xml:space="preserve" transform="matrix(1 0 -0 1 0 841.6)" font-size="11.2" font-family="Calibri"><tspan y="-598.17" x="72.1 77.7 80.096797 85.68559 89.67279 95.25039">plate </tspan></text>
</g>
<clipPath id="cp13">
<path transform="matrix(1,0,0,-1,0,841.6)" d="M .000008869 -.000061035 L 595.2 -.000061035 L 595.2 841.5999 L .000008869 841.5999 Z " fill-rule="evenodd"/>
</clipPath>
<g clip-path="url(#cp13)">
<text xml:space="preserve" transform="matrix(1 0 -0 1 0 841.6)" font-size="11.2" font-family="Calibri"><tspan y="-598.17" x="97.725 100.9282 104.9154 110.515399 119.318599 121.71539 125.70259 131.3026 136.8802 139.29941 141.69622 150.49942 156.08823 161.67704 167.25464 168.87865 173.67224 179.26105 184.86106 188.84825 194.44826 198.43546 204.01306 209.63547">from the image captured.</tspan></text>
</g>
<clipPath id="cp14">
<path transform="matrix(1,0,0,-1,0,841.6)" d="M .000008869 -.000061035 L 595.2 -.000061035 L 595.2 841.5999 L .000008869 841.5999 Z " fill-rule="evenodd"/>
</clipPath>
<g clip-path="url(#cp14)">
<text xml:space="preserve" transform="matrix(1 0 -0 1 0 841.6)" font-size="11.2" font-family="Calibri"><tspan y="-598.17" x="213.08"> </tspan></text>
</g>
</g>
<g id="Layer-1" data-name="P">
<clipPath id="cp15">
<path transform="matrix(1,0,0,-1,0,841.6)" d="M .000008869 -.000061035 L 595.2 -.000061035 L 595.2 841.5999 L .000008869 841.5999 Z " fill-rule="evenodd"/>
</clipPath>
<g clip-path="url(#cp15)">
<text xml:space="preserve" transform="matrix(1 0 -0 1 0 841.6)" font-size="11.2" font-family="Calibri"><tspan y="-574.95" x="72.1 79.3016 84.901599 90.479198 95.3064 98.49839 104.08719 109.67599 115.275989 116.87758 120.86478 123.26157 128.86157 134.45038 137.64238 139.24399 143.23119 148.83119 154.4088 156.828 162.42801 166.4152 172.01522 174.41202 179.98963 184.80562 188.79282 191.18962 199.99283 205.58164 211.18164 216.77045 222.35926 227.93686 231.94646 235.13846 236.74007 242.34008 247.92888 252.72248 254.32408 259.92408 263.9113 269.5113 274.3161 276.7129 282.3129 287.8905 293.5129 295.9097 299.8969 305.49693 311.07453 313.4937 316.6969 322.2969 324.6937 327.09049 332.6905 340.6985 343.09529 348.69529 354.2841 357.47608 363.07609 368.6537 372.6633 375.8665 381.4665 385.4537 394.2569 399.8457 405.4457 410.23933 415.81694 417.44093 423.02973 427.82334 432.61695 438.19456 443.01057 447.80418 456.60737 462.18498 467.80738 471.7946 473.39619 476.59938 482.19938 486.18659 487.78819 491.7754 497.3754">Quek Yao Jing, the project manager, has provided the following performance assessment for the</tspan></text>
</g>
<clipPath id="cp16">
<path transform="matrix(1,0,0,-1,0,841.6)" d="M .000008869 -.000061035 L 595.2 -.000061035 L 595.2 841.5999 L .000008869 841.5999 Z " fill-rule="evenodd"/>
</clipPath>
<g clip-path="url(#cp16)">
<text xml:space="preserve" transform="matrix(1 0 -0 1 0 841.6)" font-size="11.2" font-family="Calibri"><tspan y="-574.95" x="503.88"> </tspan></text>
</g>
<clipPath id="cp17">
<path transform="matrix(1,0,0,-1,0,841.6)" d="M .000008869 -.000061035 L 595.2 -.000061035 L 595.2 841.5999 L .000008869 841.5999 Z " fill-rule="evenodd"/>
</clipPath>
<g clip-path="url(#cp17)">
<text xml:space="preserve" transform="matrix(1 0 -0 1 0 841.6)" font-size="11.2" font-family="Calibri"><tspan y="-560.52" x="72.1 76.8936 82.4936 88.0936 93.693599 99.271198 103.28079 108.86959 112.85679 115.253589 120.853588">cooperation</tspan></text>
</g>
<clipPath id="cp18">
<path transform="matrix(1,0,0,-1,0,841.6)" d="M .000008869 -.000061035 L 595.2 -.000061035 L 595.2 841.5999 L .000008869 841.5999 Z " fill-rule="evenodd"/>
</clipPath>
<g clip-path="url(#cp18)">
<text xml:space="preserve" transform="matrix(1 0 -0 1 0 841.6)" font-size="11.2" font-family="Calibri"><tspan y="-560.52" x="126.57"> </tspan></text>
</g>
<clipPath id="cp19">
<path transform="matrix(1,0,0,-1,0,841.6)" d="M .000008869 -.000061035 L 595.2 -.000061035 L 595.2 841.5999 L .000008869 841.5999 Z " fill-rule="evenodd"/>
</clipPath>
<g clip-path="url(#cp19)">
<text xml:space="preserve" transform="matrix(1 0 -0 1 0 841.6)" font-size="11.2" font-family="Calibri"><tspan y="-560.52" x="128.98 134.58 138.5672 144.1672 148.972 151.3688 156.96881 162.54642 168.16883">provided:</tspan></text>
</g>
<clipPath id="cp20">
<path transform="matrix(1,0,0,-1,0,841.6)" d="M .000008869 -.000061035 L 595.2 -.000061035 L 595.2 841.5999 L .000008869 841.5999 Z " fill-rule="evenodd"/>
</clipPath>
<g clip-path="url(#cp20)">
<text xml:space="preserve" transform="matrix(1 0 -0 1 0 841.6)" font-size="11.2" font-family="Calibri"><tspan y="-560.52" x="171.43"> </tspan></text>
</g>
</g>
<g id="Layer-1" data-name="P">
<clipPath id="cp21">
<path transform="matrix(1,0,0,-1,0,841.6)" d="M .000008869 -.000061035 L 595.2 -.000061035 L 595.2 841.5999 L .000008869 841.5999 Z " fill-rule="evenodd"/>
</clipPath>
<g clip-path="url(#cp21)">
<text xml:space="preserve" transform="matrix(1 0 -0 1 0 841.6)" font-size="11.2" font-family="Calibri"><tspan y="-538.13" x="72.1"> </tspan></text>
</g>
<clipPath id="cp22">
<path transform="matrix(1,0,0,-1,0,841.6)" d="M .000008869 -.000061035 L 595.2 -.000061035 L 595.2 841.5999 L .000008869 841.5999 Z " fill-rule="evenodd"/>
</clipPath>
<g clip-path="url(#cp22)">
<text xml:space="preserve" transform="matrix(1 0 -0 1 0 841.6)" font-size="11.2" font-family="Calibri"><tspan y="-538.13" x="108.15 112.9436 122.56441 128.14202 130.56122 138.56922 144.14682 148.14522 153.72283 155.34683 160.15163 165.72924 169.73883 174.54363 177.73563 183.33563 185.73244 191.31005 196.92125 201.71485 207.29245">&#x201c;We were very pleased</tspan></text>
</g>
<clipPath id="cp23">
<path transform="matrix(1,0,0,-1,0,841.6)" d="M .000008869 -.000061035 L 595.2 -.000061035 L 595.2 841.5999 L .000008869 841.5999 Z " fill-rule="evenodd"/>
</clipPath>
<g clip-path="url(#cp23)">
<text xml:space="preserve" transform="matrix(1 0 -0 1 0 841.6)" font-size="11.2" font-family="Calibri"><tspan y="-538.13" x="213.08"> </tspan></text>
</g>
<clipPath id="cp24">
<path transform="matrix(1,0,0,-1,0,841.6)" d="M .000008869 -.000061035 L 595.2 -.000061035 L 595.2 841.5999 L .000008869 841.5999 Z " fill-rule="evenodd"/>
</clipPath>
<g clip-path="url(#cp24)">
<text xml:space="preserve" transform="matrix(1 0 -0 1 0 841.6)" font-size="11.2" font-family="Calibri"><tspan y="-538.13" x="214.68 222.68799 225.0848 229.07199 234.672 237.0688 241.056 246.656 252.23361 254.65282 259.4464 265.04643 270.64643 276.24644 281.82405 285.83366 291.42247 295.40968 297.80647 303.40647 309.00648 311.40327 317.00328 320.99049 326.59049 331.3953 333.79209 339.3921 344.9697 350.5921 353.7841 356.98728 360.9745 366.5745 375.3777 377.77449 384.16969 389.74729 395.3697 400.9697 403.3665 409.7505 416.9521 420.14408 421.74568 424.94886 434.55845 437.76164 440.9536 447.33763 454.528 461.7184 464.9104 466.512 472.1008 477.7008 483.2784 484.9024 489.696 493.68324 499.27204 502.47523 505.6784">with the cooperation provided from Aeon CO. (M) BHD. The staff </tspan></text>
</g>
<clipPath id="cp25">
<path transform="matrix(1,0,0,-1,0,841.6)" d="M .000008869 -.000061035 L 595.2 -.000061035 L 595.2 841.5999 L .000008869 841.5999 Z " fill-rule="evenodd"/>
</clipPath>
<g clip-path="url(#cp25)">
<text xml:space="preserve" transform="matrix(1 0 -0 1 0 841.6)" font-size="11.2" font-family="Calibri"><tspan y="-523.7" x="72.1 75.3032 79.2904 84.890399 93.693599 96.09039 102.485599 108.063198 113.68559 119.28559 122.477588 128.07759 133.6664 138.47119 144.0488 146.468 152.0568 154.4536 159.25839 164.836 170.4584 172.85521 176.05841 181.65842 184.05522 186.45203 189.64403 194.43762 200.03763">from Aeon have given full coo</tspan></text>
</g>
<clipPath id="cp26">
<path transform="matrix(1,0,0,-1,0,841.6)" d="M .000008869 -.000061035 L 595.2 -.000061035 L 595.2 841.5999 L .000008869 841.5999 Z " fill-rule="evenodd"/>
</clipPath>
<g clip-path="url(#cp26)">
<text xml:space="preserve" transform="matrix(1 0 -0 1 0 841.6)" font-size="11.2" font-family="Calibri"><tspan y="-523.7" x="205.88 211.48001 217.05762 221.06722 226.65602 230.64322 233.04003 238.64003 244.24004 246.63684 252.22565 256.21287 261.79048 263.41447 271.42247 273.81925 276.21604 278.61283 281.0096 286.60963 292.19844 294.5952 298.58244 304.18244 306.57923 312.17924 317.76805 322.57286 328.15046 330.56965 336.15846 341.75846 347.35847 352.95848 355.35527 360.14888 365.74888 374.55207 383.35527 388.95527 394.55528 396.95207 401.74568 407.33448 411.3217 413.71849 419.31849 424.9185 429.7121 432.1089 440.11689 442.51368 446.5009 452.1009 454.49769 461.69929 467.2881 476.89768 482.48649 484.88328 488.07527 493.67527 498.46888 501.66087 503.26246 508.05607 513.656">peration are willing to have good communications with QTMT Inc. so </tspan></text>
</g>
<clipPath id="cp27">
<path transform="matrix(1,0,0,-1,0,841.6)" d="M .000008869 -.000061035 L 595.2 -.000061035 L 595.2 841.5999 L .000008869 841.5999 Z " fill-rule="evenodd"/>
</clipPath>
<g clip-path="url(#cp27)">
<text xml:space="preserve" transform="matrix(1 0 -0 1 0 841.6)" font-size="11.2" font-family="Calibri"><tspan y="-509.27" x="72.1 76.0872 81.687198 87.27599 91.26319 92.864788 96.85198 102.45198 108.02958 110.44878 118.45678 124.04558 129.64559 132.04239 137.62 140.0392 145.6392 149.6264 155.22641 157.62322 163.20082 168.01682 172.00402 174.40082 179.19441 184.78322 190.38323 192.78003 198.38004 203.95764 206.37685 211.97686 217.57686 223.17687 228.75447 231.96887 234.36568 239.96569 242.36249 247.9513 250.3481 255.1529 260.7305 264.7401 269.54493 271.9417 276.73533 285.5385 291.13853 296.73854 300.72575 306.32575 308.72254 314.32255 319.91136 324.70497 330.28257 333.49696 335.09855 344.71934 350.29695 352.71614 360.72413 366.30174 370.30015 375.87776 378.29695 383.87455 388.72416 392.68898 396.67619 402.25379 411.07939 416.65699 419.07618 423.88099 425.48258 431.08259 436.6714 442.2714 447.8714 452.6762 455.8682 459.8554 465.4554 467.8522 475.8602 481.449 485.43623 490.24104">that the whole project can be done in a very smooth pace. We were extremely happy to work </tspan></text>
</g>
<clipPath id="cp28">
<path transform="matrix(1,0,0,-1,0,841.6)" d="M .000008869 -.000061035 L 595.2 -.000061035 L 595.2 841.5999 L .000008869 841.5999 Z " fill-rule="evenodd"/>
</clipPath>
<g clip-path="url(#cp28)">
<text xml:space="preserve" transform="matrix(1 0 -0 1 0 841.6)" font-size="11.2" font-family="Calibri"><tspan y="-494.87" x="72.1 76.0872 81.687198 87.27599 92.85359 96.86319 102.46319 108.04079 112.050388 113.65198 121.65998 124.05678 128.04398 133.64398 136.04079 142.43599 148.0136 153.636 159.23601 161.63282 168.01682 175.21842 178.41042 180.01203 183.21523 192.82483 196.02803 198.42484 204.80884 211.99924 219.18964 220.79125 226.38005 231.98006 237.58007 239.97687 247.98487 253.56247 255.98166 261.57048 265.55769 271.13529 272.75929 275.15608 280.75608 286.35609 291.1609 293.55769 299.15769 304.7465 307.93849 311.14167 316.74168 320.72889 328.73689 334.31449 338.3017 343.9017 346.2985 349.50169 355.10169 359.0889 361.4857 365.4729 371.0729 376.6505 379.0697 384.6697 390.2473 395.09693 399.06175 401.45854 406.25215 411.85215 414.24894 416.64573 422.23454 427.83454 433.43455 437.42176 443.01057 446.99778 449.39457 454.99458 460.59458">together with Aeon CO. (M) BHD and we are looking forward for the next collaboration.</tspan></text>
</g>
<clipPath id="cp29">
<path transform="matrix(1,0,0,-1,0,841.6)" d="M .000008869 -.000061035 L 595.2 -.000061035 L 595.2 841.5999 L .000008869 841.5999 Z " fill-rule="evenodd"/>
</clipPath>
<g clip-path="url(#cp29)">
<text xml:space="preserve" transform="matrix(1 0 -0 1 0 841.6)" font-size="11.2" font-family="Calibri"><tspan y="-494.87" x="464.63"> </tspan></text>
</g>
</g>
<g id="Layer-1" data-name="P">
<clipPath id="cp30">
<path transform="matrix(1,0,0,-1,0,841.6)" d="M .000008869 -.000061035 L 595.2 -.000061035 L 595.2 841.5999 L .000008869 841.5999 Z " fill-rule="evenodd"/>
</clipPath>
<g clip-path="url(#cp30)">
<text xml:space="preserve" transform="matrix(1 0 -0 1 0 841.6)" font-size="11.2" font-family="Calibri"><tspan y="-472.45" x="72.1"> </tspan></text>
</g>
</g>
<g id="Layer-1" data-name="P">
<clipPath id="cp31">
<path transform="matrix(1,0,0,-1,0,841.6)" d="M .000008869 -.000061035 L 595.2 -.000061035 L 595.2 841.5999 L .000008869 841.5999 Z " fill-rule="evenodd"/>
</clipPath>
<g clip-path="url(#cp31)">
<text xml:space="preserve" transform="matrix(1 0 -0 1 0 841.6)" font-size="11.2" font-family="Calibri"><tspan y="-450.02" x="72.1"> </tspan></text>
</g>
</g>
<g id="Layer-1" data-name="P">
<clipPath id="cp32">
<path transform="matrix(1,0,0,-1,0,841.6)" d="M .000008869 -.000061035 L 595.2 -.000061035 L 595.2 841.5999 L .000008869 841.5999 Z " fill-rule="evenodd"/>
</clipPath>
<g clip-path="url(#cp32)">
<text xml:space="preserve" transform="matrix(1 0 -0 1 0 841.6)" font-size="11.2" font-family="Calibri"><tspan y="-414.8" x="72.1"> </tspan></text>
</g>
<clipPath id="cp33">
<path transform="matrix(1,0,0,-1,0,841.6)" d="M .000008869 -.000061035 L 595.2 -.000061035 L 595.2 841.5999 L .000008869 841.5999 Z " fill-rule="evenodd"/>
</clipPath>
<g clip-path="url(#cp33)">
<text xml:space="preserve" transform="matrix(1 0 -0 1 0 841.6)" font-size="26.425" font-family="BradleyHandITC"><tspan y="-414.8" x="108.15 127.360988 146.57196 162.5591">QUEK</tspan></text>
</g>
<clipPath id="cp34">
<path transform="matrix(1,0,0,-1,0,841.6)" d="M .000008869 -.000061035 L 595.2 -.000061035 L 595.2 841.5999 L .000008869 841.5999 Z " fill-rule="evenodd"/>
</clipPath>
<g clip-path="url(#cp34)">
<text xml:space="preserve" transform="matrix(1 0 -0 1 0 841.6)" font-size="11.2" font-family="BradleyHandITC"><tspan y="-414.8" x="181.85"> </tspan></text>
</g>
</g>
<g id="Layer-1" data-name="P">
<clipPath id="cp35">
<path transform="matrix(1,0,0,-1,0,841.6)" d="M .000008869 -.000061035 L 595.2 -.000061035 L 595.2 841.5999 L .000008869 841.5999 Z " fill-rule="evenodd"/>
</clipPath>
<g clip-path="url(#cp35)">
<text xml:space="preserve" transform="matrix(1 0 -0 1 0 841.6)" font-size="11.2" font-family="Calibri"><tspan y="-384.38" x="72.1 78.48399 83.288799 86.4808">By: </tspan></text>
</g>
<clipPath id="cp36">
<path transform="matrix(1,0,0,-1,0,841.6)" d="M .000008869 -.000061035 L 595.2 -.000061035 L 595.2 841.5999 L .000008869 841.5999 Z " fill-rule="evenodd"/>
</clipPath>
<g clip-path="url(#cp36)">
<text xml:space="preserve" transform="matrix(1 0 -0 1 0 841.6)" font-size="11.2" font-family="Calibri"><tspan y="-384.38" x="88.125"> </tspan></text>
</g>
<clipPath id="cp37">
<path transform="matrix(1,0,0,-1,0,841.6)" d="M .000008869 -.000061035 L 595.2 -.000061035 L 595.2 841.5999 L .000008869 841.5999 Z " fill-rule="evenodd"/>
</clipPath>
<g clip-path="url(#cp37)">
<text xml:space="preserve" transform="matrix(1 0 -0 1 0 841.6)" font-size="11.2" font-family="Calibri"><tspan y="-384.38" x="108.15 115.3516 122.542 128.142 133.742 136.13881 141.72762 148.12282 155.32442 157.72122 161.70842 164.90042 172.10202 179.29242 182.48442 184.08603 190.47003 196.05884 203.26044 206.45244 208.05405 215.25565 220.84445 230.45406 236.04286 237.64447 240.83647 246.43648 251.23007">QUEK YAO JING, CEO, QTMT Inc.</tspan></text>
</g>
<clipPath id="cp38">
<path transform="matrix(1,0,0,-1,0,841.6)" d="M .000008869 -.000061035 L 595.2 -.000061035 L 595.2 841.5999 L .000008869 841.5999 Z " fill-rule="evenodd"/>
</clipPath>
<g clip-path="url(#cp38)">
<text xml:space="preserve" transform="matrix(1 0 -0 1 0 841.6)" font-size="11.2" font-family="Calibri"><tspan y="-384.38" x="254.75"> </tspan></text>
</g>
<path transform="matrix(1,0,0,-1,0,841.6)" d="M 108.15 381.97 L 254.75 381.97 L 254.75 382.77 L 108.15 382.77 Z " fill-rule="evenodd"/>
</g>
<g id="Layer-1" data-name="P">
<clipPath id="cp39">
<path transform="matrix(1,0,0,-1,0,841.6)" d="M .000008869 -.000061035 L 595.2 -.000061035 L 595.2 841.5999 L .000008869 841.5999 Z " fill-rule="evenodd"/>
</clipPath>
<g clip-path="url(#cp39)">
<text xml:space="preserve" transform="matrix(1 0 -0 1 0 841.6)" font-size="11.2" font-family="Calibri"><tspan y="-361.95" x="72.1 79.2904 84.879199 88.866397 94.44399">Date:</tspan></text>
</g>
<clipPath id="cp40">
<path transform="matrix(1,0,0,-1,0,841.6)" d="M .000008869 -.000061035 L 595.2 -.000061035 L 595.2 841.5999 L .000008869 841.5999 Z " fill-rule="evenodd"/>
</clipPath>
<g clip-path="url(#cp40)">
<text xml:space="preserve" transform="matrix(1 0 -0 1 0 841.6)" font-size="11.2" font-family="Calibri"><tspan y="-361.95" x="97.725"> </tspan></text>
</g>
<clipPath id="cp41">
<path transform="matrix(1,0,0,-1,0,841.6)" d="M .000008869 -.000061035 L 595.2 -.000061035 L 595.2 841.5999 L .000008869 841.5999 Z " fill-rule="evenodd"/>
</clipPath>
<g clip-path="url(#cp41)">
<text xml:space="preserve" transform="matrix(1 0 -0 1 0 841.6)" font-size="11.2" font-family="Calibri"><tspan y="-361.95" x="108.15 113.75 119.35 123.348407 128.94841 132.94681 138.54682 144.14682 149.74683">15/1/2021</tspan></text>
</g>
<clipPath id="cp42">
<path transform="matrix(1,0,0,-1,0,841.6)" d="M .000008869 -.000061035 L 595.2 -.000061035 L 595.2 841.5999 L .000008869 841.5999 Z " fill-rule="evenodd"/>
</clipPath>
<g clip-path="url(#cp42)">
<text xml:space="preserve" transform="matrix(1 0 -0 1 0 841.6)" font-size="11.2" font-family="Calibri"><tspan y="-361.95" x="155.4 158.60019">  </tspan></text>
</g>
<clipPath id="cp43">
<path transform="matrix(1,0,0,-1,0,841.6)" d="M .000008869 -.000061035 L 595.2 -.000061035 L 595.2 841.5999 L .000008869 841.5999 Z " fill-rule="evenodd"/>
</clipPath>
<g clip-path="url(#cp43)">
<text xml:space="preserve" transform="matrix(1 0 -0 1 0 841.6)" font-size="11.2" font-family="Calibri"><tspan y="-361.95" x="161.02"> </tspan></text>
</g>
<path transform="matrix(1,0,0,-1,0,841.6)" d="M 108.15 359.55 L 155.4 359.55 L 155.4 360.35 L 108.15 360.35 Z " fill-rule="evenodd"/>
</g>
</g>
</g>
</svg>
