<?xml version="1.0" encoding="UTF-8" standalone="no"?>
<!DOCTYPE svg PUBLIC "-//W3C//DTD SVG 1.1//EN" "http://www.w3.org/Graphics/SVG/1.1/DTD/svg11.dtd">
<svg xmlns="http://www.w3.org/2000/svg" xmlns:xlink="http://www.w3.org/1999/xlink" version="1.1" width="612pt" height="792pt" viewBox="0 0 612 792">
<g enable-background="new">
<g id="Layer-1" data-name="P">
</g>
<text xml:space="preserve" transform="matrix(1 0 -0 1 0 792)" font-size="12" font-family="TimesNewRomanPSMT"><tspan y="-708.84" x="72"> </tspan></text>
<g id="Layer-1" data-name="P">
<clipPath id="cp0">
<path transform="matrix(1,0,0,-1,0,792)" d="M 90.24 653.04 L 517.2 653.04 L 517.2 705.72 L 90.24 705.72 Z "/>
</clipPath>
<g clip-path="url(#cp0)">
<text xml:space="preserve" transform="matrix(1 0 -0 1 0 792)" font-size="9" font-family="Arial" font-weight="bold"><tspan y="-697.32" x="312.72"> </tspan></text>
</g>
</g>
<g id="Layer-1" data-name="P">
</g>
<g id="Layer-1" data-name="P">
</g>
<g id="Layer-1" data-name="P">
</g>
<text xml:space="preserve" transform="matrix(1 0 -0 1 0 792)" font-size="9" font-family="Arial" font-weight="bold"><tspan y="-686.16" x="247.92 253.4397 259.4427 265.44569 271.44868 278.40928 284.88926 290.89225 293.88926 299.40895 305.4092 311.88923 318.36924 324.84925 330.84864 337.32865 339.84867 346.32868 352.32896 358.32926 365.40867 371.88868 377.403">LESSONS-LEARNED REPORT </tspan><tspan y="-675" x="269.403 274.443 279.48298 282.003 288.483 294.4833 300.96333 306.9627 314.5227 321.00273 327.00303 333.48304 336.00306 341.04304 345.96244 351.00334">20 DECEMBER 2020</tspan></text>
<text xml:space="preserve" transform="matrix(1 0 -0 1 0 792)" font-size="9" font-family="ArialMT"><tspan y="-675" x="355.92"> </tspan><tspan y="-663.723" x="95.397"> </tspan></text>
<g id="Layer-1" data-name="Artifact">
<path transform="matrix(1,0,0,-1,0,792)" d="M 89.76 705.72 L 90.241008 705.72 L 90.241008 706.201 L 89.76 706.201 Z "/>
<path transform="matrix(1,0,0,-1,0,792)" d="M 89.76 705.72 L 90.241008 705.72 L 90.241008 706.201 L 89.76 706.201 Z "/>
<path transform="matrix(1,0,0,-1,0,792)" d="M 90.24 705.72 L 517.32 705.72 L 517.32 706.201 L 90.24 706.201 Z "/>
<path transform="matrix(1,0,0,-1,0,792)" d="M 517.32 705.72 L 517.8 705.72 L 517.8 706.201 L 517.32 706.201 Z "/>
<path transform="matrix(1,0,0,-1,0,792)" d="M 517.32 705.72 L 517.8 705.72 L 517.8 706.201 L 517.32 706.201 Z "/>
<path transform="matrix(1,0,0,-1,0,792)" d="M 89.76 653.04 L 90.241008 653.04 L 90.241008 705.72 L 89.76 705.72 Z "/>
<path transform="matrix(1,0,0,-1,0,792)" d="M 517.32 653.04 L 517.8 653.04 L 517.8 705.72 L 517.32 705.72 Z "/>
</g>
<g id="Layer-1" data-name="P">
<clipPath id="cp1">
<path transform="matrix(1,0,0,-1,0,792)" d="M 90.24 555.12 L 517.2 555.12 L 517.2 652.56 L 90.24 652.56 Z "/>
</clipPath>
<g clip-path="url(#cp1)">
<text xml:space="preserve" transform="matrix(1 0 -0 1 0 792)" font-size="9" font-family="Arial" font-weight="bold"><tspan y="-644.16" x="113.4"> </tspan></text>
</g>
</g>
<g id="Layer-1" data-name="P">
</g>
<g id="Layer-1" data-name="P">
</g>
<g id="Layer-1" data-name="P">
</g>
<g id="Layer-1" data-name="P">
</g>
<g id="Layer-1" data-name="P">
</g>
<g id="Layer-1" data-name="P">
</g>
<g id="Layer-1" data-name="P">
</g>
<text xml:space="preserve" transform="matrix(1 0 -0 1 0 792)" font-size="9" font-family="Arial" font-weight="bold"><tspan y="-633" x="113.4 119.40031 122.87971 128.4003 130.92029 135.96028 141.00028 143.99999 146.51998 152.99997 158.03997 165.95996 170.99996 174.00057 176.52056 179.04055 185.52054 190.56053 194.03993 196.55992 202.56023 205.08022 210.12021 213.00022 218.0402 220.5602 227.04019 231.96048 237.00048 242.52017 248.04077 253.56047 256.08049 259.08018 261.60017 267.00016 272.52076 275.04075 281.04106 286.08106 291.12107 294.00016 299.04017">Project Name:  Car Plate Recognition System</tspan></text>
<text xml:space="preserve" transform="matrix(1 0 -0 1 0 792)" font-size="9" font-family="TimesNewRomanPSMT"><tspan y="-633" x="306.963"> </tspan></text>
<text xml:space="preserve" transform="matrix(1 0 -0 1 0 792)" font-size="9" font-family="ArialMT"><tspan y="-633" x="311.40003 313.92005 316.44007 318.96009 321.4801 323.88304">      </tspan><tspan y="-621.84" x="113.40004 115.92004 118.44003 120.96003 123.48003 126.00002 128.52004 131.04004 133.56005 135.96035 138.48035 141.00035 143.52036 146.04036 148.56037 150.96067 153.48067 156.00067 158.52068 161.04068 163.56069 165.96009 168.48009 171.00009 173.5201 176.0401 178.5601 180.9604 183.48041 186.00041 188.52042 191.04042 193.43704">                                 </tspan></text>
<text xml:space="preserve" transform="matrix(1 0 -0 1 0 792)" font-size="9" font-family="Arial" font-weight="bold"><tspan y="-610.68008" x="113.40005 119.400348 122.879749 128.40035 130.92035 135.95946 140.99947 144.00006 146.52007 152.51947 158.03917 163.55977 168.95977 173.99977 179.51947 182.99977">Project Sponsor:</tspan></text>
<text xml:space="preserve" transform="matrix(1 0 -0 1 0 792)" font-size="9" font-family="ArialMT"><tspan y="-610.68008" x="186.00305 188.52306 191.04306 193.56307 195.96337 198.48337 201.00337 203.52338 206.04338 208.56339 211.08339 217.0864 223.0894 229.9294 236.4094 238.9294 246.4894 251.52939 253.56969 255.48305">          AEON Mall </tspan></text>
<text xml:space="preserve" transform="matrix(1 0 -0 1 0 792)" font-size="9" font-family="Arial" font-weight="bold"><tspan y="-599.4031" x="113.400058 119.40036 122.87976 128.40036 130.92035 135.96035 141.00034 144.00005 146.52004 153.96035 159.00034 164.52004 169.56003 174.96004 180.00003 183.48033">Project Manager:</tspan></text>
<text xml:space="preserve" transform="matrix(1 0 -0 1 0 792)" font-size="9" font-family="ArialMT"><tspan y="-599.4031" x="186.48006"> </tspan></text>
<text xml:space="preserve" transform="matrix(1 0 -0 1 0 792)" font-size="9" font-family="TimesNewRomanPSMT"><tspan y="-599.4031" x="188.88306"> </tspan></text>
<text xml:space="preserve" transform="matrix(1 0 -0 1 0 792)" font-size="9" font-family="ArialMT"><tspan y="-599.4031" x="207.96306 210.48307 217.44277 222.48276 227.52275 232.08306 234.60305 240.60335 245.52274 250.56273 253.08272 257.52333 259.5636 264.6036 269.52308"> Quek Yao Jing </tspan></text>
<text xml:space="preserve" transform="matrix(1 0 -0 1 0 792)" font-size="9" font-family="Arial" font-weight="bold"><tspan y="-588.2431" x="113.40007 119.400379 122.879779 128.40038 130.92037 135.96036 141.00035 144.00006 146.52005 153.00005 158.04004 161.04065 165.96004 171.00003">Project Dates:</tspan></text>
<text xml:space="preserve" transform="matrix(1 0 -0 1 0 792)" font-size="9" font-family="TimesNewRomanPSMT"><tspan y="-588.2431" x="173.88007"> </tspan></text>
<text xml:space="preserve" transform="matrix(1 0 -0 1 0 792)" font-size="9" font-family="ArialMT"><tspan y="-588.2431" x="207.96308 210.48308 215.52307 220.56307 223.08306 228.12305 233.04334 235.56333 240.60332 245.64331 250.5636 255.60359 258.1201 261.1171 263.6371 268.5574 273.5974 276.1174 281.1574 283.5577 288.59773 293.63774 298.67774 303.59709"> 20/10/2020 - 15/1/2021 </tspan></text>
<text xml:space="preserve" transform="matrix(1 0 -0 1 0 792)" font-size="9" font-family="Arial" font-weight="bold"><tspan y="-577.0831" x="113.400089 118.919788 121.43978 126.95948 131.99948 134.51949 137.03949 143.51949 149.04009 154.43918 159.95978 164.99979 167.99948">Final Budget:</tspan></text>
<text xml:space="preserve" transform="matrix(1 0 -0 1 0 792)" font-size="9" font-family="TimesNewRomanPSMT"><tspan y="-577.0831" x="170.88309"> </tspan></text>
<text xml:space="preserve" transform="matrix(1 0 -0 1 0 792)" font-size="9" font-family="ArialMT"><tspan y="-577.0831" x="207.96309 210.4831 216.96309 224.52309 227.04308 232.08307 237.00336 242.04335 244.56334 249.60334 254.52362 259.44309"> RM 353,474 </tspan><tspan y="-565.80618" x="95.400089"> </tspan></text>
<g id="Layer-1" data-name="Artifact">
<path transform="matrix(1,0,0,-1,0,792)" d="M 89.76 652.56 L 90.241008 652.56 L 90.241008 653.04 L 89.76 653.04 Z "/>
<path transform="matrix(1,0,0,-1,0,792)" d="M 90.24 652.56 L 517.32 652.56 L 517.32 653.04 L 90.24 653.04 Z "/>
<path transform="matrix(1,0,0,-1,0,792)" d="M 517.32 652.56 L 517.8 652.56 L 517.8 653.04 L 517.32 653.04 Z "/>
<path transform="matrix(1,0,0,-1,0,792)" d="M 89.76 555.12 L 90.241008 555.12 L 90.241008 652.56 L 89.76 652.56 Z "/>
<path transform="matrix(1,0,0,-1,0,792)" d="M 517.32 555.12 L 517.8 555.12 L 517.8 652.56 L 517.32 652.56 Z "/>
</g>
<g id="Layer-1" data-name="LBody">
<clipPath id="cp2">
<path transform="matrix(1,0,0,-1,0,792)" d="M 90.24 87.48 L 517.2 87.48 L 517.2 554.64 L 90.24 554.64 Z "/>
</clipPath>
<g clip-path="url(#cp2)">
<text xml:space="preserve" transform="matrix(1 0 -0 1 0 792)" font-size="9" font-family="Arial" font-weight="bold"><tspan y="-546.24" x="95.4 100.44">a.</tspan></text>
</g>
<clipPath id="cp3">
<path transform="matrix(1,0,0,-1,0,792)" d="M 90.24 87.48 L 517.2 87.48 L 517.2 554.64 L 90.24 554.64 Z "/>
</clipPath>
<g clip-path="url(#cp3)">
<text xml:space="preserve" transform="matrix(1 0 -0 1 0 792)" font-size="9" font-family="Arial" font-weight="bold"><tspan y="-546.24" x="102.96"> </tspan></text>
</g>
<clipPath id="cp4">
<path transform="matrix(1,0,0,-1,0,792)" d="M 90.24 87.48 L 517.2 87.48 L 517.2 554.64 L 90.24 554.64 Z "/>
</clipPath>
<g clip-path="url(#cp4)">
<text xml:space="preserve" transform="matrix(1 0 -0 1 0 792)" font-size="9" font-family="Arial" font-weight="bold"><tspan y="-546.24" x="113.4 119.880008 122.40001 127.919719 130.43972 133.44033 138.96002 144.00002 146.52 152.0406 155.52 161.0406 163.44 168.48 173.51999 176.5206 179.04059 186.96059 192.00058 197.04058 200.04029 202.56027 207.48056 212.52056 218.04026 223.56085 228.48024 231.00023 233.40052 236.40023 238.92021 246.95722 251.99721 254.5172 259.5572 264.95719 270.4769 272.9969 278.0369 283.4369 288.4769 291.4766 293.99659 299.51719 305.0369 309.9572 312.4772 317.5172">Did the project meet scope, time and cost goals?</tspan></text>
</g>
<clipPath id="cp5">
<path transform="matrix(1,0,0,-1,0,792)" d="M 90.24 87.48 L 517.2 87.48 L 517.2 554.64 L 90.24 554.64 Z "/>
</clipPath>
<g clip-path="url(#cp5)">
<text xml:space="preserve" transform="matrix(1 0 -0 1 0 792)" font-size="9" font-family="Arial" font-weight="bold"><tspan y="-546.24" x="322.92"> </tspan></text>
</g>
</g>
<g id="Layer-1" data-name="P">
</g>
<g id="Layer-1" data-name="P">
</g>
<g id="Layer-1" data-name="LBody">
</g>
<g id="Layer-1" data-name="P">
</g>
<g id="Layer-1" data-name="P">
</g>
<g id="Layer-1" data-name="P">
</g>
<g id="Layer-1" data-name="P">
</g>
<g id="Layer-1" data-name="LBody">
</g>
<g id="Layer-1" data-name="P">
</g>
<g id="Layer-1" data-name="P">
</g>
<g id="Layer-1" data-name="P">
</g>
<g id="Layer-1" data-name="LBody">
</g>
<g id="Layer-1" data-name="P">
</g>
<g id="Layer-1" data-name="P">
</g>
<g id="Layer-1" data-name="P">
</g>
<g id="Layer-1" data-name="P">
</g>
<g id="Layer-1" data-name="P">
</g>
<g id="Layer-1" data-name="P">
</g>
<g id="Layer-1" data-name="P">
</g>
<g id="Layer-1" data-name="P">
</g>
<text xml:space="preserve" transform="matrix(1 0 -0 1 0 792)" font-size="9" font-family="ArialMT"><tspan y="-535.92" x="95.4"> </tspan><tspan y="-524.76" x="95.4 101.40031 106.44031 110.99971 113.519718 116.282718 122.64301 127.683017 130.44602 135.3654 137.4057 142.32599 145.08899 152.64899 157.56928 162.60927 165.12926 167.76985 170.28984 175.32984 180.24922 183.01222 190.57222 195.49251 197.5328 202.4522 205.2152 209.65489 214.09549 219.13549 224.17548 229.21547 231.85517 236.89516 239.41515 242.05574 247.09574 252.13573 255.01573 257.77876 262.81877 265.81935 270.85935 272.77906 277.81907 282.37937 284.77967 287.54267 294.02268 296.06297 298.46327 303.50328 305.54356 310.46296 313.22596 315.74595 320.78596 325.70628 328.46928 330.86958 332.78929 340.34928 345.38929 348.02989 353.0699 355.11018 359.54988 364.58988 369.5102 372.2732 377.3132 382.3532 387.27354 390.03654 394.47624 399.51625 403.95686 408.51628 413.43659 417.9969 422.5563 425.0763 429.9966 432.0369 433.9566 438.5169 441.15663 445.71693 450.63725 458.19725 463.23725 465.27665 470.19697 472.71696 477.75697 480.39668 482.91667 487.95668 492.87699 495.63999 498.15998 503.0803 507.6397 512.0803">Yes, we did meet the main scope of our project within the time given and successfully complete the task </tspan><tspan y="-513.48306" x="95.4 101.880008 103.9203 106.44031 111.48031 116.52031 121.56031 123.95971 126.47971 129.00061 134.0406 139.0806 141.47998 146.51998 151.08028 156.00057 158.52056 163.56055 166.08054 168.47992 173.51992 178.08022 180.6002 183.60082 188.5202 191.04019 198.60019 203.52048 208.56047 213.48076 217.92046 220.44045 225.48044 230.52043 235.56043 238.08042 241.08013 246.00041 250.56072 255.481 260.521 263.52159 268.081 273.0013 277.5616 280.0816 282.483">without the use of extra money and recourses.  </tspan></text>
<text xml:space="preserve" transform="matrix(1 0 -0 1 0 792)" font-size="9" font-family="Arial" font-weight="bold"><tspan y="-494.40306" x="95.399997 100.91969 103.437 113.399997 121.92029 127.439998 132.48 135.4797 137.87999 144.96028 150.00028 155.04027 157.56026 160.55997 165.95998 170.99997 173.51996 178.55995 183.95996 188.99996 194.03995 198.96024 204.00023 209.04022 211.56021 216.6002 220.0805 222.6005 225.4805 230.5205 234.0008 236.52079 241.56078 244.08077 246.60076 249.12075 254.16074 257.0407 262.08073 267.60044 270.12043 272.6404 278.161 280.681 283.5601 289.0807 294.1207 296.6407 302.1604 305.6407 311.1604 313.5607 318.6007 323.64073 326.6404 329.1604 334.08073 339.12074 344.64045 350.16105 355.08137 357.60136 362.64137 365.64195 370.68196 373.68165 378.72166 386.64164 391.68165 397.20225 400.20195 405.603">b. What was the success criteria listed in the project scope statement? </tspan></text>
<text xml:space="preserve" transform="matrix(1 0 -0 1 0 792)" font-size="9" font-family="ArialMT"><tspan y="-483.96305" x="95.399997"> </tspan><tspan y="-464.88307" x="95.399997 102.359699 107.3997 112.4397 114.7203 119.7603 122.280307 124.560009 127.08001 132.12001 137.16 139.4397 143.8803 148.92029 153.35999 157.92029 162.96028 167.39998 171.96028 174.23998 178.80028 181.79999 183.72058 186.24057 191.28057 194.28028 196.20087 201.24086 203.52056 208.08086 213.12085 215.64084 217.80083 222.84082 227.40023 229.68 235.6803 240.72029 245.76029 250.80028 252.96027 255.00057 259.55998">One of the success criteria set by Aeon is </tspan></text>
<text xml:space="preserve" transform="matrix(1 0 -0 1 0 792)" font-size="9" font-family="Arial" font-style="italic"><tspan y="-464.88307" x="261.83699 264.83399 269.874 274.7943 277.3143 282.3543 286.9146 289.4346 291.7143 294.1146 299.1546 304.1946 306.4743 310.91493 315.95494 318.95463 321.2343 326.27433 328.3146 333.3546 335.7549 340.79493 343.08 347.6403 352.6803 357.12 361.6803 366.5997 371.16 375.7203 378.1206 383.1606 385.2 387.1206 391.68003 393.9606 399.0006 404.04063 409.08064 411.36033 416.28065 420.84007 425.28068 430.32069 433.32038 438.36039 440.88038 445.8007 447.84098 452.4004 455.40098 457.80036">&#x201c;detect the car plate successfully and accurately&#x201d;. </tspan></text>
<text xml:space="preserve" transform="matrix(1 0 -0 1 0 792)" font-size="9" font-family="ArialMT"><tspan y="-464.88307" x="460.08 465.5997 470.6397 475.67973 477.9603 482.5197 487.5606 490.5603 492.84 497.763 499.80329 504.7263 507.1266 512.04959">The car plate </tspan><tspan y="-453.72306" x="95.399997 100.439998 105.479999 110.52 115.4403 119.9997 124.3197 126.84061 131.8806 136.20059 141.24059 146.28058 150.60057 153.60028 158.52057 163.07997 168.11997 173.04026 178.08025 180.12055 184.56024 189.60024 194.64023 198.96022 204.00022 207.00083 211.92021 216.8405 221.8805 224.8802 226.9205 231.4808 235.8008 240.2405 245.28049 249.60048 252.12047 257.16047 262.20048 264.72047 269.04048 270.96107 273.48106 277.80107 282.36048 287.40049 292.4405 296.7605 301.6799 306.7199 309.2399 314.16023 318.72053 321.2405 325.56053 328.0805 333.1205 338.03993 342.35993 347.39994 352.43995 360.00083 365.04084 370.08085 372.96083 377.52024 381.84025 386.88026 391.80058 396.84059 401.16059 406.2006 408.24089 413.28089 418.2012 423.2412 428.28123 433.32124 435.7206 440.2809 444.60093 449.64094 454.68095 458.88127 461.40126 466.44126 471.48127 475.80128 480.36158 485.40159 488.40129 492.72129 497.6416 499.681 504.721 507.241 512.0416">needs to be recognised properly so that it can detect the numbers and alphabets on the car plate </tspan><tspan y="-442.44606" x="95.399997 100.439998 105.0003 109.44 114.48 117.4806 122.5206 125.0406 129.95999 132.00029 136.5606 138.95999">accurately. </tspan><tspan y="-423.36607" x="95.399997 100.9197 105.9597 110.9997 113.639408 118.19971 121.1994 123.2397 125.759708 130.7997 133.6797 135.7191 140.7591 143.39969 148.43968 150.95967">The criteria of </tspan></text>
<text xml:space="preserve" transform="matrix(1 0 -0 1 0 792)" font-size="9" font-family="Arial" font-style="italic"><tspan y="-423.36607" x="153.72 156.71971 161.64 163.6803 168.72029 173.64058 176.40358 178.92357 183.96356 186.60416 191.16356 196.20355 203.64386 208.68386 210.72415 215.64444 218.04384 223.08383 225.84683 228.36682 233.40682 238.3271 241.0901 246.1301 249.1307 254.051 256.0904 261.1304 265.6907 268.091 270.854 272.8943 277.8146 280.5776 283.0976 288.1376 293.05793 295.82093 298.3409 300.3812 307.8206 312.8606 315.6236 318.50358 323.54359 328.5836 333.6236 338.5439 341.30693 346.34693 349.34663 354.38664 361.8269 363.8663 368.30693 373.34693 378.38694 381.14994 387.62995 389.66935 392.06965 397.10966 399.87266 402.39265 407.31297 412.35298 415.11598 420.0363 425.0763 429.6366 434.6766 437.6763 440.55628">&#x201c;plan to complete the project in the time range promised with the buyer&#x201d; </tspan></text>
<text xml:space="preserve" transform="matrix(1 0 -0 1 0 792)" font-size="9" font-family="ArialMT"><tspan y="-423.36607" x="443.31929 445.23899 449.7993 452.5623 457.6023 459.5229 464.0832 469.1232 471.8862 476.80653 481.84654 486.88655 489.52626 494.56626 497.08625 499.84925 502.36924 507.16984 512.08926">is also one of the </tspan><tspan y="-412.08906" x="95.4 99.960308 105.000308 109.44001 114.00031 118.920619 123.48002 128.04033 130.44333 135.00273 138.00334 140.04274 142.44304 147.48303 150.48274 152.52304 157.56304 159.96604 162.00543 164.04573 168.48543 171.00542 176.04541 181.0854 183.4884 185.5287 190.5687 193.0887 195.489 200.52899 205.56899 207.97199 212.53229 217.45258 220.45229 222.97229 228.01229 230.05258 235.09258 237.49288 242.53287 245.05377 248.05348 252.97377 257.53318 262.57319 267.6132 272.5335 274.5738 277.09379 279.13407 284.05348 289.09349 291.61347 296.05409 300.6135 305.0541 307.5741 312.6141 320.0535 322.56 324.963">success criteria listed in the car plate recognition system.  </tspan></text>
<text xml:space="preserve" transform="matrix(1 0 -0 1 0 792)" font-size="9" font-family="Arial" font-style="italic"><tspan y="-393.12605" x="95.40001 98.640018 105.12001 110.16001 112.320018 117.24032 122.28032 127.32032 129.36063 131.76003 133.80033 138.84032 143.7606 148.8006 150.84 152.88028 157.44058 162.36087 166.92028 169.44026 171.48055 176.52054 179.52025 181.68024 186.60053 191.64052 196.68051 201.6008 206.6408 209.16078 211.32077 216.24106 218.76105 223.80104 228.84104 231.84075 234.00074 236.40103 241.44103 246.48102 251.4013 253.5613 256.0813 261.0007 266.0407 270.60014 275.52046 277.68046 279.72074 281.64045 286.20075 288.72074 293.64015 298.68016">"No additional cost or budget other than those listed&#x201d;</tspan></text>
<text xml:space="preserve" transform="matrix(1 0 -0 1 0 792)" font-size="9" font-family="ArialMT"><tspan y="-393.12605" x="301.68 303.84 308.7603 311.76 316.80003 318.84303 323.88304 325.92243 330.36305 335.40306 337.44606 342.48606 347.52607 352.56608 354.60908 359.64909 362.16908 364.32908 366.72938 371.76939 376.68879 378.8488 383.4091 388.3294 392.8897 397.3294 402.36943 406.8091 411.36943 413.8894 418.9294 420.84913 423.00914 427.56944 430.4494 432.4897 435.00968 440.04969 442.92967 444.96907 450.00907 452.05207 454.09236 456.01206 460.57237 463.09236 468.13236 473.05268 475.2 480.12034 484.67976 486.83976 493.79945 499.31916 506.63615 512.03616"> are also one of the successful criteria listed by QTMT </tspan><tspan y="-381.72303" x="95.399997 97.92 102.96 107.5203 110.040309 111.96 117 119.520008 122.04001 126.96031 129.00061 133.56002 135.9603 141.00029 144 149.04 150.96059 156.00058 160.55998 163.07997 165.48027 167.877">Inc in this project.  </tspan></text>
<text xml:space="preserve" transform="matrix(1 0 -0 1 0 792)" font-size="9" font-family="Arial" font-weight="bold"><tspan y="-362.76" x="95.399997 100.439998 102.95999 113.399997 119.87999 124.91999 127.920589 130.44058 135.48058 140.52057 143.52118 146.04117 151.56087 156.96088 159.48087 166.56116 171.96117 177.00116 180.00087 185.52147 190.56147 194.04087 196.56085 202.08145 205.56085 207.96114 213.48084 219.00144 222.00115 224.52114 229.56113 234.96114 240.48174 243.00173 251.03873 256.07875 259.07844 261.59843 264.599 269.999 275.039 277.559 283.0787 286.559 292.0787 294.5987 299.519 304.55903 307.55873 310.0787 315.1187 320.5187 325.55873 330.59873 335.63874 340.55906 345.59907 348.11906 353.15907 356.51875 359.03874 362.0393 367.0793 370.5596 373.0796 378.1196 380.52">c. Reflect on whether or not you met the project success criteria. </tspan></text>
<text xml:space="preserve" transform="matrix(1 0 -0 1 0 792)" font-size="9" font-family="ArialMT"><tspan y="-352.32" x="95.399997"> </tspan><tspan y="-341.16" x="95.399997 101.4003 106.4403 111.0006 113.51971 116.03971 121.07971 126.11971 129.12032 131.5206 136.08 140.5206 145.08 147.59999 152.52028 160.08028 162.60027 167.64026 172.68025 175.67996 178.08026 183.12026 187.68056 190.08086 192.12026 196.68056 199.20055 204.12084 208.68024 213.60053 215.52022 220.56021 225.12052 230.0408 234.6002 237.1202 243.60019 248.64019 253.68018 256.19929 258.71928 265.19837 270.23838 272.75837 277.67778 282.71778 287.27809 292.31809 294.71839 299.7584 301.7978 306.8378 311.75813 316.79814 321.83815 326.87815 329.27845 331.31874 336.23814 338.75813 341.2781 346.3181 351.35813 353.8781 355.9184 360.8387 362.8781 365.3981 367.4384 372.3587 374.3981 376.9181 381.4784 383.8787 388.9187 393.9587 398.99873 401.5187 404.0387 409.4387 414.4787 419.5187 422.0387 426.4784 431.0387 435.4784 437.99839 443.0384 450.59928 452.99867 457.43928 462.47929 467.5193 470.03929 475.07929 478.07899 483.119 488.0393 490.0787 494.639 497.159 499.679 502.07929 507.1193 512.0387">Yes, our system perfectly achieves what we have planned in the initial stage. The system can predict the </tspan><tspan y="-330" x="95.399997 99.9603 104.5197 109.44 114.48 119.520008 124.560009 129.6 132.12 136.6803 141.72029 144.72 147.3606 152.27999 154.32028 159.36028 161.88027 166.92026 169.44025 174.00055 179.04055 182.04026 184.92026 189.96025 194.52056 197.04055 198.96024 203.52054 206.16114 211.20113 216.12052 221.1605 223.8011 226.80081 231.8408 234.3608 239.40079 242.4005 247.44049 250.08019 252.48049 257.52049 260.1602 262.68019 267.72019 272.7602 275.28019 277.32048 282.36048 284.88047 289.92048 292.80046 295.32044 300.36045 304.80015 309.84016 312.36299 314.99998 320.51969 325.5597 330.5997 333.1197 340.6797 345.7197 347.7591 352.7991 355.3191 359.8794 364.7997 369.35914 373.91944 378.83976 383.40007 387.83976 390.35975 395.39976 397.44004 400.07975 405.00007 410.04008 412.07948 417.11949 419.63948 422.16038 424.19978 428.76008 431.39979 433.80009 438.8401 443.8801 446.4001 449.0398 453.9601 459.00013 462.0007 464.6404 469.2007 473.6404 478.2007 480.7207 485.6401 493.2001 495.8407 502.201 507.1204 512.0407">scanned car plate correctly and return to the interface. The main successful point is that our system won </tspan><tspan y="-318.84" x="95.39998 97.91998 102.959987 107.999988 110.15999 114.60059 119.640598 124.2 126.600299 131.64029 139.20029 144.24028 147.12029 149.16059 153.71999 155.76027 160.32057 165.36057 167.75997 169.80027 174.36057 176.76087 181.80086 186.36026 188.76056 190.80086 195.84085 200.88085 202.92023 207.96022 213.00022 217.9196 220.07959 225.11959 229.67989 234.11959 239.15958 244.19957 246.71956 251.63985 256.67985 258.83985 263.76017 268.32048 270.48048 276.96049 282.0005 284.1605 289.0808 294.12083 298.68025 303.72026 305.76057 308.28056 313.32057 315.36085 317.76023 319.8005 321.8408 323.7605 328.8005 333.8405 335.88084 342.36085 347.40086 352.44087 354.96086 357.12086 362.16087 367.20088 370.20146 372.24085 376.80116 381.24085 385.80116 388.32115 393.24147 400.80146 402.96147 407.88179 412.92179 414.96119 420.0012 422.1612 424.5615 429.6015 431.7615 436.8015 441.72184 443.88185 448.92185 450.96214 453.8421 458.8821 463.92213 468.96214 473.52244 475.56184 480.60185 485.64186 490.68186 492.72218 497.76219 502.6825 507.1222 512.0425">the customer&#x2019;s satisfaction and accepted as we have fulfilled what our system able to do already and have </tspan><tspan y="-307.68" x="95.39998 100.43998 103.43968 107.999988 112.92029 120.480289 125.52029 127.43998 132.47998 134.99997 140.03997 144.96025 147.95995 150.00025 155.04024 157.44054 162.48053 165.48024 168.00023 172.92052 177.47992 182.51992 185.3999 187.4402 192.4802 195.00019 200.04018 202.92018 207.96018 212.52048 214.92078 217.80077 224.28076 226.32016 228.84015 233.88014 236.88074 241.92073 246.96073 249.84073 252.84043 257.28105 261.84046 266.40077 268.80107 273.84107 281.40107 283.80046 286.80104 293.7607 296.2807 301.3207 306.36073 309.3604 312.361 314.76039 319.80039 324.8404 329.8804 332.76039 335.28038 340.20069 345.2407 347.76069 350.28068 353.28126 355.80125 360.72065 365.76066 368.76124 373.80125 376.80094 381.72126 383.76155 388.68095 393.24125 395.76124 398.76094 400.68064 405.24095 408.24064 410.76063 412.6812 417.72123 419.64094 424.20124 429.24125 434.28126 439.20158 442.20127 447.24128 452.1616 455.1613 457.68128 459.60099 467.16099 472.201 474.72099 477.72068 484.20069 489.123 492.12 497.16 501.7203 504.12333 507.12394 512.04428">a completed interface interact with our system. Other than that, the project is finished on time. No extra </tspan><tspan y="-296.52" x="95.39996 97.91997 102.95997 107.99997 112.92027 117.480579 120.00058 125.04058 129.95998 134.99997 137.51996 142.08026 147.00055 151.55995 154.07994 156.48023 158.52053 163.07993 165.48021 170.5202 175.5602 180.60019 185.52048 190.56047 195.60047 198.12046 200.52075 205.56075 208.56046 211.08045 213.48075 218.52074 220.56014 225.12044 227.52072 232.56072 235.56043 240.60042 242.64072 247.5601 252.1204 254.6404 257.0407 259.081 263.6404 266.1604 269.04039 274.08039 279.1204 284.0407 286.081 289.0807 294.1207 299.1607 301.56297">funds and cost is needed for this project is required. </tspan></text>
<text xml:space="preserve" transform="matrix(1 0 -0 1 0 792)" font-size="9" font-family="Arial" font-weight="bold"><tspan y="-285.36" x="95.39996"> </tspan><tspan y="-274.19999" x="95.39996 100.91966 103.436969 113.39996 121.92026 127.439968 132.47997 135.48058 137.87996 144.96025 150.00025 153.48055 158.52054 161.04053 164.04024 169.44025 174.48024 177.00023 185.03723 190.07723 192.47753 197.99723 200.51721 203.0372 207.95749 212.99748 218.03748 223.55808 229.07778 233.99806 236.51805 241.55805 247.07775 252.59745 256.07774 258.59773 261.5974 266.63743 271.55775 279.59474 282.11473 284.6347 289.55503 294.59504 298.07533 303.59504 308.63505 314.15565 316.67564 319.67533 323.1556 328.5556 336.5926 339.11259 342.11228 347.63288 350.15287 355.07319 357.59318 363.11289 366.5923 372.11289 374.63288 379.67289 384.7129 387.7126 393.11997">d. What were the main lessons your team learned from this project? </tspan></text>
<text xml:space="preserve" transform="matrix(1 0 -0 1 0 792)" font-size="9" font-family="ArialMT"><tspan y="-263.87699" x="95.39993"> </tspan><tspan y="-252.71698" x="95.39993 100.91964 105.95964 110.99964 113.519649 120.959949 125.99995 128.04026 132.96054 135.48053 137.51993 142.44022 146.99962 151.55992 156.48021 161.5202 164.04019 166.08049 170.99988 176.03987 179.04048 184.08048 189.00077 194.04076 196.56075 198.60105 203.52133 206.04132 211.08132 216.0016 219.00131 221.5213 226.5613 229.561 234.601 236.6413 241.56159 246.12099 248.64098 251.04126 253.08156 257.64097 260.03694">The main lesson learned in our project is: </tspan><tspan y="-242.27698" x="95.39993"> </tspan><tspan y="-231.95398" x="95.39993 101.87993 106.91993 111.48023 113.51963 118.43993 123.479938 126.12054 131.03993 136.07993 141.11992 146.0402 148.6799 151.19989 156.23989 161.16017 168.72017 175.20017 180.24016 183.23987 187.68047 190.32016 195.36016 200.28044 205.32044 207.84043 212.40073 217.32012 224.88011 232.44011 237.3604 242.40039 244.44069 248.88039 253.92038 256.44038 258.36097 263.40098 268.44099 270.96098 273.00126 277.56068 280.08067 282.60066 287.64067 292.56098 295.20069 299.761 304.6813 309.2416 311.7616 314.2816 319.3216 321.84159 326.401 331.32133 335.76103 340.32133 345.36134 349.80195 354.36137 357.00196 361.92137 364.44136 367.08195 372.00135 377.04136 380.04106 382.68077 387.72077 390.60075 395.64076 397.68104 402.60136 407.16078 409.68077 412.08106 414.72077 417.24168 422.28169 424.80168 429.84169 434.88169 437.88139 440.40138 445.44139 448.44108 453.48109 455.40168 460.44169 465.00199 467.52198 469.92137 472.56196 477.60197 482.04167 487.08168 490.08137 494.52198 497.16169 502.2017 507.2417 512.0423">Having good teamwork and communication is the key to success of our project. In our project, every one </tspan><tspan y="-221.63098" x="95.39993 100.43993 102.95994 106.44294 108.962947 113.88325 118.92325 122.40625 129.84656 134.88655 142.44655 147.36684 152.40683 155.40654 159.84624 163.32924 168.36923 173.28952 177.84983 182.88982 186.37282 188.77312 193.81311 198.8531 200.8934 203.7734 207.25641 212.1767 218.6567 223.69669 227.17969 230.1794 235.21939 237.25969 242.17998 245.66298 248.66359 253.58298 258.14329 263.1833 268.1036 272.66304 275.183 277.1036 281.6639 286.70393 288.62364 293.18394 295.70393 299.18693 305.18724 310.10755 314.66697 319.58729 323.07029 328.1103 330.63029 333.99 336.50999 341.55 346.59 349.9506 357.5106 362.5506 369.99089 375.03089 380.0709 383.0706 386.4303 391.4703 396.5103 401.55033 406.47065 409.95365 412.47364 417.39396 420.87696 425.91697 430.35758 435.39759 438.39729 442.83699 447.87699 455.31727 460.35728 463.84028 466.36027 471.40028 476.3206 479.8036 484.8436 487.84419 492.76359 497.8036 499.84388 504.6436 512.08389">of the members have their own role respectively. Each of the member need to overcome the problem </tspan><tspan y="-211.30799" x="95.39993 99.96023 105.00022 109.92322 114.48351 119.523509 124.4465 126.7262 131.7662 136.20682 138.48653 143.52654 148.44954 153.48955 158.52956 163.45256 171.01256 172.92957 177.48897 179.76958 186.24959 191.17259 195.732 197.77231 202.79694 205.67694 210.71694 215.75693 217.91692 224.39691 229.4369 231.4772 236.0375 240.9569 243.23659 247.67719 252.71718 260.2772 265.1975 267.4772 272.5172 274.9175 277.1972 279.7172 284.7572 289.67753 291.9572 299.3975 304.4375 311.87779 316.9178 321.9578 324.9575 329.3972 331.67778 338.03718 343.07719 345.11747 349.67778 354.59718 356.87776 361.31745 363.83744 368.87745 373.31715 375.59773 377.638 382.5574 384.83799 387.35798 392.27738 397.31739 399.59797 402.59767 407.51799 412.55799 414.71797 419.27738 424.31739 429.2368 434.2768 436.43678 440.99708 446.03709 451.0771 455.9974 461.0374 463.5574 465.8371 470.2768 475.3168 482.75709 487.7971 490.07679 492.59678 497.5171 499.79679 502.3177 507.1174 512.0377">caused by pandemic Covid-19 which some of the members which stay in the red zone cannot come to the </tspan><tspan y="-200.86798" x="95.39994 100.43994 102.959949 105.47995 107.52025 111.95995 116.999958 119.762958 122.16235 127.202358 129.96537 136.44536 141.48535 144.36536 148.92566 151.44565 154.20865 160.68865 165.60894 170.64893 175.08863 180.12862 182.6486 185.4116 191.8916 196.81099 199.57399 204.61399 209.53427 214.45456 219.49456 222.25756 224.77754 229.69783">office to work. Hence, we need to </tspan></text>
<text xml:space="preserve" transform="matrix(1 0 -0 1 0 792)" font-size="9" font-family="Arial" font-weight="bold"><tspan y="-200.86798" x="232.46083 237.50083 243.02053 250.94052 258.9775 264.49723 270.01695 272.41725 277.45726 282.49726 285.49696 290.41728 293.18028 300.13996 305.17997 307.69996">communicate well</tspan></text>
<text xml:space="preserve" transform="matrix(1 0 -0 1 0 792)" font-size="9" font-family="ArialMT"><tspan y="-200.86798" x="310.20295 312.96595 315.36625 320.40626 323.04597 330.60597 335.52629 340.08659 345.1266 347.7663 352.3266 357.3666 360.3663 365.28663 368.04963 370.57054 375.61054 380.52995 383.04994 385.81294 390.73326 395.29267 400.33268 403.21266 407.77296 412.81297 417.73329 422.7733 425.5363 429.97599 435.016 442.45628 447.49629 449.53569 454.57569 456.97599 462.016 467.056 469.819 472.339 477.2584 482.2984 484.3378 487.21778 489.98078 492.02107 497.06108 501.98048 504.74348 507.26347 512.0641"> to make sure that everyone completed their job to </tspan><tspan y="-190.54499" x="95.408939 100.44894 103.44863 108.48863 113.048938 117.96924 123.00924 125.52924 128.04924 134.52924 139.44953 144.00893 146.52892 148.56922 153.4895 158.5295 161.04949 166.08948 168.60947 171.00885 173.52884 175.56914 183.00945 188.04944 190.56943 195.60942 200.52881 205.5688 208.08879 212.52849 217.44878 222.00818 224.52817 227.04816 231.96845 236.52875 239.04874 244.08873 249.12873 252.00873 254.52872 259.56874 262.56843 267.60844 269.52815 274.56816 279.12846 281.52876 284.04875 289.08876 294.12876 299.04908 304.08909 308.6485 311.0488 313.5688 318.6088 321.12879 325.56849 330.6085 338.04789 343.0879 345.12818 350.16819 352.68818 357.6085 360.12849 362.16789 367.2079 369.6082 374.6482 379.6882 382.2082 388.6882 393.7282 398.64854 403.20884 407.64854 410.16853 412.56895">prevent wasting of time and cost as our project needs to complete in 14 weeks.  </tspan><tspan y="-180.22199" x="95.408939"> </tspan><tspan y="-169.89899" x="95.408939 100.92864 105.96864 109.091648 113.65195 118.57135 126.13135 131.17134 133.21164 138.13193 140.65192 145.69191 148.81491 151.3358 156.3758 161.41579 164.53879 166.93909 171.97908 176.41878 180.97908 183.49907 186.62207 193.58177 198.62177 203.66176 206.18175 208.70174 211.82474 216.26444 221.30443 226.34442 229.34503 231.86502 234.98802 237.02832 241.58863 244.71163 247.11193 252.15192 257.19194 260.3149 267.8749 272.7943 277.3546 279.8746 282.9976 284.9173 292.4773 297.5173 302.5573 305.557 307.9573 312.9973 318.03733 320.5573 323.6803 328.60063 333.64064 338.08033 343.12034 350.68034 355.72035 360.64067 363.16065 366.28364 370.84306 375.88307 379.00605 381.52604 386.44544 391.48545 394.00544 397.12843 402.16844 407.08876 411.64906 416.68907 419.81205 427.37205 432.29237 439.85237 444.77268 449.81269 452.81239 455.93537 460.37507 465.41508 470.45509 473.57807 476.09806 481.13807 483.17835 485.09806 490.13807 496.61808 499.74107 502.26106 507.18046 512.10079">To complete the task, Gantt chart is the most important document so that each member can follow the </tspan><tspan y="-159.57599" x="95.408939 102.36864 107.40864 112.44864 114.96864 117.48865 120.72955 125.288959 130.32895 135.36894 138.36956 140.76895 144.12955 149.04894 154.08893 159.00922 162.36981 166.92922 171.8495 179.4095 184.4495 186.36919 191.40918 193.92917 198.84946 202.20915 204.72914 209.64943 214.68943 217.92942 225.48941 227.52971 229.57 234.4894 239.0497 241.56969 246.48998 251.52997 256.44938 259.80998 264.84999 269.28968 273.84999 278.88999 281.88969 286.81 288.85029 293.8903 298.8097 302.1703 304.69029 309.6106 312.9703 315.3706 320.4106 325.45063 328.6906 331.2106 333.25 340.69029 345.7303 349.09 356.53028 361.57029 366.6103 371.5306 376.57063 381.61064 389.0509 394.0909 399.13093 401.6509 404.0503 407.4109 413.8909 418.9309 425.41093 430.33033 434.89064 439.93064 442.9312 445.3306 448.6912 453.2506 458.17094 465.73094 470.77095 474.01094 479.05094 484.09095 487.09153 489.4909 491.5312 496.5712 501.49153 504.7315 509.6509 512.0512">Gantt chart and complete the milestone according to the time management. However, some portion of </tspan><tspan y="-149.13599" x="95.408939 97.92894 99.96924 107.529239 112.56924 114.96864 122.52864 124.449237 129.48923 134.52922 137.04921 139.5692 144.48949 149.52948 152.04947 156.96886 162.00885 167.04885 172.08884 177.00913 182.04912 184.5691 187.0891 192.12909 194.64908 197.52909 202.56908 207.60907 209.52967 211.56906 216.48935 221.04965 226.08965 228.60964 233.64963 236.04901 238.569 243.609 246.12899 250.56958 255.60958 260.64958 265.56898 268.08897 273.12898 278.16899 280.68898 287.16987 289.08958 291.60957 296.64958 299.16957 301.68955 306.60987 311.64988 314.16987 319.20988 322.08985 327.12986 329.17015 334.08955 338.52925 341.04924 343.5692 348.60923 353.64924 355.56895 360.60896 365.16926 370.08866 375.12867 377.53193">time might be needed to reallocate to cope up with the project delayed. </tspan><tspan y="-138.81299" x="95.408939"> </tspan><tspan y="-128.48999" x="95.408939 102.96893 108.008937 111.00863 116.04863 120.96893 125.529239 130.56923 133.56894 135.96924 139.09224 145.57314 150.61313 153.73613 158.65642 160.68595 165.24625 170.16564 173.28864 175.32894 180.24832 185.28832 188.28893 193.32892 196.45192 198.85222 203.89221 208.9322 211.4522 214.5752 217.4552 219.4955 224.0549 228.4955 231.6185 239.1785 244.09879 249.13878 254.17877 259.0991 264.1391 271.6991 276.61943 281.65943 284.1794 287.3024 292.22273 297.26274 302.30274 307.22306 311.78248 314.90547 317.42546 322.34577 325.46876 330.02906 334.94938 339.86878 344.90879 349.9488 354.5091 357.02909 360.02967 362.06907 367.10908 370.10966 375.14967 379.70909 384.74909 387.62907 392.18937 395.18907 400.22908 403.22966 408.26966 410.30906 415.22938 419.78968 422.30967 424.70906 427.83204 429.8723 434.91233 437.91203 442.95204 447.99205 450.9926 453.9923 459.03233 461.9123 466.9523 468.99259 474.0326 478.4723 480.99229 483.51228 486.63526 491.55467 496.59468 501.63468 504.75767 509.67799 512.0783">Moreover, we also learn that risk management needs to conduct in every project. in our project, one of </tspan><tspan y="-118.16699" x="95.40894 100.448947 105.488948 108.48864 111.009548 118.56864 123.60864 131.04895 136.08895 141.12894 144.12955 148.56925 151.20894 156.24893 159.24954 164.16983 168.72924 173.64952 176.28922 181.32921 183.2498 187.8092 190.3292 192.36949 197.40949 202.44948 204.84978 209.88977 214.92977 217.44976 222.48975 227.52974 232.56974 235.08972 240.12972 242.17002 244.0897 246.7303 249.25029 254.29029 259.2097 261.85029 266.28999 271.33 276.37 281.2903 283.93003 285.9703 290.41 293.0506 300.49089 302.53028 306.96998 311.53028 313.57057 318.49089 323.53089 326.0518 328.6915 334.6918 337.0912 339.4915 344.5315 347.5312 350.17179 355.0921 359.65153 364.69154 369.73155 372.73213 374.65184 379.69184 384.61216 389.17158 391.21186 396.25187 401.17219 403.8119 406.33189 411.2522 413.29249 417.73219 420.3719 425.4119 428.41249 433.45249 438.3719 440.41218 445.3325 452.8925 455.41249 457.93247 464.41249 469.45249 472.0922 474.13249 479.1725 484.2125 487.09248 492.13249 494.65248 497.17247 499.69245 504.73246 509.65278 512.0531">our members broke his laptop and all the code is missing. After experiencing this problem, we learnt that </tspan><tspan y="-107.72699" x="95.40894 98.40864 100.44894 105.00924 109.448947 111.96895 119.40925 124.44925 129.48925 134.52924 139.44953 144.48952 152.04952 156.9689 162.0089 164.52889 166.92917 168.96947 173.40917 175.92916 177.96945 185.40886 190.44886 195.48885 198.48946 201.00945 205.92884 210.96883 213.48882 215.8882 217.80879 222.84879 225.36878 230.40877 235.44876 238.32877 240.84876 245.88875 248.88846 253.80875 255.84815 260.88816 265.32878 267.84877 270.36875 275.40876 280.32908 285.36909 287.88908 294.36909 299.28849 301.80848 306.84849 311.7688 314.2888 318.8491 323.7685 331.3285 338.76878 340.80906 343.32905 345.84904 350.88905 355.92906 358.80903 361.329 365.7687 370.80873 375.84873 380.76905 385.32936 387.84934 390.24873 395.28874 397.80873 404.76933 406.8096 409.3296 415.8096 420.8496 425.769 428.289 433.20933 437.76963 442.80964 445.80934 450.24903 452.769 455.289 457.2096 464.7696 469.8096 472.3296 474.7299 479.7699 482.2899 487.3299 490.20988 495.24989 499.8093 504.7296 509.64994 512.0493">risk management is important in our project and we do commit our codes to GitHub every time to prevent </tspan><tspan y="-97.40399" x="95.40894 99.969249 105.00925 110.04925 114.96865 117.488658 125.04865 126.969249 131.52956 135.96926 138.00865 143.04865 148.08864 150.48802 155.52802 160.56801 165.608 168.00829 173.04828 177.96857 182.52797 187.08827 192.00856 197.04856 199.56855 201.60884 206.52823 209.04822 211.5682 216.4885 221.52849 224.04848 228.60878 230.52848 235.56847 240.60846 245.64846 248.16844 251.04845 256.08845 261.12846 266.04878 270.6082 272.64848 275.16847 280.20848 283.08845 287.64875 290.05195">code missing and backup in the cloud repository. </tspan></text>
<g id="Layer-1" data-name="Artifact">
<path transform="matrix(1,0,0,-1,0,792)" d="M 89.76 554.64 L 90.241008 554.64 L 90.241008 555.12 L 89.76 555.12 Z "/>
<path transform="matrix(1,0,0,-1,0,792)" d="M 90.24 554.64 L 517.32 554.64 L 517.32 555.12 L 90.24 555.12 Z "/>
<path transform="matrix(1,0,0,-1,0,792)" d="M 517.32 554.64 L 517.8 554.64 L 517.8 555.12 L 517.32 555.12 Z "/>
<path transform="matrix(1,0,0,-1,0,792)" d="M 89.76 87.48 L 90.241008 87.48 L 90.241008 554.64 L 89.76 554.64 Z "/>
<path transform="matrix(1,0,0,-1,0,792)" d="M 89.76 87 L 90.241008 87 L 90.241008 87.48 L 89.76 87.48 Z "/>
<path transform="matrix(1,0,0,-1,0,792)" d="M 89.76 87 L 90.241008 87 L 90.241008 87.48 L 89.76 87.48 Z "/>
<path transform="matrix(1,0,0,-1,0,792)" d="M 90.24 87 L 517.32 87 L 517.32 87.48 L 90.24 87.48 Z "/>
<path transform="matrix(1,0,0,-1,0,792)" d="M 517.32 87.48 L 517.8 87.48 L 517.8 554.64 L 517.32 554.64 Z "/>
<path transform="matrix(1,0,0,-1,0,792)" d="M 517.32 87 L 517.8 87 L 517.8 87.48 L 517.32 87.48 Z "/>
<path transform="matrix(1,0,0,-1,0,792)" d="M 517.32 87 L 517.8 87 L 517.8 87.48 L 517.32 87.48 Z "/>
</g>
<g id="Layer-1" data-name="P">
</g>
<text xml:space="preserve" transform="matrix(1 0 -0 1 0 792)" font-size="12" font-family="ArialMT"><tspan y="-74.76" x="72"> </tspan></text>
</g>
</svg>
